<svg xmlns="http://www.w3.org/2000/svg" viewBox="0.14 0.05 525.79 525.79"><!-- Source: https://football-logos.cc --><path d="M49.152 279.621a.35.35 0 0 1 .438.242.35.35 0 0 1-.242.438l-.078.023a9.7 9.7 0 0 1 2.343.356c2.465.675 5.14 2.289 7.446 4.687l.023.02c2.309 2.41 3.82 5.156 4.395 7.648.59 2.559.199 4.863-1.309 6.309-1.52 1.46-4.016 1.797-6.711 1.12-2.578-.64-5.363-2.21-7.648-4.589-2.317-2.414-3.696-5.219-4.133-7.766-.446-2.593.082-4.941 1.582-6.379a4.4 4.4 0 0 1 .762-.593 56 56 0 0 1-6.579 1.023c-3.214.297-6.398.293-9.351-.066a.354.354 0 1 1 .082-.703c2.914.355 6.043.359 9.207.066a54.7 54.7 0 0 0 9.773-1.836m-.832 15.762c2.188 2.285 4.848 3.781 7.309 4.398 2.465.614 4.715.336 6.05-.945 1.313-1.262 1.641-3.328 1.11-5.64-.55-2.376-1.996-5-4.21-7.313l-.032-.028c-2.211-2.304-4.777-3.851-7.121-4.496-2.29-.625-4.364-.382-5.68.88-1.32 1.269-1.781 3.386-1.375 5.753.418 2.418 1.73 5.086 3.95 7.39m8.72 23.867c0 .195-.161.352-.356.352a.35.35 0 0 1-.348-.356c.004-1.82.234-3.691.648-5.59-1.007 1.957-2.71 3.696-5.093 4.961l-.043.024c-3.028 1.597-6.57 2.129-9.668 1.586-2.97-.524-5.543-2.04-6.887-4.559l-.027-.047c-1.36-2.582-1.383-5.555-.325-8.277 1.055-2.703 3.18-5.16 6.137-6.73l.043-.028c2.961-1.559 6.184-1.934 9.012-1.285 2.847.652 5.293 2.344 6.664 4.918l.031.05c.934 1.782 1.34 3.672 1.227 5.512q.233-.69.484-1.383c1.36-3.68 3.25-7.386 5.387-10.949a.356.356 0 0 1 .484-.125c.172.102.223.32.121.485-2.113 3.527-3.984 7.195-5.324 10.832-1.34 3.625-2.156 7.218-2.168 10.609m-22.747 4.45a.353.353 0 0 1-.414-.282l-.008-.031a.355.355 0 0 1-.129-.438c.926-2.086 1.098-4.449.692-6.738-.43-2.434-1.528-4.781-3.082-6.606-1.446-1.699-3.016-3.222-4.942-4.19l-.027-.013c-1.918-.957-4.203-1.367-7.074-.847a.4.4 0 0 1-.207-.024.35.35 0 0 1-.395-.383c.316-3.308 1.215-7.164 2.61-10.875 1.265-3.347 2.925-6.586 4.94-9.21a.351.351 0 1 1 .56.425c-1.97 2.57-3.602 5.746-4.837 9.035-1.32 3.504-2.187 7.137-2.535 10.293 2.922-.48 5.27-.039 7.258.954l.024.015c2.027 1.016 3.664 2.602 5.16 4.363 1.636 1.922 2.789 4.387 3.242 6.942.414 2.308.258 4.7-.613 6.844 3.312-.633 6.824-1.27 10.375-1.84 3.664-.586 7.34-1.106 10.828-1.485a.355.355 0 0 1 .39.313.355.355 0 0 1-.316.39c-3.488.38-7.148.895-10.79 1.481a341 341 0 0 0-10.71 1.906m7.125-22.47c-2.805 1.489-4.824 3.813-5.816 6.372-.993 2.543-.97 5.312.304 7.714v.004c1.235 2.32 3.625 3.72 6.395 4.207 2.96.52 6.347.008 9.238-1.523l.008-.004c2.797-1.484 4.594-3.64 5.371-6.023.777-2.38.547-4.997-.734-7.403l-.004-.008c-1.27-2.394-3.551-3.968-6.203-4.578-2.68-.613-5.743-.25-8.551 1.239Zm-1.961-1.613v.004c-2.195 2.457-4.945 4.004-7.617 4.516-2.711.52-5.36-.016-7.285-1.73-1.926-1.716-2.766-4.278-2.563-7.032.195-2.719 1.414-5.633 3.606-8.09 2.187-2.46 4.937-4.008 7.617-4.52 2.71-.519 5.351.016 7.281 1.731l.008.012c1.922 1.715 2.758 4.27 2.555 7.02-.2 2.718-1.414 5.632-3.602 8.09m-.531-.469c2.082-2.34 3.238-5.101 3.43-7.671.183-2.54-.579-4.891-2.333-6.45-1.753-1.562-4.175-2.047-6.675-1.566-2.532.484-5.137 1.953-7.22 4.293-2.085 2.34-3.245 5.101-3.433 7.672-.183 2.539.578 4.89 2.332 6.453 1.754 1.558 4.18 2.043 6.68 1.562 2.527-.484 5.137-1.953 7.219-4.293m0 0" style="stroke:none;fill-rule:evenodd;fill:#678e76;fill-opacity:1" data-source="https://football-logos.cc"></path><path d="M34.434 316.21c-.43-2.433-1.528-4.78-3.082-6.605-1.446-1.699-3.016-3.222-4.942-4.19l-.027-.013c-1.906-.953-4.172-1.363-7.024-.855.149 1.117.383 2.242.707 3.36l.004.015a22.8 22.8 0 0 0 10.79 13.633q1.4.786 2.894 1.367c.914-2.078 1.086-4.43.68-6.711M42.04 302.379c-4.833 2.562-7.188 7.976-4.977 12.156 2.214 4.176 8.152 5.535 12.988 2.977 4.836-2.563 7.34-8.215 5.125-12.39-2.211-4.18-8.297-5.306-13.137-2.743M25.914 300.879c3.148 2.8 8.656 1.746 12.309-2.356 3.648-4.105 4.058-9.699.914-12.5-3.149-2.796-8.657-1.742-12.305 2.36-3.652 4.101-4.062 9.695-.918 12.496M46.633 283.164c-2.426 2.336-1.235 7.531 2.676 11.602 3.91 4.07 9.05 5.48 11.484 3.144 2.43-2.336 1.234-7.531-2.676-11.601-3.906-4.075-9.05-5.48-11.484-3.145M64.215 300.36c-3.926 6.027-5.91 11.632-5.887 16.796a22.7 22.7 0 0 0 3.14-4.41 22.87 22.87 0 0 0 2.747-12.387m0 0" style="stroke:none;fill-rule:evenodd;fill:#00863c;fill-opacity:1"></path><path d="M48.32 295.383c2.188 2.285 4.848 3.781 7.309 4.398 2.465.614 4.715.336 6.05-.945 1.11-1.07 1.516-2.711 1.294-4.594a22.83 22.83 0 0 0-10.758-12.633 12 12 0 0 0-.79-.25c-2.288-.625-4.362-.382-5.679.88-1.32 1.269-1.781 3.386-1.375 5.753.418 2.418 1.73 5.086 3.95 7.39m.989-.617c-3.91-4.07-5.102-9.266-2.676-11.602 2.433-2.336 7.578-.93 11.484 3.145 3.91 4.07 5.106 9.265 2.676 11.601-2.434 2.336-7.574.926-11.484-3.144M38.926 299.148c2.082-2.34 3.238-5.101 3.43-7.671.183-2.54-.579-4.891-2.333-6.45-1.753-1.562-4.175-2.047-6.675-1.566-2.532.484-5.137 1.953-7.22 4.293-2.085 2.34-3.245 5.101-3.433 7.672-.183 2.539.578 4.89 2.332 6.453 1.754 1.558 4.18 2.043 6.68 1.562 2.527-.484 5.137-1.953 7.219-4.293m.21-13.125c3.145 2.801 2.735 8.395-.913 12.5-3.653 4.102-9.16 5.157-12.309 2.356-3.144-2.8-2.734-8.395.918-12.496 3.648-4.102 9.156-5.156 12.305-2.36M41.418 301.23c-2.805 1.489-4.824 3.813-5.816 6.372-.993 2.543-.97 5.312.304 7.714v.004c1.235 2.32 3.625 3.72 6.395 4.207 2.96.52 6.347.008 9.238-1.523l.008-.004c2.797-1.484 4.594-3.64 5.371-6.023.777-2.38.547-4.997-.734-7.403l-.004-.008c-1.27-2.394-3.551-3.968-6.203-4.578-2.68-.613-5.743-.25-8.551 1.239Zm-4.355 13.305c-2.211-4.18.144-9.594 4.976-12.156 4.84-2.563 10.926-1.438 13.137 2.742 2.215 4.176-.29 9.828-5.125 12.39-4.836 2.56-10.774 1.2-12.989-2.976m0 0" style="stroke:none;fill-rule:evenodd;fill:#f4f7f6;fill-opacity:1"></path><path d="M34.941 307.344c1.055-2.703 3.18-5.16 6.137-6.73l.043-.028c2.961-1.559 6.184-1.934 9.012-1.285 2.847.652 5.293 2.344 6.664 4.918l.031.05c.934 1.782 1.34 3.672 1.227 5.512q.233-.69.484-1.383c1.344-3.64 3.207-7.304 5.316-10.836a21 21 0 0 0-.226-1.066c-.2 1.121-.676 2.102-1.461 2.848-1.52 1.46-4.016 1.797-6.711 1.12-2.578-.64-5.363-2.21-7.648-4.589-2.317-2.414-3.696-5.219-4.133-7.766-.446-2.593.082-4.941 1.582-6.379a4.4 4.4 0 0 1 .762-.593 56 56 0 0 1-6.579 1.023c-3.21.297-6.39.293-9.34-.062a22 22 0 0 0-3.304 2.422c-1.957 2.562-3.582 5.726-4.817 9.003-1.32 3.504-2.187 7.137-2.535 10.293 2.922-.48 5.27-.039 7.258.954l.024.015c2.027 1.016 3.664 2.602 5.16 4.363 1.636 1.922 2.789 4.387 3.242 6.942.414 2.308.258 4.7-.613 6.844 3.312-.633 6.824-1.27 10.375-1.84 3.652-.586 7.324-1.102 10.804-1.48.215-.173.434-.348.64-.528.017-1.77.25-3.586.65-5.43-1.008 1.957-2.712 3.696-5.094 4.961l-.043.024c-3.028 1.597-6.57 2.129-9.668 1.586-2.97-.524-5.543-2.04-6.887-4.559l-.027-.047c-1.36-2.582-1.383-5.555-.325-8.277m4.516-7.723c-2.195 2.457-4.945 4.004-7.617 4.516-2.711.52-5.36-.016-7.285-1.73-1.926-1.716-2.766-4.278-2.563-7.032.195-2.719 1.414-5.633 3.606-8.09 2.187-2.46 4.937-4.008 7.617-4.52 2.71-.519 5.351.016 7.281 1.731l.008.012c1.922 1.715 2.758 4.27 2.555 7.02-.2 2.718-1.414 5.632-3.602 8.093M45.004 321.793c-3.246.52-6.496 1.102-9.602 1.691a22.24 22.24 0 0 0 12.606.075 22.2 22.2 0 0 0 6.554-3.11c-3.109.363-6.343.828-9.558 1.344m0 0" style="stroke:none;fill-rule:evenodd;fill:#f4f7f6;fill-opacity:1"></path><path d="M59.207 308.64c-1.234 3.337-2.023 6.65-2.152 9.798q.66-.614 1.273-1.282c-.023-5.164 1.961-10.77 5.887-16.797-.043-.57-.098-1.14-.18-1.71-1.906 3.269-3.594 6.644-4.828 9.992M19.168 300.918a47 47 0 0 1 2.148-7.645 41 41 0 0 1 2.688-5.789c-.77.98-1.457 2.028-2.05 3.121a22.8 22.8 0 0 0-2.786 10.313M31.164 281.5c2.625.242 5.406.219 8.215-.043a55 55 0 0 0 8.75-1.555 22.25 22.25 0 0 0-12.719-.109l-.027.008a22.4 22.4 0 0 0-4.219 1.699m0 0" style="stroke:none;fill-rule:evenodd;fill:#f4f7f6;fill-opacity:1"></path><path d="M50.215 282.89c1.258.153 2.476.579 3.613 1.133 1.367.668 2.656 1.54 3.86 2.48l.863-.503a.923.923 0 0 1 1.258.336.92.92 0 0 1-.332 1.258l-.684.398c.418.945.734 1.934.953 2.945.246 1.125.363 2.274.375 3.422.988 1.004 1.856 2.118 2.488 3.38.618 1.222.98 2.515 1.102 3.866l.8.024a.92.92 0 0 1-.047 1.84l-.85-.024a28 28 0 0 1-.962 3.918 26 26 0 0 1-1.683 4.028l.414 3.39a.913.913 0 0 1-.797 1.024.926.926 0 0 1-1.031-.801l-.34-2.79-5.086.47a21.4 21.4 0 0 1-3.047 2.898 24.5 24.5 0 0 1-3.562 2.309l.07 3.84 4.21-.227a.92.92 0 0 1 .97.875.926.926 0 0 1-.872.965l-5.09.273-8.038 1.793a.927.927 0 0 1-1.102-.695.925.925 0 0 1 .7-1.102l7.386-1.644-.074-3.973a37 37 0 0 1-3.121-1.277 41 41 0 0 1-3.504-1.852l-7.633 1.008-.406 5.598a.92.92 0 1 1-1.836-.133l.433-5.977a82 82 0 0 1-2.593-3.336 81 81 0 0 1-2.305-3.332l-4.672.653a.922.922 0 0 1-.258-1.824l4.625-.645 1.625-7.211a22.6 22.6 0 0 1-.992-3.375 30 30 0 0 1-.484-3.059l-3.727-.27a.924.924 0 0 1-.855-.98.93.93 0 0 1 .988-.855l4.015.293a21.3 21.3 0 0 1 3.235-3.293 18.2 18.2 0 0 1 3.598-2.293 8.7 8.7 0 0 1 .59-2.41q.303-.75.75-1.418l-1.333-.477a.926.926 0 0 1-.558-1.176.924.924 0 0 1 1.18-.558l2.234.8a32 32 0 0 1 4.789-1.136 28 28 0 0 1 4.582-.344l.039-.344a.92.92 0 0 1 1.004-.824c.5.051.875.504.824 1.008l-.059.586c.778.445 1.524.945 2.235 1.492.75.574 1.45 1.195 2.125 1.856m-15.688 14.551a85 85 0 0 0 1.586-3.375c.446-1.007.864-2.039 1.215-3.086a16.986 16.986 0 0 0-4.656-3.516 16.2 16.2 0 0 0-3.293 2.09c-1.125.915-2.125 1.966-3.027 3.098.109 1.094.261 2.184.492 3.258.187.887.43 1.77.738 2.625a93 93 0 0 1 3.313-.601 67 67 0 0 1 3.632-.493m-6.765 2.934-1.61 7.152a76 76 0 0 0 2.356 3.41 68 68 0 0 0 2.437 3.145l7.453-.984c.172-1.649.594-3.082 1.13-4.676.277-.82.581-1.692.695-2.559l-5.489-6.593a72 72 0 0 0-3.55.48 101 101 0 0 0-3.422.625m14.23 6.086c-.152.867-.437 1.71-.719 2.547-.503 1.5-.906 2.844-1.058 4.406a39 39 0 0 0 3.12 1.633c1.036.484 2.099.918 3.18 1.293a22.7 22.7 0 0 0 3.43-2.207 19.7 19.7 0 0 0 2.711-2.555c-.289-1.035-.66-2.039-1.093-3.023a31 31 0 0 0-1.47-2.868c-1.359.215-2.726.38-4.1.504-1.329.125-2.661.211-4 .27m5.102-16.758c-1.38 0-2.754.152-4.102.453a21 21 0 0 0-3.879 1.274c-.37 1.148-.828 2.273-1.312 3.379a91 91 0 0 1-1.582 3.367l5.375 6.457a77 77 0 0 0 4.234-.274 66 66 0 0 0 4.09-.504c.523-1.3 1-2.62 1.422-3.953a49 49 0 0 0 1.086-4.007c-.66-1.153-1.457-2.211-2.336-3.204-.934-1.054-1.953-2.035-2.996-2.988m-2.461-8.734c-1.637-.051-3.27.054-4.887.308-1.55.243-3.074.618-4.566 1.09a6.4 6.4 0 0 0-1.075 1.754 6.7 6.7 0 0 0-.449 1.777 18.928 18.928 0 0 1 4.941 3.75 23 23 0 0 1 3.997-1.289 20.8 20.8 0 0 1 4.336-.496c.36-.625.699-1.265 1.008-1.918.296-.629.566-1.27.8-1.922a21 21 0 0 0-1.773-1.53 18 18 0 0 0-2.332-1.524m5.789 3.816c-.242.66-.52 1.309-.82 1.945-.301.641-.63 1.266-.973 1.88.984.913 1.95 1.855 2.84 2.863.898 1.015 1.718 2.093 2.41 3.257l4.39-.761a14.4 14.4 0 0 0-.324-2.64 13.8 13.8 0 0 0-1.074-3.122c-1.191-.957-2.48-1.86-3.851-2.527-.817-.399-1.692-.73-2.598-.895m1.176 19.824a36 36 0 0 1 1.644 3.2c.434.98.813 1.98 1.11 3.007l5.086-.468a24 24 0 0 0 1.464-3.547c.457-1.426.79-2.887 1.008-4.363a8.8 8.8 0 0 0-.941-3.872c-.532-1.054-1.258-1.992-2.082-2.836l-4.723.82c-.3 1.317-.66 2.618-1.066 3.907a56 56 0 0 1-1.5 4.152m0 0" style="stroke:none;fill-rule:evenodd;fill:#00863c;fill-opacity:1"></path><path d="M26.629 299.621a21.7 21.7 0 0 1-1.035-3.445 30 30 0 0 1-.516-3.469l-4.207-.309a.35.35 0 0 1-.328-.375.35.35 0 0 1 .375-.328l4.32.313c1.032-1.32 2.14-2.469 3.34-3.442a17.3 17.3 0 0 1 3.77-2.355q.095-1.394.578-2.57a7.8 7.8 0 0 1 1.129-1.91l-2.043-.735a.356.356 0 0 1-.215-.453.36.36 0 0 1 .457-.215l2.41.867a32 32 0 0 1 4.887-1.175 27.4 27.4 0 0 1 5.008-.325l.086-.863a.36.36 0 0 1 .386-.32c.196.02.336.195.317.386l-.094.957a19 19 0 0 1 2.488 1.63 24 24 0 0 1 2.219 1.945c1.125.113 2.328.472 3.621 1.101q1.887.924 4.055 2.656l1.203-.695a.353.353 0 0 1 .351.61l-1.125.656c.52 1.09.891 2.187 1.125 3.3.254 1.16.368 2.34.364 3.536 1.03 1.02 1.914 2.133 2.55 3.398a10.1 10.1 0 0 1 1.07 4.164l1.321.043a.351.351 0 1 1-.02.703l-1.343-.039a27.7 27.7 0 0 1-1.02 4.328 25.5 25.5 0 0 1-1.73 4.094l.437 3.563a.35.35 0 0 1-.308.394.353.353 0 0 1-.395-.308l-.402-3.332-5.871.539a20.4 20.4 0 0 1-3.117 2.996 24 24 0 0 1-3.782 2.414l.086 4.777 4.805-.258c.191-.007.36.14.371.336a.36.36 0 0 1-.34.371l-5.137.278-8.085 1.8a.353.353 0 1 1-.153-.687l7.836-1.746-.086-4.832a35 35 0 0 1-3.445-1.387c-1.2-.558-2.41-1.2-3.621-1.922l-8.285 1.094-.438 6.059a.355.355 0 0 1-.707-.05l.45-6.208a73 73 0 0 1-2.716-3.485 78 78 0 0 1-2.488-3.605l-5.027.7a.35.35 0 0 1-.399-.302.35.35 0 0 1 .297-.398l5.016-.7Zm-.34-3.594q.346 1.636.926 3.16a93 93 0 0 1 3.77-.69 66 66 0 0 1 3.913-.524 91 91 0 0 0 1.735-3.68c.523-1.188.984-2.348 1.332-3.45a17.6 17.6 0 0 0-2.477-2.277 17.6 17.6 0 0 0-2.804-1.73q-1.953.884-3.664 2.277c-1.165.946-2.247 2.07-3.254 3.367.113 1.215.277 2.399.523 3.547m1 3.868-1.742 7.742a75 75 0 0 0 5.164 7.05l8.21-1.085c.161-2.063.68-3.618 1.145-4.997.348-1.035.66-1.968.746-2.921l-5.835-7.008a67 67 0 0 0-3.883.515c-1.266.207-2.54.442-3.805.704m14.215 6.015c-.113.973-.422 1.899-.77 2.918-.453 1.356-.968 2.883-1.113 4.89a39 39 0 0 0 3.473 1.844 34 34 0 0 0 3.468 1.391 23.5 23.5 0 0 0 3.731-2.375 20 20 0 0 0 2.988-2.86 23 23 0 0 0-1.199-3.394 35 35 0 0 0-1.691-3.258 66 66 0 0 1-4.45.563 80 80 0 0 1-4.437.281m-2.852-14.898c-.363 1.152-.836 2.347-1.37 3.566a93 93 0 0 1-1.735 3.676l5.793 6.957a83 83 0 0 0 4.539-.285 65 65 0 0 0 4.441-.563 51 51 0 0 0 1.559-4.293c.441-1.386.836-2.82 1.144-4.265-.691-1.262-1.55-2.407-2.507-3.489-.97-1.093-2.051-2.132-3.2-3.175-1.52-.02-3.004.14-4.449.46-1.437.32-2.84.797-4.215 1.41m6.133-10.606a27.2 27.2 0 0 0-5.125.309 31 31 0 0 0-4.805 1.164 7 7 0 0 0-1.273 2.027 7.4 7.4 0 0 0-.527 2.324q1.508.75 2.86 1.77a18.7 18.7 0 0 1 2.542 2.328 22.7 22.7 0 0 1 4.258-1.418 20.2 20.2 0 0 1 4.543-.476c.43-.735.832-1.48 1.195-2.247.352-.753.676-1.523.942-2.32a24 24 0 0 0-2.083-1.824 18 18 0 0 0-2.527-1.637m12.543 7.438c-1.45-1.176-2.805-2.059-4.062-2.676-1.153-.563-2.223-.895-3.22-1.016a22 22 0 0 1-.956 2.336q-.54 1.136-1.184 2.23c1.117 1.02 2.18 2.044 3.137 3.13.969 1.093 1.836 2.246 2.547 3.511l5.258-.914a15.6 15.6 0 0 0-.344-3.238 14.9 14.9 0 0 0-1.176-3.363m-3.394 23.582 5.863-.543c.656-1.235 1.2-2.54 1.644-3.91.461-1.426.813-2.926 1.036-4.5a9.25 9.25 0 0 0-1.004-4.16c-.594-1.184-1.422-2.227-2.387-3.192l-5.395.938a48 48 0 0 1-1.136 4.226 54 54 0 0 1-1.586 4.367 35 35 0 0 1 1.754 3.387 23 23 0 0 1 1.21 3.387m0 0" style="stroke:none;fill-rule:evenodd;fill:#78edaf;fill-opacity:1"></path><path d="m35.215 279.113.047-.015c6.152-1.754 12.445-.832 17.64 2.082a23.54 23.54 0 0 1 11.133 14.07l.012.05a23.54 23.54 0 0 1-1.957 17.786c-2.867 5.246-7.723 9.379-13.883 11.152-6.168 1.778-12.477.856-17.691-2.062a23.54 23.54 0 0 1-11.133-14.074l-.012-.047a23.53 23.53 0 0 1 1.961-17.79c2.863-5.245 7.719-9.378 13.883-11.152m.168.688c-5.965 1.722-10.66 5.726-13.43 10.804a22.82 22.82 0 0 0-1.887 17.301l.004.016a22.8 22.8 0 0 0 10.79 13.633c5.054 2.832 11.171 3.726 17.148 2.004 5.976-1.72 10.683-5.727 13.46-10.813a22.82 22.82 0 0 0 1.884-17.3v-.012a22.82 22.82 0 0 0-10.793-13.637c-5.055-2.832-11.172-3.723-17.149-2.004Zm0 0" style="stroke:none;fill-rule:evenodd;fill:#78edaf;fill-opacity:1"></path><path d="M492.406 279.629a.354.354 0 1 1 .192.68l-.078.023a9.6 9.6 0 0 1 2.343.356c2.461.675 5.14 2.289 7.446 4.687l.02.02c2.312 2.41 3.823 5.156 4.398 7.652.59 2.555.199 4.86-1.305 6.305-1.524 1.46-4.02 1.796-6.719 1.12-2.574-.64-5.355-2.206-7.64-4.59-2.32-2.413-3.7-5.218-4.137-7.76-.446-2.599.082-4.946 1.582-6.384.234-.226.496-.425.762-.593a55 55 0 0 1-6.579 1.023c-3.214.297-6.394.293-9.351-.066a.355.355 0 0 1-.313-.391.36.36 0 0 1 .395-.313c2.914.356 6.043.36 9.207.067a54.7 54.7 0 0 0 9.777-1.836m-.836 15.766c2.192 2.28 4.852 3.78 7.309 4.394 2.465.613 4.715.336 6.05-.945 1.317-1.262 1.641-3.324 1.11-5.64-.547-2.376-1.992-5-4.215-7.313l-.023-.028c-2.215-2.304-4.778-3.851-7.121-4.492-2.293-.629-4.368-.387-5.684.875-1.32 1.27-1.777 3.387-1.367 5.754.41 2.418 1.726 5.086 3.941 7.395m8.72 23.863a.353.353 0 1 1-.703-.004c.003-1.816.233-3.691.647-5.59-1.007 1.961-2.71 3.695-5.09 4.961l-.046.023c-3.028 1.598-6.567 2.13-9.664 1.586-2.97-.523-5.547-2.039-6.887-4.558l-.031-.047c-1.356-2.582-1.383-5.555-.325-8.274 1.055-2.707 3.188-5.164 6.133-6.734l.055-.023c2.957-1.559 6.176-1.938 9.004-1.29 2.847.653 5.293 2.344 6.668 4.922l.023.047c.938 1.782 1.348 3.672 1.23 5.516.157-.461.317-.926.493-1.387 1.351-3.68 3.242-7.386 5.383-10.949a.35.35 0 0 1 .484-.121.357.357 0 0 1 .121.484c-2.113 3.528-3.984 7.192-5.324 10.828-1.344 3.625-2.156 7.22-2.172 10.61m-22.743 4.449a.357.357 0 0 1-.418-.281v-.031a.35.35 0 0 1-.137-.438c.93-2.082 1.102-4.45.692-6.738-.43-2.434-1.528-4.781-3.082-6.606-1.446-1.699-3.016-3.222-4.942-4.187l-.023-.016c-1.922-.957-4.203-1.367-7.074-.848a.34.34 0 0 1-.208-.023.3.3 0 0 1-.082 0 .354.354 0 0 1-.32-.383c.324-3.308 1.223-7.164 2.617-10.875 1.258-3.347 2.922-6.586 4.938-9.21a.35.35 0 0 1 .496-.067c.152.117.183.34.066.496-1.972 2.566-3.605 5.742-4.84 9.031-1.316 3.508-2.183 7.137-2.53 10.293 2.917-.48 5.265-.039 7.253.953l.027.016c2.024 1.02 3.66 2.602 5.157 4.363 1.636 1.922 2.789 4.387 3.246 6.942.414 2.308.258 4.703-.617 6.847 3.308-.636 6.824-1.27 10.375-1.84 3.664-.59 7.34-1.109 10.828-1.488a.355.355 0 0 1 .39.313.355.355 0 0 1-.312.39c-3.488.38-7.152.895-10.793 1.48a350 350 0 0 0-10.707 1.907m7.125-22.469c-2.809 1.489-4.824 3.813-5.82 6.371-.989 2.543-.965 5.317.304 7.715l.004.008c1.23 2.316 3.621 3.715 6.395 4.203 2.957.524 6.343.008 9.242-1.523l.004-.004c2.793-1.48 4.594-3.637 5.37-6.024.778-2.379.544-4.996-.733-7.402l-.004-.008c-1.274-2.394-3.551-3.969-6.207-4.578-2.676-.613-5.739-.25-8.547 1.238l-.008.008Zm-1.961-1.61h-.008c-2.187 2.458-4.937 4.005-7.613 4.52-2.711.516-5.356-.02-7.285-1.734-1.926-1.715-2.766-4.277-2.563-7.027.2-2.723 1.418-5.633 3.606-8.094s4.941-4.008 7.617-4.52c2.715-.52 5.355.02 7.281 1.735l.012.008c1.918 1.714 2.754 4.273 2.555 7.02-.2 2.718-1.418 5.632-3.602 8.093m-.535-.472c2.082-2.34 3.246-5.101 3.43-7.672.183-2.539-.579-4.886-2.329-6.449-1.754-1.558-4.18-2.043-6.68-1.566-2.53.484-5.136 1.957-7.218 4.293-2.082 2.34-3.242 5.101-3.43 7.672-.187 2.539.574 4.89 2.328 6.453 1.754 1.558 4.176 2.043 6.676 1.566 2.531-.484 5.14-1.957 7.223-4.297m0 0" style="stroke:none;fill-rule:evenodd;fill:#678e76;fill-opacity:1"></path><path d="M477.684 316.219c-.43-2.434-1.528-4.781-3.082-6.606-1.446-1.699-3.016-3.222-4.938-4.187l-.027-.016c-1.91-.953-4.172-1.363-7.024-.855q.223 1.682.703 3.36l.004.015a22.84 22.84 0 0 0 13.688 15c.914-2.078 1.082-4.43.676-6.711M485.29 302.387c-4.837 2.562-7.188 7.976-4.974 12.156 2.211 4.18 8.149 5.535 12.989 2.977 4.836-2.563 7.336-8.215 5.125-12.391-2.215-4.18-8.301-5.3-13.14-2.742M469.172 300.887c3.14 2.8 8.648 1.746 12.3-2.356 3.657-4.101 4.063-9.699.915-12.496-3.145-2.8-8.657-1.746-12.301 2.356-3.656 4.101-4.066 9.695-.914 12.496M489.887 283.172c-2.434 2.336-1.239 7.531 2.672 11.601 3.91 4.075 9.05 5.48 11.488 3.145 2.43-2.336 1.23-7.531-2.68-11.602-3.902-4.07-9.05-5.48-11.48-3.144M507.465 300.367c-3.918 6.028-5.91 11.633-5.89 16.801a22.823 22.823 0 0 0 5.89-16.8m0 0" style="stroke:none;fill-rule:evenodd;fill:#00863c;fill-opacity:1"></path><path d="M491.57 295.395c2.192 2.28 4.852 3.78 7.309 4.394 2.465.613 4.715.336 6.05-.945 1.118-1.07 1.52-2.711 1.294-4.59a22.8 22.8 0 0 0-10.414-12.45c-.114-.062-.223-.124-.344-.187a11 11 0 0 0-.785-.246c-2.293-.629-4.368-.387-5.684.875-1.32 1.27-1.777 3.387-1.367 5.754.41 2.418 1.726 5.086 3.941 7.395m.989-.622c-3.91-4.07-5.106-9.265-2.672-11.601 2.43-2.336 7.578-.926 11.48 3.144 3.91 4.07 5.11 9.266 2.68 11.602-2.438 2.336-7.578.93-11.488-3.145M482.176 299.156c2.082-2.34 3.246-5.101 3.43-7.672.183-2.539-.579-4.886-2.329-6.449-1.754-1.558-4.18-2.043-6.68-1.566-2.53.484-5.136 1.957-7.218 4.293-2.082 2.34-3.242 5.101-3.43 7.672-.187 2.539.574 4.89 2.328 6.453 1.754 1.558 4.176 2.043 6.676 1.566 2.531-.484 5.14-1.957 7.223-4.297m.21-13.12c3.15 2.796 2.743 8.394-.913 12.495-3.653 4.102-9.16 5.156-12.301 2.356-3.152-2.801-2.742-8.395.914-12.496 3.644-4.102 9.156-5.157 12.3-2.356M484.672 301.238c-2.809 1.489-4.824 3.813-5.82 6.371-.989 2.543-.965 5.317.304 7.715l.004.008c1.23 2.316 3.621 3.715 6.395 4.203 2.957.524 6.343.008 9.242-1.523l.004-.004c2.793-1.48 4.594-3.637 5.37-6.024.778-2.379.544-4.996-.733-7.402l-.004-.008c-1.274-2.394-3.551-3.969-6.207-4.578-2.676-.613-5.739-.25-8.547 1.238l-.008.008Zm-4.356 13.305c-2.214-4.18.137-9.594 4.973-12.156 4.84-2.559 10.926-1.438 13.14 2.742 2.212 4.176-.288 9.828-5.124 12.39-4.84 2.56-10.778 1.204-12.989-2.976m0 0" style="stroke:none;fill-rule:evenodd;fill:#f4f7f6;fill-opacity:1"></path><path d="M478.191 307.355c1.055-2.707 3.188-5.164 6.133-6.734l.055-.023c2.957-1.559 6.176-1.938 9.004-1.29 2.847.653 5.293 2.344 6.668 4.922l.023.047c.938 1.782 1.348 3.672 1.23 5.516.157-.461.317-.926.493-1.387 1.34-3.636 3.207-7.304 5.312-10.836-.062-.355-.144-.71-.23-1.066-.2 1.125-.68 2.101-1.457 2.848-1.524 1.46-4.02 1.796-6.719 1.12-2.574-.64-5.355-2.206-7.64-4.59-2.32-2.413-3.7-5.218-4.137-7.76-.446-2.599.082-4.946 1.582-6.384.234-.226.496-.425.762-.593a55 55 0 0 1-6.579 1.023c-3.21.297-6.386.293-9.336-.063a22 22 0 0 0-3.308 2.422c-1.957 2.563-3.582 5.727-4.817 9.004-1.316 3.508-2.183 7.137-2.53 10.293 2.917-.48 5.265-.039 7.253.953l.027.016c2.024 1.02 3.66 2.602 5.16 4.363 1.637 1.922 2.786 4.387 3.243 6.942.414 2.308.258 4.703-.617 6.847 3.308-.636 6.824-1.27 10.375-1.84a214 214 0 0 1 10.804-1.484c.215-.172.434-.348.645-.527.015-1.77.246-3.586.644-5.43-1.007 1.961-2.71 3.695-5.09 4.961l-.046.023c-3.028 1.598-6.567 2.13-9.664 1.586-2.97-.523-5.547-2.039-6.887-4.558l-.031-.047c-1.356-2.582-1.383-5.555-.325-8.274m4.512-7.726c-2.187 2.46-4.937 4.004-7.613 4.52-2.711.515-5.356-.02-7.281-1.735-1.93-1.715-2.77-4.277-2.567-7.027.2-2.723 1.418-5.633 3.606-8.094 2.187-2.457 4.941-4.008 7.617-4.52 2.715-.52 5.355.02 7.281 1.735l.012.008c1.918 1.714 2.754 4.273 2.555 7.02-.2 2.718-1.418 5.632-3.61 8.093M488.254 321.8a338 338 0 0 0-9.602 1.696 22.25 22.25 0 0 0 12.61.07 22.4 22.4 0 0 0 6.554-3.105c-3.113.36-6.347.824-9.562 1.34m0 0" style="stroke:none;fill-rule:evenodd;fill:#f4f7f6;fill-opacity:1" data-source="https://football-logos.cc"></path><path d="M502.46 308.648c-1.237 3.34-2.022 6.649-2.151 9.801.437-.414.863-.84 1.265-1.281-.02-5.168 1.973-10.773 5.89-16.8q-.058-.856-.175-1.712c-1.91 3.27-3.598 6.645-4.828 9.992M462.422 300.926a46 46 0 0 1 2.148-7.645 41 41 0 0 1 2.688-5.789 22.775 22.775 0 0 0-4.836 13.434M474.422 281.508c2.625.242 5.402.219 8.207-.043a54.5 54.5 0 0 0 8.75-1.555 22.25 22.25 0 0 0-12.719-.11l-.027.009a22 22 0 0 0-4.211 1.699m0 0" style="stroke:none;fill-rule:evenodd;fill:#f4f7f6;fill-opacity:1"></path><path d="M493.469 282.898c1.254.153 2.472.579 3.61 1.133 1.366.668 2.66 1.54 3.858 2.48l.868-.5a.92.92 0 1 1 .922 1.59l-.68.399c.414.95.73 1.934.957 2.945.238 1.125.36 2.274.367 3.422.988 1.004 1.856 2.117 2.492 3.38a10.7 10.7 0 0 1 1.102 3.866l.8.028a.919.919 0 0 1-.05 1.836l-.848-.024a28 28 0 0 1-.965 3.918 25 25 0 0 1-1.683 4.027l.418 3.391a.92.92 0 0 1-.801 1.024.92.92 0 0 1-1.027-.801l-.344-2.785-5.086.468a21 21 0 0 1-3.05 2.895 24 24 0 0 1-3.56 2.308l.07 3.844 4.216-.23a.921.921 0 0 1 .093 1.84l-5.086.273-8.042 1.793a.923.923 0 0 1-1.098-.695.93.93 0 0 1 .695-1.102l7.387-1.644-.07-3.973a37 37 0 0 1-3.125-1.277 41 41 0 0 1-3.5-1.852l-7.633 1.008-.41 5.597a.924.924 0 0 1-.98.856.925.925 0 0 1-.856-.984l.437-5.98a73 73 0 0 1-2.594-3.337 79 79 0 0 1-2.304-3.332l-4.672.652a.93.93 0 0 1-1.043-.78.924.924 0 0 1 .785-1.044l4.625-.644 1.625-7.211a21.6 21.6 0 0 1-.992-3.375 29 29 0 0 1-.485-3.055l-3.734-.273a.92.92 0 0 1-.851-.98.93.93 0 0 1 .988-.856l4.015.293a21.7 21.7 0 0 1 3.235-3.293 18.2 18.2 0 0 1 3.598-2.293 8.7 8.7 0 0 1 .59-2.41c.202-.5.456-.973.75-1.418l-1.333-.477a.92.92 0 0 1 .621-1.734l2.235.8a32 32 0 0 1 4.789-1.136 28.6 28.6 0 0 1 4.582-.344l.039-.344a.925.925 0 0 1 1.004-.824c.504.05.875.504.824 1.008l-.059.586c.778.445 1.524.945 2.235 1.492.75.574 1.457 1.2 2.129 1.855m-15.692 14.551a86 86 0 0 0 1.59-3.375c.442-1.008.86-2.035 1.207-3.082a17 17 0 0 0-2.176-1.965 16.5 16.5 0 0 0-2.472-1.554 16 16 0 0 0-3.297 2.09c-1.125.914-2.125 1.964-3.027 3.097.109 1.094.261 2.184.492 3.258.191.89.433 1.77.742 2.625 1.098-.219 2.2-.422 3.309-.598a71 71 0 0 1 3.632-.496m-6.761 2.934-1.614 7.152a73 73 0 0 0 4.793 6.555l7.453-.985c.176-1.648.594-3.082 1.133-4.675.274-.82.582-1.692.692-2.559l-5.485-6.594a68 68 0 0 0-3.55.485 94 94 0 0 0-3.422.62m14.23 6.086c-.152.87-.441 1.71-.723 2.547-.503 1.5-.906 2.843-1.054 4.406a38 38 0 0 0 3.117 1.633c1.035.484 2.098.918 3.18 1.293a22.5 22.5 0 0 0 3.43-2.207 19.5 19.5 0 0 0 2.71-2.555 21 21 0 0 0-1.094-3.02 31 31 0 0 0-1.464-2.867 69 69 0 0 1-4.102.504 86 86 0 0 1-4 .266m5.102-16.754a18.6 18.6 0 0 0-4.106.45c-1.332.292-2.625.73-3.875 1.272a36 36 0 0 1-1.316 3.38 85 85 0 0 1-1.582 3.367l5.375 6.457a81 81 0 0 0 4.234-.27 66 66 0 0 0 4.094-.508c.52-1.3 1-2.62 1.418-3.953.418-1.32.789-2.656 1.086-4.008-.656-1.152-1.453-2.21-2.336-3.203-.934-1.054-1.953-2.035-2.992-2.984m-2.465-8.738a26.6 26.6 0 0 0-4.887.308c-1.547.242-3.07.617-4.566 1.094a6.3 6.3 0 0 0-1.075 1.75 6.7 6.7 0 0 0-.449 1.781c.91.477 1.781 1.027 2.602 1.649a18.7 18.7 0 0 1 2.34 2.097 23 23 0 0 1 3.996-1.289 20.5 20.5 0 0 1 4.34-.492c.363-.629.695-1.266 1.003-1.922q.447-.944.805-1.922a22 22 0 0 0-1.777-1.531 17.5 17.5 0 0 0-2.332-1.523m5.789 3.816a24 24 0 0 1-.82 1.95c-.301.636-.63 1.26-.973 1.874.984.914 1.95 1.856 2.84 2.863.898 1.016 1.719 2.094 2.414 3.262l4.39-.765a15 15 0 0 0-.324-2.641 14 14 0 0 0-1.078-3.121c-1.187-.957-2.48-1.86-3.851-2.527-.817-.399-1.696-.731-2.598-.895m1.176 19.824a34 34 0 0 1 1.644 3.203c.438.977.813 1.977 1.113 3.004l5.082-.469a24 24 0 0 0 1.465-3.546c.461-1.422.793-2.887 1.008-4.364a8.8 8.8 0 0 0-.941-3.87c-.531-1.055-1.258-1.993-2.082-2.837l-4.723.82c-.3 1.317-.66 2.622-1.066 3.907a56 56 0 0 1-1.5 4.152m0 0" style="stroke:none;fill-rule:evenodd;fill:#00863c;fill-opacity:1"></path><path d="M469.879 299.633a21.4 21.4 0 0 1-1.031-3.45 29 29 0 0 1-.52-3.468l-4.207-.305a.35.35 0 0 1-.324-.379.35.35 0 0 1 .375-.328l4.32.313a21.3 21.3 0 0 1 3.332-3.442 17.5 17.5 0 0 1 3.778-2.355q.089-1.394.578-2.57a7.7 7.7 0 0 1 1.129-1.91l-2.047-.735a.353.353 0 1 1 .242-.664l2.418.863c1.574-.508 3.2-.914 4.879-1.176 1.62-.25 3.289-.37 5.012-.324l.085-.863a.353.353 0 0 1 .704.066l-.098.961a18 18 0 0 1 2.488 1.625c.793.61 1.524 1.262 2.223 1.95 1.12.109 2.324.468 3.613 1.097 1.266.621 2.617 1.5 4.063 2.66l1.199-.699a.35.35 0 0 1 .48.129.35.35 0 0 1-.129.484l-1.125.653c.52 1.09.887 2.191 1.13 3.3a16.5 16.5 0 0 1 .359 3.536c1.035 1.02 1.914 2.132 2.55 3.398a10 10 0 0 1 1.07 4.164l1.321.043a.354.354 0 0 1 .344.363.35.35 0 0 1-.363.34l-1.34-.039a28 28 0 0 1-1.024 4.328 25 25 0 0 1-1.726 4.094l.437 3.562a.353.353 0 0 1-.308.395.353.353 0 0 1-.395-.309l-.406-3.332-5.867.543a21 21 0 0 1-3.118 2.993 24 24 0 0 1-3.78 2.414l.081 4.78 4.809-.26a.35.35 0 0 1 .363.335.35.35 0 0 1-.332.371l-5.137.277-8.086 1.801a.35.35 0 0 1-.421-.265.35.35 0 0 1 .265-.422l7.836-1.746-.086-4.832a35 35 0 0 1-3.445-1.387 40 40 0 0 1-3.617-1.922l-8.29 1.094-.437 6.058a.354.354 0 1 1-.707-.05l.45-6.207a76 76 0 0 1-2.716-3.485 78 78 0 0 1-2.484-3.605l-5.031.699a.352.352 0 1 1-.098-.7l5.012-.698Zm-.34-3.598c.234 1.09.54 2.145.93 3.16a91 91 0 0 1 3.765-.691 66 66 0 0 1 3.914-.524 94 94 0 0 0 1.739-3.68c.52-1.187.98-2.347 1.332-3.448a18 18 0 0 0-2.477-2.278 18 18 0 0 0-2.805-1.73 16.7 16.7 0 0 0-3.667 2.281 20.5 20.5 0 0 0-3.25 3.363c.109 1.215.277 2.403.52 3.547m1.008 3.867-1.75 7.743a78 78 0 0 0 2.504 3.636 72 72 0 0 0 2.66 3.414l8.21-1.086c.157-2.062.68-3.617 1.145-4.996.348-1.035.664-1.968.747-2.922l-5.833-7.007a67 67 0 0 0-3.882.515c-1.274.207-2.54.446-3.801.703m14.207 6.016c-.113.973-.418 1.898-.766 2.918-.457 1.355-.972 2.887-1.117 4.894a40 40 0 0 0 3.473 1.84 35 35 0 0 0 3.469 1.39 23.3 23.3 0 0 0 3.734-2.374 20 20 0 0 0 2.984-2.86 22 22 0 0 0-1.195-3.39 35 35 0 0 0-1.691-3.258 64 64 0 0 1-4.454.559 80 80 0 0 1-4.437.281m-2.852-14.895c-.355 1.149-.832 2.344-1.37 3.563a83 83 0 0 1-1.735 3.676l5.793 6.957a79 79 0 0 0 4.539-.285 63 63 0 0 0 4.445-.563 54 54 0 0 0 1.559-4.293c.437-1.387.832-2.82 1.144-4.265-.699-1.262-1.55-2.407-2.511-3.489-.965-1.09-2.051-2.133-3.2-3.176-1.52-.02-3 .141-4.445.461-1.437.32-2.844.797-4.219 1.414m6.133-10.609a27 27 0 0 0-5.125.313 30.6 30.6 0 0 0-4.8 1.16 6.8 6.8 0 0 0-1.274 2.027 7.4 7.4 0 0 0-.527 2.324c1 .5 1.957 1.09 2.863 1.774.89.675 1.738 1.449 2.531 2.324a22.6 22.6 0 0 1 4.266-1.414 20 20 0 0 1 4.539-.48c.43-.735.832-1.481 1.191-2.247.36-.75.68-1.523.946-2.32a23 23 0 0 0-2.082-1.824 18 18 0 0 0-2.528-1.637m12.54 7.438c-1.446-1.176-2.798-2.059-4.055-2.676-1.153-.559-2.223-.895-3.223-1.016a23 23 0 0 1-.957 2.34 28 28 0 0 1-1.18 2.227c1.113 1.02 2.176 2.043 3.137 3.128.969 1.098 1.832 2.247 2.543 3.512l5.258-.914a15.6 15.6 0 0 0-.344-3.238 14.8 14.8 0 0 0-1.18-3.363m-3.387 23.582 5.859-.54a24 24 0 0 0 1.644-3.914c.461-1.425.813-2.925 1.04-4.5a9.35 9.35 0 0 0-1.004-4.16c-.598-1.18-1.426-2.226-2.391-3.191l-5.39.937a49 49 0 0 1-1.137 4.227c-.485 1.527-1.028 3-1.59 4.367a35 35 0 0 1 1.758 3.39 22.7 22.7 0 0 1 1.21 3.384m0 0" style="stroke:none;fill-rule:evenodd;fill:#78edaf;fill-opacity:1"></path><path d="m478.465 279.121.05-.016c6.15-1.753 12.438-.832 17.641 2.082a23.52 23.52 0 0 1 11.13 14.07l.015.052a23.54 23.54 0 0 1-1.961 17.785c-2.867 5.246-7.719 9.379-13.887 11.156-6.164 1.773-12.473.855-17.687-2.066a23.54 23.54 0 0 1-11.13-14.075l-.015-.046a23.52 23.52 0 0 1 1.965-17.786c2.86-5.25 7.715-9.382 13.879-11.156m.168.688c-5.961 1.726-10.66 5.726-13.43 10.804a22.84 22.84 0 0 0-1.887 17.301l.004.016a22.84 22.84 0 0 0 10.793 13.636c5.059 2.832 11.172 3.723 17.149 2 5.976-1.718 10.68-5.726 13.457-10.812a22.83 22.83 0 0 0 1.886-17.3l-.003-.013a22.83 22.83 0 0 0-10.793-13.636c-5.055-2.832-11.172-3.723-17.149-2.004Zm0 0" style="stroke:none;fill-rule:evenodd;fill:#78edaf;fill-opacity:1"></path><path d="m18.121 234.113 28.899 26.133 3.14-12.328-4.265-3.328 3.328-11.86 4.363.329 2.762-11.954-34.711.399Zm12.234-1.992h11.438l-2.016 7.828ZM36.777 178.824c-.047-7.972 5.864-21.125 16.371-21.047 9.758.075 19.54 10.692 19.434 21.844-.094 9.024-5.898 20.758-16.727 20.813-7.324.039-19.003-8.332-19.078-21.61m14.942-8.972c4.476-.059 11.476 5.355 11.535 11.296.023 3.344-2.41 7.063-5.582 7.125-5.492.106-11.59-5.859-11.813-11.437-.09-2.316 2.325-6.941 5.86-6.984m2.652 2.566 4.688 3.328-4.407 9.797-5.062-3.469ZM67.191 121.957l7.27-9.352 32.129 17.625-7.524 9.985L79.73 127.44l12.235 22.5-7.36 9.704ZM97.613 86.543l9.047-7.406 6.516 10.926 7.59-6.02-6.582-11.184 8.863-7.687 19.637 33.656-9.09 7.66-7.547-13.191-7.645 6.516 7.594 12.703-8.95 7.359ZM140.41 53.914l27.188-14.25 4.03 10.313-8.624 4.406 10.031 27.094-10.312 5.343-9.657-27.375-8.625 4.5ZM183.676 33.547l10.922-3.75 10.55 38.953-11.02 3.797ZM388.531 424.707l8.489-7.441 25.921 30.703-8.726 7.469ZM215.508 24.082l10.594-1.5 1.593 12.469 7.594-13.969 12.656-1.598-10.03 16.504 16.312 23.25-13.172 1.735-9.563-14.953-1.969 3.421 1.547 12.938-10.64 1.781ZM260.09 468.164l11.058-.223.356 12.75 9.117-13.058 12.75-.406-11.547 15.07 14.797 24.574-13.766.64-8.34-15.663-2.535 3.082.614 13.027-11.34.57ZM348.547 450.07l9.613-5.48 6.402 11.031 1.778-15.832 11.004-6.445-2.95 18.754 24.743 14.523-11.79 7.137-14.808-9.778-.754 3.922 6.762 11.149-9.695 5.922ZM266.82 18.984l10.828.317-.175 13.64 9.398.211.258-13.43 10.687.352-.882 39.586-10.637-.328.387-15.117-9.586-.305-.563 14.953-10.781-.422ZM349.46 33.39l24.935 11.72-2.954 8.953-14.53-7.079-1.548 4.782 12.422 6.047-2.531 8.624-12.469-5.906-1.64 5.485 15.656 7.218-2.953 9.704-26.02-12.141ZM396.379 58.328l8.668 7.36-1.168 25.5 9.98-18.141 8.625 7.266-18.28 32.953-8.72-7.172 1.079-25.688-9.934 18.188-8.817-7.125ZM415.406 124.938l6.281-6.376 5.067 6.844c-1.082-10.59 5.355-18.308 13.215-18.281 9.746.031 17.984 12.125 17.812 21.75-.164 9.27-5.773 16.563-12.75 16.559-1.347 0-2.789-.254-4.078-.621l5.461 7.5-5.906 6.328-10.594-13.805 6.844-7.547c6.68-.582 11.586-5.047 11.582-10.969-.012-3.644-2.102-7.246-6.145-7.265-5.976-.032-9.265 7.472-9.68 12.28l-6.632 7.595ZM470.027 157.64l6.52-4.124 13.125 28.78-7.317 4.642-6.468-14.25-2.766 13.546-11.574-3.468 7.59 15.75-7.547 4.875-14.766-31.266 4.223-3 16.074 4.688ZM498.855 208.875l-31.968 10.875 3.562 12.844 12.281-4.313 3 10.969-12.656 4.313 3.563 12.656 31.785-10.781-3.567-12.844-10.308 3.562-3-10.875 10.59-3.656ZM33.293 351.281l40.969-8.25 5.531 9.938-30 29.719-5.316-10.172 4.316-3.532-5.09-9.078-5.16 1.219Zm19.035 6.281 13.027-3.28-9.843 8.812ZM205.219 501.445l18.496-37.476 11.25 1.691 5.2 41.906-11.302-2.003-.16-5.575-10.297-1.511-2.187 4.824Zm16.597-11.23 5.364-12.32.965 13.175ZM314.035 503.68l.324-41.79 10.864-3.378 22.933 35.457-11.047 3.117-2.57-4.95-9.93 3.126.137 5.297Zm10.055-17.34-.543-13.426 6.605 11.441ZM60.316 398.156l32.157-24.191 16.875 21.75-7.899 6.023-9.863-13.054-4.176 3.187 8.227 10.922-7.426 5.86-8.348-11.25-4.64 3.753 10.156 13.203-7.836 6.34ZM111.738 414.582l7.149-8.344 22.054 18.957-6.468 7.735-24.844 4.5 12.633 10.78-7.125 8.157-23.067-20.015 6.703-7.852 24.657-4.172ZM169.969 456.297l4.289-9.8 26.59 11.23-3.844 9.109-22.234 12.02 15.347 6.566-4.281 9.789-27.914-12.012 3.93-9.078 22.183-11.887ZM414.762 403.984c-.032-7.863 7.316-16.554 16.832-16.64 11.558-.11 23.773 11.722 23.715 22.219-.055 11.054-8.907 17.62-17.625 17.156-10.313-.551-22.875-12.172-22.922-22.735m16.453-6.144c4.644-.024 13.855 7.258 13.734 12.52.02 3.019-2.715 5.66-5.86 5.671-4.745.012-13.374-7.875-13.452-12.234-.047-2.59 1.847-5.934 5.578-5.957M456.066 340.613l15.47 23.719 12.843 7.64-5.953 10.032-13.172-8.203-27.844-1.922 6.469-10.688 14.297 1.641-8.395-11.437Zm0 0" style="stroke:none;fill-rule:evenodd;fill:#fff;fill-opacity:1"></path><path d="M287.453 97.375c3.39-.273 4.844 5.465 5.063 8.86.117 1.847-2.914 2.296-4.262 3.562-.692.644-1.29 1.383-1.832 2.156-.856 1.234-1.574 2.559-2.344 3.844-1.367 2.293-2.687 4.613-4.074 6.89-.676 1.102-1.633 2.043-2.113 3.235-1.22 3.027-2.262 6.14-2.954 9.328-.402 1.86.454 3.09 1.032 2.719 3.855-2.45 7.597-3.973 11.484-5.485 4.067-1.578 7.442-4.66 11.531-6.187 6.293-2.344 13.18-2.77 20.157-2.996 5.562-.184 11.129-.406 16.687-.75 5.332-.336 10.832.52 16.29 1.824 4.741 1.137 9.573 2.059 14.179 3.566 1.754.57 3.508 1.157 5.25 1.782 5.508 1.968 10.617 6.914 15.09 11.343 5.082 5.028 7.836 12.094 10.785 20.157 3.723 10.183 6.57 15.777 7.683 22.968 1.051 6.762 1.051 13.543 2.25 20.438 1.344 7.71 3.418 12.96 4.875 21.375 1.56 8.996 2.239 13.73 3 15.281 2.04 4.137 4.082 8.742 4.97 12.844 1.456 6.703.726 9.742.937 14.625.18 4.121 2.246 8.203 2.062 12.094-.222 4.78 2.098 9.683 1.781 13.777-.625 8.203-2.101 15.672-7.218 18.66-3.383 1.977-7.438 2.156-11.297 2.156-5.582-.003-10.906-2.066-15.188-4.785-4.597-2.914-10.816-2.855-14.25-6.656-1.297-1.434-11.55-7.727-17.625-11.152-4.054-2.29-6.406-5.106-9.843-7.313-2.836-1.82-5.45-3.535-8.286-5.039-2.808-1.496-5.77-5.121-7.043-6.824-2.609-3.477-4.433-5.973-7.359-8.766-3.637-3.465-2.992-4.304-4.922-5.86-2.586-2.085-4.37-5.081-6.566-7.026-2.086-1.86-3.86-4.083-6.418-5.579-1.48-.867-2.973-1.738-4.223-1.129-1.101.54-1.836 2.086-1.64 4.079.738 7.53 3.46 14.714 8.578 21.847 3.12 4.352 6.058 8.977 8.535 15.188 1.539 3.87 3.781 6.031 6 8.344 3.144 3.289 4.816 7.566 8.058 11.34 8.2 9.546 16.95 22.347 17.067 37.218.055 8.262 2.12 13.235-2.727 25.219-.43 1.066.016 2.93-.375 3.656-1.851 3.45-3.816 6.844-5.437 10.406-1.73 3.809-3.61 6.426-5.531 8.907-2.676 3.453-5.325 6.707-8.532 8.906-1.148.789-2.332 1.644-3.093 2.812-3.848 5.907-7.903 11.567-13.829 15.188-15.351 9.387-31.289 13.531-46.921 12.75-15.961-.797-31.442-2.824-44.434-9.469-6.988-3.57-12.422-8.855-16.973-14.719-2.129-2.746-4.43-5.39-7.027-7.687-5.32-4.7-8.895-10.492-12.477-16.5-2.12-3.567-4.367-7.559-5.906-12.563-.531-1.742-1.09-3.472-1.64-5.203-1.817-5.715-2.086-12.597-1.594-19.55.719-10.094 2.625-20.004 8.344-28.782 2.726-4.18 5.972-7.183 8.343-9.469 1.715-1.652 2.223-4.218 3.563-6.187 2.828-4.14 6.61-7.188 8.765-10.125 2.68-3.648 3.352-8.438 5.578-12.375 2.426-4.285 5.598-8.102 8.344-12.188 1.031-1.535 2.367-2.808 2.25-4.593-.172-2.645 2.328-5.844 2.723-8.907.281-2.234 1.379-5.53-.566-7.218-1.637-1.422-5.047.476-7.196 2.297-5.07 4.289-9.258 9.296-13.43 14.39-2.988 3.645-6.425 6.914-9.375 10.594-1.898 2.367-3.421 4.824-6.656 6.937-8.254 5.387-16.129 11.336-24.277 16.872-4.363 2.964-11.191 7.71-13.691 8.906-3.137 1.504-6.301 1.715-9.184 3.187-3.578 1.828-7.16 3.93-11.348 5.438-2.636.949-5.101 1.012-7.687 1.125-4.492.195-8.922-.164-11.813-3.375-2.98-3.309-5.578-7.574-6.187-14.063-.817-8.695.816-9.87 3-25.968.539-3.965.367-8.52.844-12.75.675-5.957 2.609-11.356 5.25-16.22.78-1.437.867-3.179 1.124-4.968.633-4.398 1.727-8.723 2.344-13.125 1.203-8.566 3.918-16.148 5.156-24.187 1.16-7.54 1.348-15.082 3.192-22.313 1.586-6.234 4.644-10.36 5.762-13.172 1.23-3.105 1.168-4.926 1.922-6.703 1.988-4.691 4.515-9.984 7.125-13.64 3.796-5.325 8.238-9.5 13.968-13.055 6.824-4.23 14.707-5.301 22.406-6.867 9.801-1.989 18.989-2.325 28.317-1.313 5.969.648 12.016.082 18 .938 5.66.812 10.36 3.562 15.184 6 5.152 2.601 10.964 3.773 15.94 6.75 2.571 1.543 4.942 7.93 5.81 5.625 2.62-6.957.601-14.934 4.875-21.563 2.808-4.355 5.804-8.824 8.816-11.812 4.437-4.41 9.363-11.598 17.074-12.227m0 0" style="stroke:none;fill-rule:evenodd;fill:#00853c;fill-opacity:1"></path><path d="M304.3 227.242v-11.617l28.427-39.238h-26.872v-12.73h43.606v11.945l-28.688 39.195h29.45v12.445Zm-59.53 0v-63.586h38.472v12.164h-25.965v13.465h24.895v11.028h-24.895v14.484h26.926v12.445Zm-20.075 0h-13.773l-3.106-11.902-20.703-.004-3.394 11.625-14.168-.047 18.89-63.258h17.114ZM204.61 204.36l-7.332-26.043-7.422 25.95Zm15.313 174.344V362.2h-6.563v-5.906q4.081-.083 6.024-1.438 1.938-1.366 2.465-4.507h6.593v28.355Zm33.586-18.926c0-1.191-.344-2.136-1.04-2.824q-1.024-1.021-2.835-1.023c-1.18 0-2.106.343-2.793 1.023q-1.025 1.031-1.024 2.77c0 1.207.332 2.156 1.004 2.832q1.007 1.02 2.77 1.02 1.786-.002 2.851-1.028c.715-.688 1.067-1.61 1.067-2.77m.289 7.188c-.758.68-1.688 1.2-2.781 1.55-1.102.344-2.325.52-3.7.52-3.05 0-5.496-.844-7.312-2.535q-2.747-2.538-2.746-6.781c0-3.13 1.066-5.606 3.207-7.418 2.137-1.813 5.066-2.723 8.8-2.723 4.34 0 7.626 1.246 9.84 3.742 2.223 2.493 3.329 6.196 3.329 11.102 0 4.726-1.16 8.406-3.489 11.05q-3.491 3.957-9.68 3.958c-3.09 0-5.632-.688-7.648-2.07-2.008-1.383-3.277-3.317-3.82-5.805l7.976-.297c.243.75.66 1.324 1.239 1.715q.874.59 2.175.59c1.434 0 2.536-.543 3.297-1.637.762-1.09 1.2-2.75 1.313-4.961m10.848 4.215 8.433-.813q.494 1.288 1.469 1.938c.664.437 1.469.652 2.43.652 1.27 0 2.277-.336 2.992-1.016.726-.683 1.09-1.605 1.09-2.78q0-1.82-1.067-2.911c-.707-.734-1.644-1.098-2.793-1.098q-1.059-.001-1.918.403c-.57.27-1.07.66-1.484 1.172l-7.945-.653 2.87-15.726h18.524v6.836H274.63l-.832 4.03a9.3 9.3 0 0 1 2.664-1.007c.96-.207 2.062-.316 3.293-.316 2.957 0 5.332.832 7.125 2.488 1.797 1.66 2.695 3.851 2.695 6.558 0 3.325-1.11 5.915-3.344 7.774-2.238 1.871-5.347 2.8-9.335 2.8-3.297 0-6.016-.73-8.149-2.183-2.14-1.453-3.508-3.508-4.101-6.148m36.503-1.938c0 1.188.344 2.125 1.043 2.813q1.046 1.022 2.84 1.023c1.184 0 2.106-.344 2.797-1.023q1.034-1.033 1.035-2.774c0-1.191-.34-2.136-1.011-2.824-.68-.68-1.598-1.023-2.778-1.023-1.195 0-2.152.343-2.863 1.039-.707.687-1.063 1.617-1.063 2.77m-.265-7.215c.77-.672 1.707-1.18 2.797-1.527 1.101-.352 2.328-.527 3.699-.527q4.582 0 7.312 2.527 2.73 2.53 2.73 6.777c0 3.149-1.066 5.637-3.206 7.457-2.13 1.825-5.063 2.735-8.781 2.735-4.344 0-7.625-1.246-9.832-3.746-2.211-2.504-3.32-6.22-3.32-11.137q-.001-7.09 3.472-11.05c2.312-2.638 5.531-3.958 9.672-3.958 3.082 0 5.629.695 7.652 2.082 2.024 1.39 3.305 3.324 3.844 5.813l-8.059.277q-.345-1.127-1.207-1.715c-.57-.398-1.297-.594-2.152-.594-1.45 0-2.55.547-3.313 1.641-.761 1.09-1.195 2.742-1.308 4.945m0 0" style="stroke:none;fill-rule:evenodd;fill:#fff;fill-opacity:1"></path><path d="M47.02 260.246 18.12 234.113l3.516-12.61 34.71-.398-2.761 11.954-4.363-.329-3.328 11.86 4.265 3.328Zm-20.708 23.758a22.6 22.6 0 0 1 4.903-3.324.8.8 0 0 1 .047-.325.924.924 0 0 1 1.18-.558l.398.14c.765-.312 1.558-.59 2.375-.824l.047-.015a23 23 0 0 1 8.965-.735.93.93 0 0 1 .863-.414c.383.04.691.313.793.668a23.2 23.2 0 0 1 6.633 2.348c2.203.793 4.515 2.297 6.543 4.402l.023.02c2.309 2.41 3.82 5.156 4.395 7.648q.123.533.187 1.047.198.575.371 1.168l.012.05c.617 2.157.918 4.329.918 6.466a.916.916 0 0 1-.05 1.597 23.5 23.5 0 0 1-2.825 9.723q-.362.652-.754 1.281l.047.414a.913.913 0 0 1-.797 1.024.8.8 0 0 1-.238 0 22.95 22.95 0 0 1-7.578 6.574.926.926 0 0 1-.872.965l-1.312.07q-1.16.474-2.379.824a22.9 22.9 0 0 1-7.988.848l-1.45.324a.923.923 0 0 1-1.085-.644 23.2 23.2 0 0 1-7.121-2.567.924.924 0 0 1-1.387-.832 23.53 23.53 0 0 1-9.399-12.023.92.92 0 0 1-.773-.778.94.94 0 0 1 .285-.804c-1.41-5.207-.98-10.485.914-15.114a.92.92 0 0 1-.226-.664.925.925 0 0 1 .906-.859c.144-.29.293-.574.449-.86a23.3 23.3 0 0 1 4.98-6.261m236.63 166.723c-103.708-.051-187.735-84.168-187.688-187.875.055-103.711 84.168-187.739 187.875-187.688 103.71.05 187.742 84.164 187.687 187.875-.05 103.707-84.164 187.738-187.875 187.688M72.581 179.62c-.094 9.024-5.898 20.758-16.727 20.813-7.324.039-19.003-8.332-19.078-21.61-.047-7.972 5.864-21.125 16.371-21.047 9.758.075 19.54 10.692 19.434 21.844m12.023-19.976-17.414-37.688 7.27-9.352 32.129 17.625-7.524 9.985L79.73 127.44l12.235 22.5Zm32.442-39.77L97.613 86.543l9.047-7.406 6.516 10.926 7.59-6.02-6.582-11.184 8.863-7.687 19.637 33.656-9.09 7.66-7.547-13.191-7.645 6.516 7.594 12.703Zm45.676-33.055-9.657-27.375-8.625 4.5-4.03-10.03 27.187-14.25 4.03 10.312-8.624 4.406 10.031 27.094ZM263.172.05C117.977-.022.215 117.622.14 262.814.07 408.008 117.715 525.766 262.906 525.84c145.192.07 262.953-117.57 263.024-262.766C526.004 117.883 408.36.125 263.172.051M33.293 351.282l40.969-8.25 5.531 9.938-30 29.719-5.316-10.172 4.316-3.532-5.09-9.078-5.16 1.219Zm136.676 105.016 4.289-9.8 26.59 11.23-3.844 9.109-22.234 12.02 15.347 6.566-4.281 9.789-27.914-12.012 3.93-9.078 22.183-11.887Zm-109.653-58.14 32.157-24.192 16.875 21.75-7.899 6.023-9.863-13.054-4.176 3.187 8.227 10.922-7.426 5.86-8.348-11.25-4.64 3.753 10.156 13.203-7.836 6.34Zm51.422 16.425 7.149-8.344 22.054 18.957-6.468 7.735-24.844 4.5 12.633 10.78-7.125 8.157-23.067-20.015 6.703-7.852 24.657-4.172Zm303.024-10.598c-.032-7.863 7.316-16.554 16.832-16.64 11.558-.11 23.773 11.722 23.715 22.219-.055 11.054-8.907 17.62-17.625 17.156-10.313-.551-22.875-12.172-22.922-22.735m-66.215 46.086 9.613-5.48 6.402 11.031 1.778-15.832 11.004-6.445-2.95 18.754 24.743 14.523-11.79 7.137-14.808-9.778-.754 3.922 6.762 11.149-9.695 5.922Zm39.984-25.363 8.489-7.441 25.918 30.703-8.723 7.469Zm73.059-221.316-14.766-31.266 4.223-3 16.074 4.688 2.906-16.172 6.52-4.125 13.125 28.78-7.317 4.642-6.468-14.25-2.766 13.546-11.574-3.468 7.59 15.75Zm-46.184-78.453 6.281-6.376 5.067 6.844c-1.082-10.59 5.355-18.308 13.215-18.281 9.746.031 17.984 12.125 17.812 21.75-.164 9.27-5.773 16.563-12.75 16.559-1.347 0-2.789-.254-4.078-.621l5.461 7.5-5.906 6.328-10.594-13.805 6.844-7.547c6.68-.582 11.586-5.047 11.582-10.969-.012-3.644-2.102-7.246-6.145-7.265-5.976-.032-9.265 7.472-9.68 12.28l-6.632 7.595Zm-37.594-33.47 18.567-33.14 8.668 7.36-1.168 25.5 9.98-18.141 8.625 7.266-18.28 32.953-8.72-7.172 1.079-25.688-9.934 18.188Zm-13.964-8.53-26.02-12.141 11.633-37.406 24.934 11.718-2.954 8.953-14.53-7.078-1.548 4.782 12.422 6.047-2.531 8.624-12.469-5.906-1.64 5.485 15.656 7.218Zm73.562 288.94 6.469-10.687 14.297 1.641-8.395-11.437 6.285-10.782 15.47 23.719 12.843 7.64-5.953 10.032-13.172-8.203ZM194.13 72.548l-10.453-39 10.922-3.75 10.55 38.953Zm26.3-8.387-4.921-40.078 10.594-1.5 1.593 12.469 7.594-13.969 12.656-1.598-10.03 16.504 16.312 23.25-13.172 1.735-9.563-14.953-1.969 3.421 1.547 12.938Zm-15.21 437.285 18.496-37.476 11.25 1.691 5.2 41.906-11.302-2.003-.16-5.575-10.297-1.511-2.187 4.824Zm54.87-33.28 11.06-.224.355 12.75 9.117-13.058 12.75-.406-11.547 15.07 14.797 24.574-13.766.64-8.34-15.663-2.535 3.082.614 13.027-11.34.57Zm53.946 35.515.324-41.79 10.864-3.378 22.933 35.457-11.047 3.117-2.57-4.95-9.93 3.126.137 5.297Zm164.43-224.559.05-.016c3-.855 6.04-1.074 8.965-.734a.92.92 0 0 1 .86-.414c.383.04.691.313.793.668a23.2 23.2 0 0 1 6.633 2.348c2.203.793 4.515 2.297 6.543 4.402l.02.02c2.312 2.41 3.823 5.156 4.398 7.652q.123.527.187 1.043.2.575.371 1.168l.016.05c.613 2.157.914 4.329.914 6.465a.9.9 0 0 1 .441.809.93.93 0 0 1-.492.793 23.55 23.55 0 0 1-3.574 11l.047.414a.92.92 0 0 1-1.035 1.024 23 23 0 0 1-7.582 6.574.92.92 0 0 1-.872.965l-1.312.07q-1.16.475-2.383.828a23 23 0 0 1-7.98.844l-1.453.324a.925.925 0 0 1-1.086-.645 23.4 23.4 0 0 1-7.122-2.562.93.93 0 0 1-.527.125.925.925 0 0 1-.855-.961 23.5 23.5 0 0 1-9.399-12.02.92.92 0 0 1-.777-.78.94.94 0 0 1 .285-.805 23.57 23.57 0 0 1 .91-15.114.95.95 0 0 1-.222-.664.925.925 0 0 1 .91-.855q.21-.438.449-.86a23.2 23.2 0 0 1 4.96-6.25l.017-.015a23 23 0 0 1 4.902-3.325c0-.105.012-.218.05-.324.169-.48.7-.73 1.176-.558l.399.14c.765-.312 1.558-.59 2.375-.824m-11.578-59.371 31.968-10.875 3.282 12.75-10.59 3.656 3 10.875 10.308-3.562 3.567 12.844-31.785 10.78-3.563-12.656 12.656-4.312-3-10.969-12.28 4.313ZM265.754 58.441l1.066-39.457 10.828.317-.175 13.64 9.398.211.258-13.43 10.687.352-.882 39.586-10.637-.328.387-15.117-9.586-.305-.563 14.953Zm0 0" style="stroke:none;fill-rule:evenodd;fill:#00853c;fill-opacity:1"></path><path d="m30.355 232.121 9.422 7.828 2.016-7.828ZM45.86 176.836c.222 5.578 6.32 11.543 11.812 11.437 3.172-.062 5.605-3.78 5.582-7.125-.059-5.941-7.059-11.355-11.535-11.296-3.535.043-5.95 4.668-5.86 6.984m13.199-1.09-4.407 9.797-5.062-3.469 4.781-9.656ZM431.215 397.84c-3.73.023-5.625 3.367-5.578 5.957.078 4.36 8.707 12.246 13.453 12.234 3.144-.011 5.879-2.652 5.86-5.672.12-5.261-9.09-12.543-13.735-12.52M330.152 484.355l-6.605-11.44.543 13.425ZM228.145 491.07l-.965-13.175-5.364 12.32ZM55.512 363.094l9.843-8.813-13.027 3.281Zm0 0" style="stroke:none;fill-rule:evenodd;fill:#00853c;fill-opacity:1"></path><path d="M75.254 262.852c-.047 103.707 83.98 187.824 187.687 187.875 103.711.05 187.825-83.98 187.875-187.688.055-103.71-83.976-187.824-187.687-187.875-103.707-.05-187.82 83.977-187.875 187.688m126.309-.528c-2.989 3.645-6.426 6.914-9.375 10.594-1.899 2.367-3.422 4.824-6.657 6.937-8.254 5.387-16.129 11.336-24.277 16.872-4.363 2.964-11.191 7.71-13.691 8.906-3.137 1.504-6.301 1.715-9.184 3.187-3.578 1.828-7.16 3.93-11.348 5.438-2.636.949-5.101 1.012-7.687 1.125-4.492.195-8.922-.164-11.813-3.375-2.98-3.309-5.578-7.574-6.187-14.063-.817-8.695.816-9.87 3-25.968.539-3.965.367-8.52.844-12.75.675-5.957 2.609-11.356 5.25-16.22.78-1.437.867-3.179 1.124-4.968.633-4.398 1.727-8.723 2.344-13.125 1.203-8.566 3.918-16.148 5.156-24.187 1.16-7.54 1.348-15.082 3.192-22.313 1.586-6.234 4.644-10.36 5.762-13.172 1.23-3.105 1.168-4.926 1.922-6.703 1.988-4.691 4.515-9.984 7.125-13.64 3.796-5.325 8.238-9.5 13.968-13.055 6.824-4.23 14.707-5.301 22.406-6.867 9.801-1.989 18.989-2.325 28.317-1.313 5.969.648 12.016.082 18 .938 5.66.812 10.36 3.562 15.184 6 5.152 2.601 10.964 3.773 15.94 6.75 2.571 1.543 4.942 7.93 5.81 5.625 2.62-6.957.601-14.934 4.875-21.563 2.808-4.355 5.804-8.824 8.816-11.812 4.437-4.41 9.363-11.598 17.074-12.227 3.39-.273 4.844 5.465 5.063 8.86.117 1.847-2.914 2.296-4.262 3.562-.692.644-1.29 1.383-1.832 2.156-.856 1.234-1.574 2.559-2.344 3.844-1.367 2.293-2.687 4.613-4.074 6.89-.676 1.102-1.633 2.043-2.113 3.235-1.22 3.027-2.262 6.14-2.954 9.328-.402 1.86.454 3.09 1.032 2.719 3.855-2.45 7.597-3.973 11.484-5.485 4.067-1.578 7.442-4.66 11.531-6.187 6.293-2.344 13.18-2.77 20.157-2.996 5.562-.184 11.129-.406 16.687-.75 5.332-.336 10.832.52 16.29 1.824 4.741 1.137 9.573 2.059 14.179 3.566 1.754.57 3.508 1.157 5.25 1.782 5.508 1.968 10.617 6.914 15.09 11.343 5.082 5.028 7.836 12.094 10.785 20.157 3.723 10.183 6.57 15.777 7.683 22.968 1.051 6.762 1.051 13.543 2.25 20.438 1.344 7.71 3.418 12.96 4.875 21.375 1.56 8.996 2.239 13.73 3 15.281 2.04 4.137 4.082 8.742 4.97 12.844 1.456 6.703.726 9.742.937 14.625.18 4.121 2.246 8.203 2.062 12.094-.222 4.78 2.098 9.683 1.781 13.777-.625 8.203-2.101 15.672-7.218 18.66-3.383 1.977-7.438 2.156-11.297 2.156-5.582-.003-10.906-2.066-15.188-4.785-4.597-2.914-10.816-2.855-14.25-6.656-1.297-1.434-11.55-7.727-17.625-11.152-4.054-2.29-6.406-5.106-9.843-7.313-2.836-1.82-5.45-3.535-8.286-5.039-2.808-1.496-5.77-5.121-7.043-6.824-2.609-3.477-4.433-5.973-7.359-8.766-3.637-3.465-2.992-4.304-4.922-5.86-2.586-2.085-4.37-5.081-6.566-7.026-2.086-1.86-3.86-4.083-6.418-5.579-1.48-.867-2.973-1.738-4.223-1.129-1.101.54-1.836 2.086-1.64 4.079.738 7.53 3.46 14.714 8.578 21.847 3.12 4.352 6.058 8.977 8.535 15.188 1.539 3.87 3.781 6.031 6 8.344 3.144 3.289 4.816 7.566 8.058 11.34 8.2 9.546 16.95 22.347 17.067 37.218.055 8.262 2.12 13.235-2.727 25.219-.43 1.066.016 2.93-.375 3.656-1.851 3.45-3.816 6.844-5.437 10.406-1.73 3.809-3.61 6.426-5.531 8.907-2.676 3.453-5.325 6.707-8.532 8.906-1.148.789-2.332 1.644-3.093 2.812-3.848 5.907-7.903 11.567-13.829 15.188-15.351 9.387-31.289 13.531-46.921 12.75-15.961-.797-31.442-2.824-44.434-9.469-6.988-3.57-12.422-8.855-16.973-14.719-2.129-2.746-4.43-5.39-7.027-7.687-5.32-4.7-8.895-10.492-12.477-16.5-2.12-3.567-4.367-7.559-5.906-12.563-.531-1.742-1.09-3.472-1.64-5.203-1.817-5.715-2.086-12.597-1.594-19.55.719-10.094 2.625-20.004 8.344-28.782 2.726-4.18 5.972-7.183 8.343-9.469 1.715-1.652 2.223-4.218 3.563-6.187 2.828-4.14 6.61-7.188 8.765-10.125 2.68-3.648 3.352-8.438 5.578-12.375 2.426-4.285 5.598-8.102 8.344-12.188 1.031-1.535 2.367-2.808 2.25-4.593-.172-2.645 2.328-5.844 2.723-8.907.281-2.234 1.379-5.53-.566-7.218-1.637-1.422-5.047.476-7.196 2.297-5.07 4.289-9.258 9.296-13.43 14.39m0 0" style="stroke:none;fill-rule:evenodd;fill:#fff;fill-opacity:1" data-source="https://football-logos.cc"></path><!-- source: https://football-logos.cc --></svg>