<svg xmlns="http://www.w3.org/2000/svg" viewBox="8.37 131.68 578.53 578.53"><!-- Source: https://football-logos.cc --><path d="m69.97 292.547-6.362 13.472 5.762 2.743 5.926-13.026c.884-1.944 4.25-2.961 6.387-1.944 2.128 1.013 3.08 4.26 2.168 6.175l-5.7 11.975 12.608 5.838a5.3 5.3 0 0 1 2.515 7.1c-1.337 2.812-4.307 3.351-6.868 2.212l-31.138-13.854c-1.128-.502-1.946-1.134-2.493-1.8a3.42 3.42 0 0 1-.805-2.287c.013-.858.295-1.83.805-2.934l8.292-17.93c.91-1.968 4.194-2.673 6.363-1.585 2.184 1.095 3.884 3 2.54 5.845M143.139 206.886l-6.605 4.934 18.747 23.117c1.755 2.165 1.833 5.852-.535 7.881-2.369 2.03-5.444 1.214-7.213-.972l-18.794-23.21-7.028 5.683c-1.813 1.466-5.083 1.558-6.784-.426-1.658-1.934-1.367-5.366.417-6.852l20.585-17.152c1.797-1.497 6.116-2.389 7.826-.395 1.701 1.986 1.242 6.004-.616 7.392M245.278 190.938l-3.282-4.661-11.096 3.379c-.128 1.826-.268 6.418-.619 9.646-.321 2.958-2.349 3.347-4.28 3.84-5.13 1.31-5.605-2.026-5.279-5.435.98-10.243 1.089-25.938 2.296-35.75.147-1.189.978-2.336 1.275-3.167.698-1.948 2.17-3.094 4.142-3.597 5.017-1.28 7.278 1.619 9.505 5.074l16.982 26.351c1.42 2.203 3.954 4.477 2.41 7.08-.59.998-3.358 2.748-5.204 2.745-4.25-.007-5.336-3.354-6.85-5.505m-14.16-10.496 6.71-2.153-6.4-9.793zM374.635 677.387l-3.067-4.159-9.99 3.284c-.08 1.658-.114 5.823-.368 8.755-.232 2.688-2.062 3.08-3.802 3.567-4.624 1.288-5.12-1.725-4.893-4.822.683-9.302.469-23.53 1.367-32.447.109-1.08.84-2.136 1.093-2.895.593-1.78 1.904-2.848 3.681-3.343 4.522-1.26 6.629 1.322 8.716 4.41l15.918 23.542c1.33 1.969 3.673 3.979 2.326 6.37-.516.915-2.99 2.556-4.663 2.59-3.852.079-4.903-2.933-6.318-4.852m-13.042-9.23 6.038-2.085-5.996-8.748zM249.175 683.938l-.754-5.113-10.362-1.792c-.849 1.426-2.836 5.087-4.437 7.557-1.467 2.263-3.267 1.75-5.031 1.363-4.688-1.034-3.71-3.928-2.056-6.555 4.972-7.892 11.464-20.553 16.445-28.004.604-.902 1.745-1.492 2.325-2.043 1.36-1.292 3.018-1.62 4.82-1.222 4.584 1.01 5.231 4.28 5.624 7.986l2.996 28.26c.251 2.363 1.375 5.238-.937 6.716-.886.566-3.84.854-5.334.098-3.437-1.74-2.95-4.893-3.299-7.251m-7.18-14.275 6.31.996-1.185-10.54zM407.903 212.204c-1.61.555-3.174.69-5.257.616-5.371-.192-8.012-.85-12.26-3.26-11.754-6.665-11.438-18.112-6.098-29.627 5.22-11.256 18.312-15.963 28.956-10.326 6.456 3.419 10.59 8.521 7.732 14.044-.454.877-1.404 2.08-2.398 2.339-6.391 1.665-3.198-4.7-9.326-7.795-7.308-3.69-12.703.432-15.552 6.382-3.226 6.735-3.046 14.406 1.834 16.975 9.783 5.149 9.771-1.26 14.927.47 3.056 1.026.42 9.155-2.558 10.182M452.276 198.488l-16.918 23.57 11.384 8.17c1.823 1.309 2.483 4.678 1.082 6.73-1.423 2.085-4.553 2.751-6.423 1.49l-15.684-10.582c-1.548-1.045-2.418-2.155-2.627-3.303s.22-2.483 1.249-4.019l19.148-28.594c1.544-2.306 4.876-3.368 7.44-1.617 2.576 1.758 3 5.855 1.35 8.155M326.447 154.465l-3.809 28.762 13.892 1.839c2.225.294 4.395 2.953 4.127 5.424-.273 2.51-2.718 4.573-4.962 4.341l-18.82-1.937c-1.858-.192-3.149-.76-3.875-1.675-.725-.914-.976-2.293-.793-4.132l3.407-34.244c.274-2.762 2.712-5.27 5.799-4.934 3.1.336 5.406 3.75 5.034 6.556M280.455 153.085l-.117 29.013 14.013.056c2.244.009 4.735 2.37 4.783 4.854.05 2.524-2.113 4.882-4.368 4.938l-18.914.474c-1.867.047-3.22-.353-4.056-1.168-.836-.814-1.26-2.15-1.313-3.998l-.98-34.4c-.08-2.773 2.02-5.57 5.123-5.631 3.118-.06 5.84 3.03 5.829 5.862M469.582 238.608l15.808-15.59c1.975-1.949 5.703-1.852 7.842.47 2.146 2.328.526 5.89-1.546 7.846l-15.524 14.646c-4.896 4.62-4.931 6.859-1.701 10.377 3.503 3.817 6.523 3.592 11.281-.992l15.688-15.112c2.03-1.954 5.211-2.35 7.357-.021 2.156 2.34 1.586 5.755-.492 7.682l-15.878 14.723c-8.907 8.26-17.296 8.583-24.432.832-7.994-8.682-7.662-15.728 1.597-24.861M97.614 279.61 79.21 267.186c-2.3-1.552-2.94-5.225-1.086-7.78 1.86-2.564 5.672-1.678 7.997-.032l17.42 12.329c5.496 3.889 7.697 3.481 10.51-.379 3.05-4.187 2.234-7.104-3.198-10.864l-17.91-12.4c-2.316-1.603-3.332-4.644-1.472-7.207 1.869-2.576 5.329-2.69 7.628-1.033l17.566 12.661c9.854 7.103 11.826 15.263 5.635 23.788-6.934 9.55-13.908 10.615-24.687 3.34M499.335 304.382l-6.134-9.617c-1.01-1.583-1.232-2.996-.9-4.107s1.314-2.104 2.886-3.038l29.74-17.664c1.606-.954 2.996-1.233 4.114-.928 1.119.306 2.11 1.267 3.049 2.846l5.465 9.183c3.653 6.137 4.176 14.199-2.787 18.328-3.08 1.827-6.909 1.661-10.35-1.054 1.225 5.731.643 9.114-3.82 11.663-8.897 5.08-16.873 1.272-21.263-5.612m15.452-12.757-2.22-3.889-9.826 5.914 2.522 4.276c2.597 4.403 6.147 4.99 8.944 3.242 3.57-2.23 2.712-5.811.58-9.543m11.498-11.712-7.347 4.275 1.475 2.443c2.026 3.355 4.652 6.686 7.968 4.608 3.385-2.121 1.053-6.234-1.068-9.664zM195.211 215.114l-9.957 5.565c-1.64.916-3.063 1.056-4.153.66s-2.024-1.434-2.865-3.058l-15.908-30.714c-.859-1.66-1.056-3.063-.686-4.162.37-1.1 1.387-2.032 3.018-2.879l9.484-4.922c6.339-3.291 14.417-3.345 18.136 3.846 1.645 3.181 1.257 6.993-1.654 10.271 5.793-.89 9.136-.112 11.422 4.491 4.556 9.177.29 16.919-6.837 20.902m-11.839-16.168-4.01 1.991 5.333 10.153 4.414-2.27c4.548-2.337 5.338-5.847 3.756-8.74-2.019-3.694-5.643-3.045-9.493-1.133m-11.024-12.157 3.84 7.582 2.525-1.33c3.468-1.828 6.946-4.257 5.063-7.688-1.92-3.502-6.162-1.413-9.709.505z" style="fill:#056605;fill-rule:evenodd" data-source="https://football-logos.cc"></path><path d="m182.684 567.558-4.176-4.294q2.925-2.35 5.919-2.333t6.894 2.824c2.36 1.7 3.925 3.245 4.68 4.639.749 1.388 1.056 2.684.905 3.885-.15 1.2-1.048 2.947-2.705 5.25l-4.524 6.12q-1.898 2.637-2.55 4.074-.654 1.434-.986 3.363l-5.25-3.78c.115-.444.312-1.084.603-1.909.144-.376.227-.628.258-.752-1.54.24-2.981.207-4.33-.09a10.1 10.1 0 0 1-3.77-1.697q-3.08-2.217-3.647-5.176c-.383-1.965.044-3.807 1.276-5.518q1.216-1.69 2.987-2.44c1.175-.492 2.419-.632 3.734-.398q1.965.345 5.097 1.794c2.804 1.315 4.836 2.114 6.076 2.4l.384-.533q1.11-1.543.836-2.749-.29-1.204-2.384-2.712c-.946-.681-1.813-1.023-2.614-1.023-.803-.011-1.705.346-2.713 1.055m4.018 9.398q-1.257-.391-3.807-1.51c-1.694-.74-2.881-1.126-3.544-1.155-1.045 0-1.837.368-2.38 1.12-.536.747-.718 1.583-.554 2.521.164.94.67 1.714 1.527 2.33.952.686 2.092 1.028 3.41 1.029.984-.024 1.825-.297 2.525-.848q.692-.53 2.063-2.432zM217.41 607.794l-5.81-2.952 5.7-11.215q1.807-3.563 1.963-4.791c.101-.83-.029-1.57-.397-2.247s-.949-1.211-1.74-1.613q-1.527-.776-3.155-.564a4.66 4.66 0 0 0-2.774 1.347c-.768.758-1.77 2.364-3.02 4.823l-5.056 9.95-5.81-2.952 11.183-22.006 5.385 2.737-1.64 3.23c3.181-1.487 6.23-1.485 9.163.005 1.286.654 2.348 1.487 3.182 2.488.837 1.013 1.344 2.009 1.526 3q.278 1.499-.098 3.026c-.244 1.023-.799 2.377-1.66 4.073zM252.528 619.142l-6.257-1.817 3.509-12.081q1.113-3.837 1.036-5.073c-.055-.833-.321-1.537-.808-2.133q-.733-.891-2.011-1.26-1.644-.48-3.205.034a4.66 4.66 0 0 0-2.474 1.84c-.613.887-1.299 2.652-2.069 5.301l-3.113 10.718-6.257-1.817 6.886-23.705 5.8 1.685-1.01 3.479c2.85-2.053 5.845-2.62 9.004-1.701 1.386.402 2.584 1.023 3.59 1.85 1.01.84 1.695 1.724 2.058 2.663.368.949.525 1.943.468 2.992-.05 1.05-.342 2.484-.873 4.311zM266.861 609.254q.047-3.259 1.694-6.278c1.1-2.022 2.637-3.545 4.61-4.586s4.162-1.548 6.58-1.512c3.733.055 6.766 1.312 9.116 3.773 2.35 2.469 3.494 5.546 3.439 9.255-.055 3.741-1.306 6.823-3.744 9.244q-3.666 3.633-9.145 3.552-3.389-.052-6.445-1.633c-2.03-1.053-3.57-2.574-4.61-4.572q-1.56-2.985-1.495-7.244m6.7.447c-.036 2.449.516 4.336 1.654 5.653 1.145 1.325 2.562 1.996 4.266 2.021q2.547.04 4.301-1.894c1.169-1.283 1.776-3.17 1.812-5.65q.052-3.629-1.645-5.605c-1.13-1.325-2.547-1.996-4.244-2.021-1.704-.025-3.14.603-4.324 1.894-1.177 1.283-1.783 3.153-1.82 5.602" style="fill:#fff;fill-rule:evenodd"></path><path d="m295.305 657.84.076 20.562q.01 2.703-.205 4.58c-.145 1.26-.866 2.866-1.393 4.16-.888 2.18-2.354 3.88-4.414 5.098-2.064 1.221-6.445 2.141-9.405 2.096-9.39-.146-13.822-6.052-13.866-13.99-.013-2.344 3.162-4.263 5.55-4.276 2.397-.013 4.97 2.38 5.245 4.5.328 2.529 1.677 4.683 4.4 4.832 2.296.126 3.587-1.344 3.564-5.555l-.118-21.846c-.014-2.615 2.003-5.039 4.922-5.054 2.928-.016 5.634 2.244 5.644 4.894M312.644 657.83l.571 9.549 14.683-14.61c1.416-1.409 6.3-2.25 8.622-.744 2.252 1.46 2.069 4.298.45 6.006l-10.189 10.753 12.614 15.036c2.378 2.835 8.027 7.693-1.663 8.7-3.471.361-5.604-1.08-7.376-3.429l-10.27-13.617-5.214 5.533.413 10.388c.105 2.627-3.068 4.342-5.986 4.42-1.797.048-5.109-1.562-5.278-4.872l-1.646-32.226c-.133-2.61 1.919-4.452 5.023-4.672 2.91-.205 5.09 1.154 5.246 3.786" style="fill:#056605;fill-rule:evenodd"></path><text x="318.01" y="621.975">
        <tspan font-size="45" style="font-size:45px;font-family:Arial;fill:#fff">1</tspan>
      </text><path d="m352.082 609.785 5.548-2.268c.47 1.13 1.084 1.895 1.826 2.288.743.401 1.599.46 2.553.187 1.214-.347 2.078-1.207 2.603-2.576s.395-3.863-.38-7.47c-.993 2.148-2.6 3.538-4.831 4.176-2.42.692-4.782.357-7.076-1.014s-3.865-3.554-4.723-6.554q-1.343-4.694.625-8.355c1.312-2.448 3.408-4.08 6.28-4.9 3.122-.892 6.038-.413 8.732 1.433 2.696 1.854 4.84 5.551 6.427 11.107 1.613 5.642 1.737 10.017.369 13.11q-2.05 4.648-7.068 6.08c-2.405.687-4.527.595-6.382-.273-1.846-.862-3.352-2.52-4.503-4.97m9.612-16.738q-.816-2.855-2.579-4.054-1.754-1.199-3.478-.706-1.637.467-2.345 2.067c-.479 1.069-.435 2.578.123 4.53.568 1.99 1.379 3.334 2.428 4.043q1.569 1.056 3.334.554 1.702-.485 2.48-2.16.779-1.68.037-4.274M404.858 588.417l2.877 4.908-18.589 10.894c-.895-1.985-1.324-4.105-1.297-6.362s.72-5.639 2.063-10.138c1.083-3.63 1.658-6 1.735-7.11.086-1.52-.18-2.818-.811-3.893-.695-1.186-1.543-1.909-2.554-2.173-1.005-.268-2.066-.07-3.18.583-1.108.65-1.787 1.498-2.052 2.553q-.391 1.564.82 3.984l-5.603 2.574q-2.1-4.663-.729-8.035c.918-2.243 2.618-4.096 5.111-5.557 2.731-1.6 5.31-2.117 7.74-1.559q3.634.842 5.565 4.137a11.2 11.2 0 0 1 1.421 3.96c.216 1.388.199 2.982-.05 4.79-.154 1.197-.629 3.059-1.401 5.58-.78 2.524-1.246 4.165-1.392 4.934a10.4 10.4 0 0 0-.224 2.113zM416.918 578.93l4.038-4.44q1.704 1.548 3.435 1.651 1.731.104 3.063-1.044c.955-.825 1.44-1.884 1.468-3.18.02-1.29-.5-2.556-1.573-3.8-1.01-1.17-2.125-1.834-3.342-1.977-1.218-.142-2.279.171-3.183.951-.594.512-1.198 1.24-1.823 2.184l-2.743-4.22c1.284-1.048 2-2.15 2.16-3.302.164-1.147-.177-2.205-1.01-3.171-.708-.82-1.511-1.26-2.422-1.333q-1.357-.102-2.568.944-1.195 1.031-1.318 2.586c-.087 1.042.27 2.143 1.063 3.313l-4.903 2.957c-.977-1.74-1.55-3.306-1.71-4.716-.162-1.398.08-2.82.715-4.255.64-1.43 1.63-2.728 2.965-3.879q3.424-2.956 7.386-2.546c2.17.218 3.912 1.082 5.214 2.592 1.843 2.136 2.156 4.854.919 8.14 1.649-.9 3.332-1.189 5.066-.87q2.594.483 4.497 2.686c1.838 2.132 2.628 4.625 2.371 7.47q-.385 4.265-3.86 7.263c-2.193 1.892-4.56 2.83-7.098 2.8-2.54-.017-4.805-.952-6.807-2.804" style="fill:#fff;fill-rule:evenodd"></path><path d="M242.588 281.415c4.546 11.3 10.027 20.012 16.172 25.713 25.598 1.803 51.034 1.166 76.43-2.432 1.73-9.081 5.409-17.793 8.938-26.675M419.414 332.695c-7.63 3.885-14.89 8.881-21.82 14.865 3.375 28.4 11.498 53.477 22.873 76.276 9.526.335 18.648.793 27.46-.261M420.961 506.527c-4.417-5.81-11.659-10.025-20.676-13.235-22.105 15.182-43.32 31.418-63.226 49.2 1.327 8.284 2.965 15.756 5.291 21.44M178.238 510.743c6.304-4.775 13.359-8.35 20.664-11.523 23.977 10.558 46.773 25.092 68.55 43.05-1.564 7.695-4.268 15.32-7.963 23.298M172.554 338.742c7.667 4.063 14.72 11.499 21.587 19.966-3.307 23.314-9.341 47.737-19.049 73.651-8.074 1.832-17.576 1.67-26.85 1.702" style="fill:none"></path><path d="M176.311 429.06c8.6-23.602 14.157-45.968 17.397-67.393l40.144-14.79 22 26.805c-9.104 20.057-14.128 43.12-17.009 67.763l-38.851 15.208zm15.786-72.833c-6.224-7.424-12.634-13.823-19.542-17.484a150.6 150.6 0 0 1 19.53-24.032c14.28-14.28 31.427-25.688 50.504-33.294 3.855 9.582 8.382 17.302 13.416 22.904L232.887 341.2zm68.719-48.96c23.81 1.556 47.482.986 71.117-2.127l22.134 32.124-24.644 35.42c-21.285-3.577-45.16-2.714-68.855-2.16l-22.342-27.221zm75.17-6.204c1.918-7.786 5.085-15.35 8.142-23.04 22.866 7.376 43.333 20.095 59.926 36.688a150.6 150.6 0 0 1 15.359 17.985c-6.975 3.551-13.64 8.031-20.027 13.345l-40.132-11.21zm62.116 50.488c3.46 25.447 10.759 48.206 20.784 69.056l-20.548 31.253-39.8-12.947c-6.33-22.675-13.903-44.205-24.504-62.938l24.653-35.434zm25.346 72.392c8.452.307 16.588.576 24.476-.368-.58 30.824-10.466 59.37-26.964 82.95-3.942-5.185-10.135-9.099-17.83-12.163l-.78-38.33zm-25.95 71.272c-20.461 14.185-40.139 29.296-58.697 45.729l-36.778-13.489.769-41.104c18.861-9.216 37.2-23.144 55.02-41.724l38.914 12.659zm-59.743 51.375c1.2 6.643 2.659 12.61 4.595 17.34-13.996 4.322-28.866 6.65-44.28 6.65-13.34 0-26.27-1.745-38.58-5.014 3.279-7.08 5.777-13.88 7.39-20.698l32.293-12.429zm-73.36-6.812c-20.057-16.174-40.978-29.445-62.886-39.392l.529-38.457 38.053-14.895c17.832 16.496 37.018 28.935 57.062 38.798l-.779 41.638zm-68.537-39.203c-6.216 2.84-12.195 6.059-17.619 10.166-16.353-21.729-26.936-48.048-29.466-76.681 8.01-.022 16.167.069 23.406-1.133L196.4 461.15zm-7.781-189.872c28.15-28.15 67.038-45.561 109.992-45.561s81.843 17.411 109.993 45.561 45.561 67.039 45.561 109.993-17.411 81.843-45.56 109.992-67.04 45.561-109.993 45.561c-42.955 0-81.843-17.41-109.993-45.56s-45.561-67.039-45.561-109.993c0-42.955 17.411-81.843 45.56-109.993" style="fill:#056605;fill-rule:evenodd"></path><path d="m196.4 461.15-24.22-28.222c-7.24 1.201-15.396 1.11-23.407 1.132 2.53 28.633 13.113 54.952 29.465 76.683 5.424-4.108 11.403-7.328 17.62-10.168zM202.038 461.93l-.53 38.456c21.91 9.946 42.83 23.218 62.887 39.392l31.98-12.308.778-41.638c-20.044-9.863-39.23-22.303-57.063-38.798ZM299.173 532.44l-32.292 12.428c-1.614 6.818-4.113 13.62-7.39 20.698a150 150 0 0 0 38.579 5.014c15.414 0 30.284-2.328 44.28-6.649-1.936-4.73-3.395-10.698-4.595-17.341zM302.792 486.351l-.769 41.104 36.777 13.489c18.559-16.433 38.236-31.544 58.697-45.729l-.77-37.93-38.915-12.658c-17.82 18.58-36.159 32.508-55.02 41.724M402.35 456.032l.78 38.33c7.696 3.064 13.889 6.978 17.83 12.163 16.498-23.58 26.383-52.126 26.967-82.95-7.89.944-16.026.675-24.479.368zM358.539 438.913l39.799 12.947 20.548-31.253c-10.025-20.85-17.324-43.61-20.784-69.056l-39.415-11.01-24.653 35.434c10.6 18.733 18.174 40.263 24.504 62.938M260.568 370.525c23.695-.555 47.57-1.418 68.855 2.16l24.644-35.42-22.134-32.124c-23.634 3.113-47.307 3.683-71.117 2.127l-22.59 36.035zM255.852 373.682l-22-26.805-40.144 14.79c-3.24 21.425-8.796 43.791-17.397 67.393l23.68 27.593 38.852-15.208c2.88-24.643 7.905-47.706 17.009-67.763M192.097 356.227l40.79-15.028 23.118-36.877c-5.034-5.603-9.562-13.324-13.416-22.905-19.077 7.606-36.225 19.015-50.504 33.294a150.7 150.7 0 0 0-19.531 24.031c6.908 3.661 13.319 10.06 19.543 17.485M335.986 301.064l23.268 33.767 40.132 11.21c6.387-5.314 13.053-9.795 20.027-13.345a150.6 150.6 0 0 0-15.359-17.985c-16.593-16.593-37.06-29.312-59.926-36.689-3.057 7.692-6.224 15.255-8.142 23.041" style="fill:#fff;fill-rule:evenodd"></path><path d="M297.825 258.195c-89.884-.103-162.834 72.678-162.937 162.563s72.678 162.834 162.562 162.937 162.834-72.678 162.938-162.562-72.678-162.834-162.563-162.938" style="fill:none"></path><path d="M297.88 210.998c-115.951-.134-210.056 93.755-210.19 209.705s93.755 210.056 209.706 210.19 210.056-93.755 210.19-209.706-93.756-210.056-209.706-210.19" style="fill:none" data-source="https://football-logos.cc"></path><path d="M297.892 203.242c-60.116-.068-114.572 24.238-154.017 63.592-39.44 39.35-63.87 93.745-63.94 153.857-.069 60.116 24.238 114.572 63.592 154.017 39.35 39.44 93.745 63.87 153.857 63.94 60.116.068 114.572-24.238 154.017-63.592 39.44-39.35 63.87-93.745 63.94-153.857.068-60.116-24.238-114.572-63.592-154.017-39.35-39.44-93.745-63.87-153.857-63.94m.076-65.913c-78.318-.09-149.26 31.575-200.647 82.843-51.383 51.265-83.21 122.13-83.3 200.443-.03 27.116 3.747 53.348 10.826 78.19 11.853 11.403 34.224 31.258 47.18 12.256 6.152-9.02 8.99-21.419 8.553-37.25-4.132-17.027-6.312-34.817-6.292-53.12.071-61.68 25.136-117.493 65.6-157.865 40.463-40.369 96.328-65.302 158.004-65.23 61.68.07 117.493 25.135 157.865 65.6 40.368 40.462 65.301 96.327 65.23 158.003 0 .728-.567 13.886-.567 15.783 1.481 14.078-2.434 63.255 20.38 65.882 11.004 1.268 23.93-8.127 33.886-20.958 4.279-19.532 6.544-39.818 6.568-60.63.09-78.319-31.575-149.261-82.843-200.648-51.265-51.383-122.13-83.21-200.443-83.3m-185.803 408.1c-7.316-4.512-16.604-8.934-29.73-14.305-4.765-1.95-9.213-3.421-14.438-.75-5.573 2.85-6.2 8.5-7.5 14.062-1.994 8.537-3.28 17.192-3.918 26.003a285 285 0 0 0 40.286 50.823c51.264 51.383 122.13 83.209 200.443 83.3 78.318.09 149.26-31.576 200.647-82.844a284.4 284.4 0 0 0 53.397-73.886c-.862-9.928-3.246-20.103-7.067-27.002-3.182-5.741-6.016-7.067-10.032-7.312-2.684-.164-5.595.473-8.156 1.781-13.593 6.945-26.92 14.334-38.67 23.46.383-.618-19.263 27.557-32.04 40.305-40.462 40.369-96.327 65.302-158.003 65.23-61.68-.07-117.493-25.134-157.866-65.6-5.13-5.143-24.202-30.707-27.353-33.264m-18.83-329.265c52.403-52.283 124.755-84.574 204.633-84.482 79.882.092 152.164 32.553 204.45 84.96 52.283 52.403 84.575 124.755 84.483 204.633-.092 79.882-32.553 152.164-84.96 204.45-52.403 52.283-124.755 84.575-204.633 84.483-79.883-.092-152.164-32.553-204.451-84.96C40.574 572.845 8.283 500.493 8.374 420.615c.092-79.882 32.554-152.164 84.96-204.451" style="fill:#056605;fill-rule:evenodd"></path><path d="M297.88 210.998c-115.951-.134-210.056 93.755-210.19 209.705s93.755 210.056 209.706 210.19 210.056-93.755 210.19-209.706-93.756-210.056-209.706-210.19m-162.992 209.76c.103-89.885 73.053-162.666 162.937-162.563s162.666 73.053 162.563 162.938-73.053 162.665-162.938 162.562-162.666-73.053-162.562-162.937m116.671 171.854c1.386.402 2.584 1.023 3.59 1.85 1.01.84 1.695 1.724 2.058 2.663.368.949.525 1.943.468 2.992-.05 1.05-.342 2.484-.873 4.311l-4.274 14.714-6.257-1.817 3.509-12.081q1.113-3.837 1.036-5.073c-.055-.833-.321-1.537-.808-2.133s-1.159-1.013-2.011-1.26q-1.644-.48-3.205.034a4.65 4.65 0 0 0-2.474 1.84c-.613.887-1.299 2.652-2.069 5.301l-3.113 10.718-6.257-1.818 6.885-23.704 5.8 1.685-1.01 3.479c2.85-2.053 5.846-2.62 9.005-1.701m15.302 16.641q.047-3.258 1.694-6.277c1.1-2.022 2.637-3.545 4.61-4.586s4.162-1.548 6.58-1.512c3.733.055 6.766 1.312 9.116 3.773 2.35 2.469 3.494 5.546 3.439 9.255-.055 3.741-1.306 6.823-3.744 9.244-2.446 2.422-5.491 3.605-9.145 3.552q-3.389-.052-6.445-1.633c-2.03-1.053-3.57-2.574-4.61-4.572q-1.56-2.985-1.495-7.244m-88.353-45.99q2.925-2.348 5.919-2.332t6.894 2.824c2.361 1.7 3.925 3.246 4.68 4.639.749 1.388 1.056 2.684.905 3.885s-1.048 2.947-2.706 5.25l-4.523 6.12q-1.898 2.637-2.55 4.074-.654 1.434-.986 3.363l-5.25-3.78c.115-.444.312-1.084.603-1.909.144-.376.227-.628.258-.752-1.54.24-2.981.207-4.33-.09a10.1 10.1 0 0 1-3.77-1.697q-3.08-2.217-3.648-5.176-.572-2.95 1.277-5.518 1.217-1.69 2.987-2.44c1.175-.492 2.419-.632 3.734-.398q1.965.344 5.097 1.794c2.804 1.315 4.836 2.114 6.076 2.4l.384-.533q1.11-1.543.836-2.749-.29-1.205-2.384-2.712c-.946-.681-1.813-1.023-2.614-1.023-.803-.011-1.705.346-2.713 1.055zm18.803 34.317 11.183-22.006 5.385 2.737-1.64 3.23c3.181-1.487 6.23-1.485 9.163.005 1.286.654 2.348 1.487 3.182 2.488.837 1.013 1.344 2.009 1.526 3 .185 1 .153 2.006-.098 3.026-.244 1.023-.799 2.377-1.66 4.073l-6.942 13.66-5.81-2.952 5.7-11.215q1.807-3.562 1.963-4.79c.101-.83-.029-1.571-.397-2.247-.367-.676-.949-1.211-1.74-1.614q-1.527-.776-3.155-.563a4.66 4.66 0 0 0-2.774 1.347c-.767.757-1.77 2.364-3.02 4.823l-5.056 9.95zm219.607-18.65 4.038-4.44q1.704 1.547 3.435 1.651t3.063-1.044c.955-.824 1.44-1.884 1.468-3.18.02-1.29-.5-2.556-1.573-3.8-1.01-1.17-2.125-1.834-3.342-1.977-1.218-.142-2.279.171-3.183.951-.593.512-1.198 1.24-1.823 2.184l-2.743-4.22c1.284-1.048 2-2.15 2.16-3.302.164-1.147-.177-2.204-1.01-3.171-.707-.82-1.511-1.26-2.422-1.333q-1.357-.101-2.568.944-1.195 1.031-1.318 2.586c-.087 1.042.27 2.143 1.063 3.313l-4.902 2.957c-.978-1.74-1.551-3.306-1.712-4.716-.161-1.398.08-2.82.716-4.255.64-1.43 1.63-2.728 2.965-3.879q3.424-2.956 7.386-2.546c2.17.218 3.912 1.082 5.214 2.592 1.843 2.136 2.156 4.854.919 8.14 1.649-.9 3.332-1.189 5.066-.87q2.594.484 4.497 2.686c1.838 2.131 2.628 4.625 2.371 7.47s-1.542 5.264-3.86 7.263c-2.193 1.892-4.56 2.83-7.098 2.8-2.54-.017-4.805-.952-6.807-2.804m-38.651 5.307q-2.1-4.663-.729-8.035c.918-2.243 2.618-4.096 5.111-5.557 2.731-1.6 5.31-2.117 7.74-1.559q3.635.842 5.565 4.137a11.2 11.2 0 0 1 1.421 3.96q.324 2.08-.05 4.79c-.154 1.197-.629 3.059-1.401 5.58-.78 2.524-1.245 4.165-1.392 4.934a10.4 10.4 0 0 0-.224 2.113l10.55-6.183 2.877 4.908-18.59 10.894c-.894-1.985-1.323-4.105-1.296-6.362.028-2.257.72-5.639 2.063-10.138 1.083-3.63 1.658-6 1.735-7.109.087-1.522-.18-2.82-.81-3.894-.695-1.186-1.543-1.91-2.555-2.173-1.004-.268-2.066-.07-3.18.583-1.108.65-1.787 1.498-2.052 2.553q-.39 1.564.82 3.984zm-55.533 11.3c1.646-1.724 2.665-3.603 3.073-5.633l4.925-.732 4.736 31.902-6.07.901-3.41-22.966c-1.906 2.411-4.29 4.343-7.156 5.787l-.822-5.539c1.511-.753 3.086-1.99 4.724-3.72m29.348 14.248 5.548-2.269c.47 1.132 1.085 1.896 1.826 2.29.744.4 1.599.459 2.554.186 1.213-.347 2.077-1.207 2.602-2.576s.395-3.863-.38-7.47c-.993 2.148-2.6 3.538-4.831 4.176-2.42.692-4.782.357-7.076-1.014s-3.865-3.554-4.723-6.555q-1.343-4.694.625-8.354c1.312-2.448 3.408-4.08 6.28-4.9 3.122-.892 6.038-.413 8.732 1.433 2.697 1.854 4.84 5.551 6.427 11.107 1.613 5.643 1.737 10.017.369 13.11-1.366 3.1-3.722 5.124-7.068 6.08-2.404.687-4.527.595-6.382-.273-1.846-.862-3.352-2.52-4.503-4.97" style="fill:#056605;fill-rule:evenodd"></path><path d="M182.895 575.446c-1.694-.74-2.881-1.126-3.544-1.155-1.046 0-1.837.368-2.38 1.12-.536.747-.718 1.583-.554 2.521q.244 1.408 1.527 2.33c.952.686 2.092 1.028 3.41 1.03.984-.025 1.826-.298 2.525-.85q.692-.53 2.063-2.43l.76-1.056q-1.257-.391-3.807-1.51M275.38 604.099c-1.176 1.283-1.782 3.153-1.819 5.602s.516 4.336 1.654 5.653c1.145 1.325 2.562 1.996 4.266 2.021q2.547.04 4.301-1.894c1.169-1.283 1.776-3.17 1.812-5.65.036-2.417-.515-4.289-1.646-5.606q-1.696-1.984-4.243-2.02c-1.704-.025-3.14.603-4.325 1.894M353.415 594.885q.853 2.98 2.428 4.042 1.57 1.056 3.334.554 1.702-.485 2.48-2.16.779-1.68.037-4.274-.815-2.855-2.579-4.054-1.754-1.199-3.478-.706-1.637.467-2.345 2.067c-.479 1.069-.435 2.578.123 4.531" style="fill:#056605;fill-rule:evenodd"></path><path d="M487.426 538.758c11.75-9.125 25.078-16.514 38.671-23.459 2.561-1.308 5.472-1.945 8.156-1.781 4.016.245 6.85 1.57 10.032 7.312 3.822 6.9 6.206 17.078 7.068 27.008M56.58 570.441c.636-8.811 1.922-17.467 3.917-26.004 1.3-5.562 1.927-11.214 7.5-14.063 5.225-2.671 9.673-1.2 14.438.75 13.126 5.37 22.414 9.793 29.73 14.306" style="fill:none"></path><path d="M60.497 544.437c-1.995 8.537-3.28 17.193-3.917 26.002a285 285 0 0 0 40.285 50.823c51.264 51.383 122.13 83.209 200.443 83.3 78.318.09 149.26-31.576 200.647-82.844a284.5 284.5 0 0 0 53.398-73.88c-.862-9.93-3.246-20.108-7.068-27.008-3.182-5.741-6.016-7.067-10.032-7.312-2.684-.164-5.595.473-8.156 1.781-13.593 6.945-26.92 14.334-38.67 23.46.383-.618-19.263 27.557-32.04 40.305-40.462 40.369-96.327 65.302-158.003 65.23-61.68-.07-117.493-25.134-157.866-65.6-5.13-5.143-24.202-30.707-27.353-33.264-7.316-4.513-16.604-8.935-29.73-14.306-4.765-1.95-9.213-3.421-14.438-.75-5.573 2.85-6.2 8.5-7.5 14.062m224.36 135.41-.118-21.846c-.014-2.615 2.004-5.039 4.922-5.054 2.928-.016 5.634 2.244 5.644 4.894l.076 20.561q.01 2.703-.205 4.58c-.145 1.26-.866 2.866-1.393 4.16-.888 2.18-2.354 3.88-4.414 5.098-2.064 1.221-6.445 2.141-9.405 2.096-9.39-.146-13.822-6.052-13.866-13.99-.013-2.344 3.162-4.263 5.55-4.276 2.397-.012 4.97 2.38 5.245 4.5.328 2.529 1.677 4.683 4.4 4.832 2.296.126 3.587-1.344 3.564-5.555m-58.322-.449c4.972-7.892 11.464-20.553 16.445-28.004.604-.902 1.745-1.492 2.325-2.043 1.36-1.292 3.018-1.62 4.82-1.222 4.584 1.01 5.23 4.28 5.624 7.986l2.996 28.26c.25 2.364 1.375 5.238-.937 6.716-.886.566-3.84.854-5.334.098-3.437-1.74-2.95-4.893-3.299-7.251l-.754-5.113-10.362-1.792c-.849 1.426-2.836 5.087-4.437 7.557-1.467 2.263-3.267 1.75-5.031 1.363-4.688-1.034-3.71-3.928-2.056-6.555m75.84-20.68c-.133-2.61 1.919-4.453 5.023-4.673 2.91-.205 5.09 1.154 5.246 3.786l.571 9.548 14.683-14.61c1.416-1.409 6.3-2.25 8.622-.744 2.252 1.46 2.069 4.298.45 6.006l-10.189 10.753 12.614 15.036c2.378 2.835 8.027 7.693-1.663 8.7-3.471.361-5.604-1.08-7.376-3.429l-10.27-13.617-5.214 5.533.413 10.388c.105 2.627-3.068 4.342-5.986 4.42-1.797.048-5.109-1.562-5.278-4.872zm50.14 25.294c.683-9.302.468-23.53 1.367-32.447.109-1.08.84-2.136 1.093-2.895.593-1.78 1.904-2.848 3.681-3.343 4.522-1.26 6.629 1.322 8.716 4.41l15.918 23.542c1.33 1.969 3.673 3.979 2.326 6.37-.516.915-2.99 2.556-4.663 2.59-3.852.079-4.903-2.933-6.318-4.852l-3.067-4.159-9.99 3.284c-.08 1.658-.114 5.823-.368 8.755-.232 2.688-2.062 3.08-3.802 3.566-4.624 1.29-5.12-1.724-4.893-4.82" style="fill:#fff;fill-rule:evenodd"></path><path d="m247.12 660.12-5.124 9.543 6.31.996zM361.635 657.325l-.042 10.832 6.038-2.085zM455.757 263.196c40.368 40.462 65.301 96.327 65.23 158.003 0 .728-.567 13.887-.567 15.783 1.481 14.078-2.434 63.255 20.38 65.882 11.004 1.268 23.93-8.126 33.886-20.957 4.279-19.533 6.544-39.82 6.568-60.632.09-78.317-31.575-149.26-82.843-200.647-51.265-51.383-122.13-83.21-200.443-83.3-78.318-.09-149.26 31.576-200.647 82.844-51.383 51.265-83.21 122.13-83.3 200.443-.03 27.116 3.747 53.348 10.826 78.19 11.853 11.403 34.224 31.258 47.18 12.256 6.152-9.02 8.99-21.419 8.553-37.25-4.132-17.027-6.312-34.817-6.292-53.12.071-61.68 25.136-117.493 65.6-157.865 40.463-40.369 96.328-65.302 158.004-65.23 61.68.07 117.493 25.135 157.865 65.6m43.578 41.187-6.134-9.618c-1.01-1.583-1.232-2.996-.9-4.107s1.314-2.104 2.886-3.038l29.74-17.665c1.606-.953 2.996-1.232 4.114-.927 1.119.306 2.109 1.267 3.049 2.847l5.465 9.181c3.653 6.138 4.176 14.2-2.787 18.33-3.08 1.826-6.909 1.66-10.35-1.055 1.225 5.731.643 9.114-3.82 11.663-8.897 5.08-16.873 1.272-21.263-5.611m-6.918-41.746c-8.907 8.26-17.296 8.583-24.432.832-7.994-8.682-7.662-15.728 1.597-24.861l15.808-15.59c1.975-1.949 5.703-1.852 7.842.47 2.146 2.328.526 5.89-1.546 7.846l-15.524 14.646c-4.896 4.62-4.931 6.859-1.702 10.377 3.504 3.817 6.524 3.592 11.282-.992l15.688-15.112c2.03-1.954 5.211-2.35 7.357-.021 2.157 2.34 1.586 5.755-.492 7.682zm-337.671-19.819c-2.37 2.03-5.444 1.214-7.213-.972l-18.794-23.21-7.027 5.683c-1.814 1.466-5.084 1.558-6.785-.426-1.658-1.934-1.367-5.366.417-6.852l20.585-17.152c1.797-1.497 6.117-2.389 7.826-.395 1.701 1.985 1.242 6.004-.616 7.392l-6.605 4.933 18.747 23.118c1.755 2.165 1.833 5.852-.535 7.881M99.1 239.821l17.566 12.661c9.854 7.103 11.826 15.264 5.635 23.788-6.934 9.55-13.908 10.615-24.687 3.34l-18.402-12.423c-2.3-1.552-2.941-5.225-1.087-7.78 1.86-2.564 5.672-1.678 7.997-.032l17.42 12.329c5.496 3.889 7.697 3.481 10.51-.38 3.05-4.186 2.234-7.102-3.198-10.863l-17.91-12.4c-2.316-1.603-3.332-4.644-1.472-7.207 1.869-2.576 5.329-2.69 7.628-1.033m227.347-85.356-3.809 28.762 13.892 1.84c2.225.293 4.395 2.952 4.127 5.423-.273 2.51-2.718 4.572-4.962 4.341l-18.82-1.937c-1.858-.192-3.149-.76-3.875-1.675-.725-.914-.976-2.294-.793-4.132l3.407-34.245c.274-2.761 2.712-5.268 5.799-4.934 3.1.337 5.406 3.75 5.034 6.557m125.83 44.023-16.92 23.57 11.385 8.17c1.823 1.309 2.483 4.678 1.082 6.73-1.423 2.085-4.553 2.751-6.423 1.49l-15.683-10.582c-1.549-1.045-2.419-2.155-2.628-3.303s.22-2.483 1.249-4.02l19.148-28.593c1.544-2.306 4.876-3.367 7.44-1.617 2.576 1.758 3 5.855 1.35 8.155m-44.374 13.716c-1.61.555-3.175.69-5.257.616-5.371-.192-8.012-.85-12.26-3.26-11.754-6.665-11.438-18.112-6.098-29.627 5.22-11.256 18.312-15.963 28.956-10.326 6.456 3.419 10.59 8.521 7.732 14.044-.454.877-1.404 2.08-2.398 2.339-6.392 1.665-3.198-4.7-9.327-7.795-7.306-3.69-12.702.432-15.551 6.382-3.226 6.735-3.046 14.405 1.835 16.975 9.782 5.149 9.77-1.26 14.926.47 3.056 1.026.42 9.155-2.558 10.182m-127.449-59.119-.116 29.013 14.013.056c2.244.008 4.735 2.37 4.783 4.854.05 2.524-2.114 4.882-4.369 4.938l-18.913.474c-1.867.047-3.22-.353-4.056-1.168-.836-.814-1.26-2.15-1.313-3.998l-.98-34.4c-.08-2.773 2.02-5.57 5.123-5.631 3.118-.061 5.84 3.03 5.828 5.862m-85.243 62.029-9.957 5.565c-1.639.916-3.063 1.056-4.153.66s-2.024-1.434-2.865-3.058l-15.908-30.714c-.859-1.66-1.056-3.063-.687-4.162.37-1.1 1.388-2.032 3.019-2.879l9.484-4.922c6.339-3.291 14.417-3.345 18.136 3.846 1.645 3.181 1.257 6.993-1.654 10.271 5.793-.89 9.136-.112 11.422 4.491 4.555 9.177.29 16.918-6.837 20.902m62.122-21.415c-.592.997-3.359 2.747-5.205 2.744-4.25-.007-5.337-3.354-6.85-5.505l-3.282-4.661-11.097 3.379c-.127 1.826-.267 6.418-.618 9.646-.321 2.958-2.349 3.347-4.28 3.84-5.13 1.31-5.605-2.026-5.279-5.435.98-10.243 1.088-25.938 2.296-35.75.147-1.189.978-2.336 1.275-3.167.698-1.948 2.17-3.094 4.142-3.597 5.017-1.28 7.278 1.619 9.505 5.074l16.982 26.351c1.42 2.203 3.954 4.477 2.41 7.08M83.85 299.967l-5.7 11.975 12.608 5.838a5.3 5.3 0 0 1 2.516 7.1c-1.338 2.812-4.308 3.351-6.869 2.212l-31.138-13.854c-1.128-.502-1.946-1.134-2.493-1.8a3.42 3.42 0 0 1-.805-2.288c.013-.857.295-1.83.805-2.933l8.292-17.931c.91-1.967 4.194-2.672 6.363-1.584 2.184 1.095 3.885 3 2.54 5.845l-6.362 13.472 5.762 2.743 5.926-13.026c.884-1.944 4.25-2.961 6.387-1.944 2.128 1.013 3.08 4.26 2.168 6.175" style="fill:#fff;fill-rule:evenodd"></path><path d="M178.713 193.04c3.468-1.827 6.946-4.256 5.063-7.686-1.92-3.503-6.162-1.414-9.709.505l-1.72.93 3.841 7.582zM192.865 200.08c-2.019-3.694-5.643-3.045-9.493-1.134l-4.01 1.991 5.333 10.153 4.414-2.27c4.548-2.336 5.339-5.847 3.756-8.74M231.429 168.496l-.31 11.946 6.71-2.153zM518.938 284.187l1.475 2.444c2.026 3.355 4.652 6.686 7.968 4.608 3.385-2.121 1.053-6.234-1.068-9.664l-1.028-1.662zM514.788 291.625l-2.221-3.889-9.826 5.914 2.522 4.276c2.597 4.403 6.147 4.99 8.944 3.242 3.57-2.23 2.712-5.811.58-9.543M188.077 530.689c-28.15-28.15-45.561-67.039-45.561-109.993 0-42.955 17.411-81.843 45.56-109.993s67.04-45.561 109.994-45.561 81.843 17.411 109.992 45.561 45.561 67.039 45.561 109.993-17.411 81.843-45.56 109.992-67.04 45.561-109.993 45.561c-42.955 0-81.843-17.41-109.993-45.56m272.31-109.556c.104-89.885-72.678-162.834-162.562-162.938s-162.834 72.678-162.937 162.563 72.678 162.834 162.562 162.937 162.834-72.678 162.938-162.562" style="fill:#fff;fill-rule:evenodd"></path><path d="M297.396 630.892c-115.95-.133-209.84-94.238-209.706-210.189s94.239-209.84 210.19-209.705c115.95.133 209.839 94.238 209.705 210.189s-94.238 209.839-210.19 209.705M451.4 575.056c39.44-39.35 63.87-93.745 63.94-153.857.068-60.116-24.238-114.572-63.592-154.017-39.35-39.44-93.745-63.87-153.857-63.94-60.116-.068-114.572 24.238-154.017 63.592-39.44 39.35-63.87 93.745-63.94 153.857-.069 60.116 24.238 114.572 63.592 154.017 39.35 39.44 93.745 63.87 153.857 63.94 60.116.068 114.572-24.238 154.017-63.592" style="fill:#fff;fill-rule:evenodd" data-source="https://football-logos.cc"></path><!-- source: https://football-logos.cc --></svg>