<svg xmlns="http://www.w3.org/2000/svg" xml:space="preserve" viewBox="63.53 19.45 666.64 755.9"><!-- Source: https://football-logos.cc --><path d="M568.832 5566.79H2286.03c244.54 0 497.15 24.25 690.7 247.3 187.37-223.05 459.4-247.3 754.7-247.3h1652.5l92.35-407.77c-70.96 51.97-142.75 97.42-223.76 85.75-84.88-12.23-161.42-50.17-161.42-256.97l.01-2547.23c0-8.21-12.23-16.63-12.27-25.21-1.45-357.84-25.01-1023.16-444.27-1347.36-304.29-235.305-612.69-252.723-1095.27-436.102-287.48-109.226-456.86-268.746-562.57-458.593-59.19 96.554-201.88 312.718-486.79 431.847-354.26 148.118-934.78 239.121-1209.82 486.188-355.073 318.97-405.491 879.5-407.569 1317.9-.043 10.52-10.25 20.97-10.25 31.33v2562.72c0 131.32-43.086 218.35-135.844 237.61-112.457 23.35-175.816-29.76-249.977-81.31z" style="fill:#2b3d9a;fill-opacity:1;fill-rule:evenodd;stroke:none" transform="matrix(.13333 0 0 -.13333 0 794.667)" data-source="https://football-logos.cc"></path><path d="M2976.37 3958.63c583.73 0 1171.27-258.9 1481.26-769.65C4591.5 2968.4 4659.7 2719.9 4659.7 2462c0-902.52-799.34-1600.691-1683.33-1600.691S1293.05 1559.48 1293.05 2462c0 257.91 68.2 506.43 202.08 727.01 309.99 510.74 897.52 769.62 1481.24 769.62" style="fill:#fff;fill-opacity:1;fill-rule:evenodd;stroke:none" transform="matrix(.13333 0 0 -.13333 0 794.667)"></path><path d="M5090.77 2437.3c-.09-352.01-16.29-1050.54-444.31-1381.51C4342.15 820.469 4023.61 799 3541 615.617c-287.48-109.242-458.89-280.961-564.6-470.812-59.19 96.558-201.87 318.824-486.79 437.957-354.26 148.133-946.98 253.355-1222.04 500.438-362.625 325.75-405.363 911.86-405.59 1353.75l.047.05c0 587.7 301.063 1085.34 772.963 1407.67 81.35 45.29 89.85 54.18 159.44 73.02 155.37 42.06 275.25-57.74 303.87-115.99 96.58-196.57 27.69-269.53-91.13-364.71-306.39-229.76-499.85-572.73-499.85-974.99 0-741.9 657.85-1386.42 1469.05-1386.42S4445.43 1720.1 4445.43 2462c0 370.9-164.44 691.4-430.25 919.22-246.88 177.51-236.5 269.67-158.89 410.33 51.85 93.95 220.48 252.6 541.18-4.16 425.78-322.48 693.21-796.3 693.3-1350.09" style="fill:#2ea243;fill-opacity:1;fill-rule:evenodd;stroke:none" transform="matrix(.13333 0 0 -.13333 0 794.667)"></path><path d="M2976.38 4275.88c487.85 0 883.48-188.68 883.48-421.34s-395.63-421.34-883.48-421.34-883.48 188.68-883.48 421.34 395.63 421.34 883.48 421.34" style="fill:#2b3d9a;fill-opacity:1;fill-rule:evenodd;stroke:none" transform="matrix(.13333 0 0 -.13333 0 794.667)"></path><path d="M2976.37 4240.16c468.13 0 847.77-172.69 847.77-385.62 0-212.94-379.64-385.63-847.77-385.63s-847.76 172.69-847.76 385.63c0 212.93 379.63 385.62 847.76 385.62" style="fill:#fff;fill-opacity:1;fill-rule:evenodd;stroke:none" transform="matrix(.13333 0 0 -.13333 0 794.667)"></path><path d="m2792.62 947.289 101.95-79.527-.09-1.231c-96.79 9.121-199.83 26.657-303.09 50.559-50.03 11.578 2.18 58.898-.05 99.85-1.45 26.86-15.65 42.7-31.56 57.22-31.83 29.03-111.23 35.16-144.99 28.72 16.84-17.38 12.14-72.67 56.69-99.76 21.87-13.284 62.4-18.999 67.23-29.874 4.47-10.082 2.19-27.629 1.48-43.789a2887 2887 0 0 0-193.12 55.777c-46 15.046-17.03 69.906-15.25 108.456 1.47 31.81-7.58 61.58-29.37 78.68-27.24 21.36-69.86 36.7-106.69 45.59-4.6-23.52-6.9-92.71 29.12-130.44 8.79-9.2 45.98-20.35 62.64-37.55 9.91-10.24 4.97-30.44 6.12-46.65-78.76 27.54-153.93 57.83-222.43 89.82-31.83 14.87-27.58 36.17-3.21 61.91 20.97 22.15 61.25 64.72 9.83 116.63-22.03 22.25-63.82 70.06-114.87 124.3-33.8-63.08-30.55-119.47-3.38-161.35 18.38-28.33 48.34-41.89 60.35-70.22 7.62-17.98.97-30.87-4.46-44.12-86.41 43.78-163.4 90.69-232.03 140.87-29.13 21.27-30.94 31.95-6.18 64.39 29.52 38.64 63.1 78.59 64.69 117.99 1.76 43.21-37 69.45-79.93 109.92-29.38 27.68-59.89 67.76-83.95 101.84-22.97-56.78-47.28-108.96-32.17-164.19 14.86-54.36 78.73-93.43 96.49-130.43 8.73-18.18-4.43-38.11-14.12-57.05-93.45 75.83-169.75 158.72-232.14 249.2-18.2 26.39-16.85 51.13 2.61 78.88 32.04 45.68 94.52 92.69 96.62 141.75 3.33 77.93-77.61 92.57-87.31 216.36-50.55-55.09-72.87-121.9-62.55-188.53 6.97-44.95 30.05-75.02 30.07-112.2.02-19.21-11.97-49.97-22.53-68.96-58.35 98.43-102.36 205.29-135.75 321.16-9.61 34.75-12.8 58.73 25.25 80.05 57.59 32.43 106.81 65.82 113.43 112.73 6.56 46.5-9.58 58.39-21.01 96.82-6.85 23.07-21.87 56.25-18.81 113.41-42.38-29.67-93.57-72.48-104.15-127.37-10.29-53.42 25.79-86.52 22.97-127.36-1.79-25.94-24.02-41.51-42.27-53.41-27.96 120.66-46.28 250.47-58.65 390.02-2.42 22.33-3.12 43.6 35.07 49.72 60.99 8.31 138.9 17.43 168.48 66.35 10.17 16.82 17.03 32.26 19.88 58.57 4.17 38.49-9.06 80.89 9.23 125.57-62.44-16.3-89.71-32.62-127.63-70.37-34.31-34.17-22.26-83.07-63.36-119.66-9.67-8.63-26.54-20.22-47.82-30.55-4.69 88.61 1.86 178.52 17.58 266.17 7.5 41.89 21.09 40.16 47.31 44.14 92.02 13.93 168.65 47.97 223.87 92.45 52.36 42.17 82.77 99.18 103.13 153.35-54.08-31.7-122.38-8.15-162.23-29.12-78.5-41.3-33.89-157.65-194.25-177.5 30.69 122.25 91.8 248.58 169.73 362.59 10.1 16.02 22.85 30.97 45.57 21.3 60.96-19.41 136.42-38.23 188.73-29.44 69.69 11.73 121.02 109.48 174.62 144.25-58.48 22.5-123.55 22.11-159.3 12.77-51.48-13.46-67.89-62.31-106.34-86.21-16.23-10.09-45.69-18.5-65.55-13.76-16.98 4.06-25.07 5.84-36.24 8.54 48.42 63.55 101.76 122 157.35 172.11 48.98 44.16 99.21 73.95 157.35 90.87 30.52 8.88 36.32 4.48 65.8-3.76 35.46-9.92 70.02-10.56 97.41-6.26 43.34 6.81 60.94 38.93 139.26 50.18-43.27 73.95-104.43 94.75-149.79 94.83-47.73.1-80.13-32.41-109.47-62.2-20.71-21.03-28.06-25.14-55.69-33.23-27.71-8.13-54.23-18.55-79.63-31.75-1.38 42.58 32.18 70.39 49.48 95.66 15.98 23.36 14.29 58.44 24.6 87.28 16.12 45.09 105.72 71.91 88.19 118.45-81.53-15.25-179.8-62.53-210.95-131.41-14.75-32.64-12.33-61.79-2.46-82.66 38.96-82.44 28.82-91.37-30.05-142.86-86.79-75.88-168.5-171.3-236.24-275.46-5.89 19.62-10.17 41.29-12.48 57.77-2.13 15.19 11.9 38.61 41.74 74.85 44.79 54.39 36.88 115.35 22.45 236.91-46.87-95.78-118.12-122.01-149.79-192.59-16.81-37.45-15.68-67.55 3.06-97.82 9.48-15.32 27.12-31.03 41.37-48.21 41.51-50.06 23.89-76.65-1.94-124.22-46.35-85.41-82.39-174.27-103.65-261.24-12.09-49.42-21.43-99.87-27.7-150.76-37.8 39.1-49.05 51.91-57.35 104.79-16.18 103.11 61.17 168.07-92.24 296.27-6.61-56.29-2.42-118.84-22.68-167.34-21.683-51.91-30.332-86.51 7.4-127.72 46.51-50.78 75.33-57.83 114.42-96.69 43.44-43.22 44.03-58.08 42.01-115.07-1.51-42.02-.77-84.05 2.41-125.72 4.63-60.49 10.28-119.25 17.18-176.34-49.79 20.64-78.15 20.4-84.31 62.94-6.03 41.64-11.48 86.2-22.23 110.31-23.69 53.04-70.33 70.91-158.13 94.5 45.856-109.03-15.398-188.93 56.563-249.16 43.227-36.18 112.677-17.64 142.137-29.02 52.68-20.34 70.96-32.64 79.15-86.27 18.87-123.31 44.87-238.35 80.87-345.57-53.15 12.8-90.35 36.14-113.49 70.29-57.23 84.52-23.41 118.53-217.718 193.42 29.547-73.37 4.571-177.35 64.198-229.28 64.44-56.12 150.34-25.81 251.76-75.53 34.63-16.97 39.9-26.49 55.46-60.45 40.49-88.34 81-170.96 135.49-248.05-30.55-.38-60.35-9.72-92.73-2.14-71.7 16.77-79.65 47.08-95.39 78.04-20.23 39.78-59.02 80.68-233.91 95.36 36.18-44.02 35.36-96.37 62.2-141.69 23.68-40 53.39-74.55 92.5-93.09 58.5-27.76 141.43-12.12 189.75 5.16 7.85 2.81 15.92 5.02 24.13 6.73 35.21 7.27 80.18 14.7 105.97-16.29 60.13-72.17 130.47-139.25 212.77-201.45-45.12-5.39-63.64-9.88-89.71-4.78-79.98 15.68-105.42 56.88-169.88 62.09-77.46 6.27-105.42-51.33-214.83-23.33 38.82-25.96 53.61-69.36 91.81-102.33 27.87-24.06 77.56-42.57 104.39-44.69 137.1-10.83 150.96 48.21 236.43 73.36 43.33 12.75 77.84 12.55 114.12-11.68 58.16-38.81 121.61-75.6 190.89-110.4-20.89-7.18-38.99-8.25-66.09-4.04-30.25 4.72-99.32 24.21-131.09 19.29-52.84-8.21-72.88-44.39-118.85-64.44-20.9-9.11-42.3-19.77-83.12-14.4 45.96-39.383 143.56-86.148 211.37-78.254 44.75 5.207 73.05 19.504 99.56 36.555 27.86 17.91 43.69 48.999 68.34 65.629 30.99 20.91 42.2 28.23 74.85 13.09 79.66-37.01 167.88-71.707 260.14-102.504-11.48-11.156-28.12-17.067-54.35-15.399-35.27 2.235-58.72 19.004-108.5 17.969-88.32-1.836-148.58-84.91-194.52-90.535 42.73-23.914 92.64-35.617 151.75-45.68 30.96-5.261 67.1.11 86.48 4.324 53.14 11.563 74.94 57.262 111.37 90.161 25.73 23.246 39.49 28.582 70.56 19.011 82.22-25.394 166.76-47.504 250.57-65.297-.59-1.867-.38-.722-7.73-7.074-32.29-27.879-100.07-13.074-144.49-11.539-47.29 1.629-114.61-12.113-146.32-57.574 38.63-3.793 88.22-51.613 145.31-58.945 38.02-4.887 76.88 2.64 98.69 20.234 27.32 22.039 34.23 54.891 56.02 83.191 21.23 27.598 30.51 24.93 61.24 19.188 67.46-12.606 133.96-22.18 197.84-28.172l-.7-9.047-191.67-187.605 138.64-101.934 140.72 277.317 134.57-281.399 163.11 114.18-202.33 189.586c60.39 6.039 123.01 15.211 186.47 27.074 30.73 5.742 40 8.41 61.25-19.188 21.78-28.3 28.7-61.152 56.02-83.191 21.8-17.594 60.66-25.121 98.68-20.234 57.09 7.332 106.68 55.152 145.31 58.945-31.71 45.461-99.03 59.203-146.31 57.574-44.43-1.535-112.21-16.34-144.5 11.539-7.35 6.352-7.14 5.207-7.73 7.074 83.82 17.793 168.35 39.903 250.57 65.297 31.07 9.571 44.83 4.235 70.57-19.011 36.42-32.899 58.22-78.598 111.37-90.161 19.37-4.214 55.51-9.585 86.47-4.324 59.11 10.063 109.02 21.766 151.75 45.68-45.94 5.625-106.2 88.699-194.52 90.535-49.78 1.035-73.23-15.734-108.5-17.969-26.23-1.668-42.88 4.243-54.35 15.399 92.26 30.797 180.49 65.494 260.15 102.504 32.64 15.14 43.86 7.82 74.84-13.09 24.66-16.63 40.48-47.719 68.34-65.629 26.51-17.051 54.81-31.348 99.56-36.555 67.82-7.894 165.41 38.871 211.37 78.254-40.82-5.37-62.22 5.29-83.11 14.4-45.98 20.05-66.02 56.23-118.86 64.44-31.77 4.92-100.84-14.57-131.1-19.29-27.09-4.21-45.19-3.14-66.08 4.04 69.28 34.8 132.73 71.59 190.89 110.4 36.28 24.23 70.79 24.43 114.12 11.68 85.48-25.15 99.33-84.19 236.43-73.36 26.83 2.12 76.52 20.63 104.39 44.69 38.2 32.97 52.99 76.37 91.81 102.33-109.41-28-137.38 29.6-214.83 23.33-64.46-5.21-89.91-46.41-169.88-62.09-26.07-5.1-44.59-.61-89.71 4.78 82.3 62.2 152.64 129.28 212.77 201.45 25.8 30.99 70.77 23.56 105.97 16.29 8.21-1.71 16.28-3.92 24.13-6.73 48.32-17.28 131.25-32.92 189.76-5.16 39.1 18.54 68.81 53.09 92.48 93.09 26.84 45.32 26.03 97.67 62.21 141.69-174.89-14.68-213.68-55.58-233.91-95.36-15.73-30.96-23.69-61.27-95.39-78.04-32.38-7.58-62.18 1.76-92.73 2.14 54.49 77.09 95 159.71 135.5 248.05 15.55 33.96 20.82 43.48 55.45 60.45 101.42 49.72 187.32 19.41 251.76 75.53 59.63 51.93 34.65 155.91 64.2 229.28-194.31-74.89-160.48-108.9-217.72-193.42-23.14-34.15-60.34-57.49-113.48-70.29 35.99 107.22 61.98 222.26 80.86 345.57 8.19 53.63 26.46 65.93 79.15 86.27 29.46 11.38 98.92-7.16 142.14 29.02 71.96 60.23 10.71 140.13 56.56 249.16-87.8-23.59-134.44-41.46-158.12-94.5-10.76-24.11-16.21-68.67-22.24-110.31-6.17-42.54-34.52-42.3-84.31-62.94 6.9 57.09 12.55 115.85 17.18 176.34 3.18 41.67 3.92 83.7 2.41 125.72-2.02 56.99-1.43 71.85 42.01 115.07 39.09 38.86 67.91 45.91 114.42 96.69 37.73 41.21 29.08 75.81 7.4 127.72-20.26 48.5-16.07 111.05-22.68 167.34-153.41-128.2-76.06-193.16-92.24-296.27-8.3-52.88-19.54-65.69-57.35-104.79-6.26 50.89-15.61 101.34-27.7 150.76-21.26 86.97-57.3 175.83-103.65 261.24-25.82 47.57-43.45 74.16-1.94 124.22 14.25 17.18 31.89 32.89 41.37 48.21 18.75 30.27 19.87 60.37 3.06 97.82-31.67 70.58-102.92 96.81-149.79 192.59-14.43-121.56-22.34-182.52 22.46-236.91 29.83-36.24 43.86-59.66 41.73-74.85-2.31-16.48-6.59-38.15-12.48-57.77-67.74 104.16-149.45 199.58-236.24 275.46-58.88 51.49-69.01 60.42-30.05 142.86 9.87 20.87 12.29 50.02-2.46 82.66-31.14 68.88-129.42 116.16-210.95 131.41-17.53-46.54 72.07-73.36 88.19-118.45 10.31-28.84 8.62-63.92 24.6-87.28 17.3-25.27 50.86-53.08 49.48-95.66-25.41 13.2-51.92 23.62-79.63 31.75-27.62 8.09-34.97 12.2-55.69 33.23-29.34 29.79-61.75 62.3-109.47 62.2-45.36-.08-106.52-20.88-149.78-94.83 78.3-11.25 95.91-43.37 139.25-50.18 27.39-4.3 61.95-3.66 97.41 6.26 29.48 8.24 35.28 12.64 65.79 3.76 58.14-16.92 108.39-46.71 157.36-90.87 55.59-50.11 108.93-108.56 157.35-172.11-11.17-2.7-19.26-4.48-36.23-8.54-19.87-4.74-49.32 3.67-65.56 13.76-38.46 23.9-54.86 72.75-106.34 86.21-35.74 9.34-100.82 9.73-159.3-12.77 53.6-34.77 104.93-132.52 174.62-144.25 52.31-8.79 127.77 10.03 188.73 29.44 22.72 9.67 35.47-5.28 45.57-21.3 77.94-114.01 139.04-240.34 169.73-362.59-160.36 19.85-115.75 136.2-194.25 177.5-39.86 20.97-108.15-2.58-162.23 29.12 20.36-54.17 50.77-111.18 103.13-153.35 55.22-44.48 131.85-78.52 223.87-92.45 26.23-3.98 39.82-2.25 47.32-44.14 15.71-87.65 22.26-177.56 17.57-266.17-21.28 10.33-38.15 21.92-47.82 30.55-41.1 36.59-29.04 85.49-63.36 119.66-37.91 37.75-65.18 54.07-127.63 70.37 18.29-44.68 5.06-87.08 9.24-125.57 2.85-26.31 9.7-41.75 19.87-58.57 29.59-48.92 107.5-58.04 168.48-66.35 38.19-6.12 37.49-27.39 35.07-49.72-12.37-139.55-30.69-269.36-58.64-390.02-18.26 11.9-40.49 27.47-42.28 53.41-2.82 40.84 33.26 73.94 22.97 127.36-10.58 54.89-61.78 97.7-104.15 127.37 3.06-57.16-11.96-90.34-18.81-113.41-11.43-38.43-27.57-50.32-21.01-96.82 6.62-46.91 55.84-80.3 113.44-112.73 38.04-21.32 34.85-45.3 25.24-80.05-33.39-115.87-77.4-222.73-135.75-321.16-10.56 18.99-22.55 49.75-22.54 68.96.03 37.18 23.11 67.25 30.07 112.2 10.33 66.63-12 133.44-62.54 188.53-9.7-123.79-90.64-138.43-87.31-216.36 2.1-49.06 64.58-96.07 96.62-141.75 19.46-27.75 20.82-52.49 2.62-78.88-62.4-90.48-138.7-173.37-232.15-249.2-9.69 18.94-22.85 38.87-14.12 57.05 17.76 37 81.63 76.07 96.49 130.43 15.11 55.23-9.2 107.41-32.17 164.19-24.06-34.08-54.57-74.16-83.94-101.84-42.94-40.47-81.7-66.71-79.94-109.92 1.6-39.4 35.17-79.35 64.69-117.99 24.77-32.44 22.95-43.12-6.18-64.39-68.63-50.18-145.62-97.09-232.03-140.87-5.43 13.25-12.08 26.14-4.46 44.12 12.01 28.33 41.96 41.89 60.35 70.22 27.17 41.88 30.43 98.27-3.38 161.35-51.05-54.24-92.84-102.05-114.87-124.3-51.42-51.91-11.14-94.48 9.83-116.63 24.36-25.74 28.62-47.04-3.22-61.91-68.49-31.99-143.66-62.28-222.42-89.82 1.15 16.21-3.79 36.41 6.12 46.65 16.66 17.2 53.85 28.35 62.64 37.55 36.03 37.73 33.72 106.92 29.12 130.44-36.82-8.89-79.45-24.23-106.7-45.59-21.78-17.1-30.83-46.87-29.36-78.68 1.78-38.55 30.75-93.41-15.25-108.456a2887 2887 0 0 0-193.12-55.777c-.71 16.16-2.99 33.707 1.48 43.789 4.83 10.875 45.36 16.59 67.23 29.874 44.55 27.09 39.85 82.38 56.69 99.76-33.76 6.44-113.16.31-144.99-28.72-15.91-14.52-30.11-30.36-31.56-57.22-2.23-40.952 49.99-88.272-.05-99.85-97.69-22.61-195.19-39.531-287.39-49.008l93.25 77.164-89.72 69.334-97.89-106.033-114.19 101.953z" style="fill:#fff;fill-opacity:1;fill-rule:evenodd;stroke:none" transform="matrix(.13333 0 0 -.13333 0 794.667)"></path><path d="M2162.86 3489.44c-43.76-25.53-86.08-53.4-126.69-83.58l542.42-627.81c-52.79-33.53-101.08-73.55-143.73-118.92l-729.13 381c-26.35-44.97-49.36-91.26-69.04-138.68L2375.07 2587a743 743 0 0 1-60.05-97.46h-764.5c-.21-9.15-.34-18.34-.34-27.54 0-19.43.48-38.8 1.41-58.15h2849.57c.93 19.35 1.41 38.72 1.41 58.15 0 9.2-.13 18.39-.34 27.54h-763.79c-18.48 35.93-39.83 70.16-63.7 102.4l739.12 314.77c-20.05 47.62-43.48 94.09-70.27 139.23l-730.04-381.48a748 748 0 0 1-137.54 112.86l542.07 627.4a1366 1366 0 0 1-126.45 83.7l-494.4-667.33a738.4 738.4 0 0 1-155.46 54.07l153.89 572.05-137.77-23.82-108.28-533.38a751 751 0 0 1-72.89 3.53c-24.74 0-49.18-1.2-73.3-3.56l-108.16 532.78-136.15 17.93 152.18-565.63a737.6 737.6 0 0 1-153.74-53.35z" style="fill:#eb1b29;fill-opacity:1;fill-rule:evenodd;stroke:none" transform="matrix(.13333 0 0 -.13333 0 794.667)" data-source="https://football-logos.cc"></path><path d="M1556.71 2336.52c11.97-119.84 41.14-232.32 86.98-344.3 218.48-533.7 760.91-873.78 1332.68-873.78 571.79 0 1114.24 340.1 1332.72 873.84 45.83 111.97 75 224.42 86.96 344.24h-730.02c-49.72 0-174.03-1.61-265.55-83.05-18.21-16.2-13.87-42.27 8.45-53.29 25.32-12.5 87.91-10.75 125.64-11.12 39.93-.39 45.67-50.79 9.84-51.77-92.52-2.54-141.53-7.03-189.3-16.47-69.82-13.79-117.9-34.68-137.31-46.74-88.19-54.76-33.69-93.03 8.76-90.11 31.65 2.17 76.97 5.91 107.69.53 27.13-4.73 55.78-14.9 76.33-31.96 53.69-44.57 25.4-73.69-25.54-75.66-48.79-1.88-87.45 2.55-125.52-2.42-56.58-7.37-90.21-25.76-109.93-38.1-14.27-8.93-20.59-35.81 1.14-49.25 33.16-20.53 110.31-31.56 132.35-48.63 41.34-32.02 14.39-37.99-30.25-35.54-4.91.27-36.51 1.5-59.04 4.1-37.52 4.34-83.99.65-87.46-7.78-6.03-14.64 118.04-38.16 121.19-58.2 4.14-26.33-170.27 2.3-178.6-20.75-3.38-9.35 18.45-22.14 46.32-30.49 21.68-6.49 46.33-15.53 61.65-23.22 11.32-5.69 19.43-27.28 5.16-31.72-27.21-8.49-68.73-10.94-123.09-3.36-50.21 7-99.26 21.59-131.92 44.13-13.8 9.54-71.98 48.4 30.25 57.69 39.29 3.57-3.16 39.05-35.65 44.11-18.73 2.93-109.03 8.82-130.66 8.68-44.46-.29-34.02 37.5-13.71 50.05 17.68 10.92 33.29 17.03 61.63 21.36 40.49 6.18 50.42 34.08-21.17 68.92-28.45 13.84-117.28 26.63-138.55 28.93-107.66 11.65-94.86 81.45-60.09 81.26 98.05-.52 139.24 20.01 147.04 37.73 10.03 22.78-35.12 45.93-85.48 66.57-34.41 14.1-123.15 16.1-190.04 21.47-35.03 2.81-71.2 7.64-83.86 12.77-60.19 24.39-95.75 82.32-11.68 68.93 52.88-8.43 143.01-3.56 180.88.15 27.93 2.74 56.67 9.84 65.58 20.57 14.83 17.89 1.39 41.71-30.16 54.1-35.47 13.93-85.72 29.7-146.93 36.38-54.01 5.89-110.65 3.38-151.48 5.67-53.87 3.03-8.08 49.15 27.66 51.09 60.68 3.31 98.54-.44 130.17 2.46 21.93 2.01 39.14 21.98-13.65 21.98z" style="fill:#2b3d9a;fill-opacity:1;fill-rule:evenodd;stroke:none" transform="matrix(.13333 0 0 -.13333 0 794.667)"></path><path d="M2677.95 3687.34h41.81c-5.12 12.39-9.55 21.77-13.22 28.12-3.68 6.31-6.52 9.46-8.58 9.46-1.89 0-4.21-2.59-7.01-7.75-2.77-5.17-7.14-15.12-13-29.83m-81.51-66.43c0 6.13 4.12 10.6 12.31 13.31 1.4.44 2.5.83 3.32 1.19 5.74 2.18 13.93 15.8 24.53 40.77 3.42 8.14 6.17 14.53 8.23 19.27 1.89 4.24 4.51 10.33 7.93 18.21 15.59 35.38 24.31 58.9 26.19 70.42 1.18 6.61 3.42 11.03 6.62 13.35 3.19 2.32 8.53 3.47 15.97 3.47 8.37 0 15.25-1.1 20.59-3.33 5.34-2.24 10.25-5.96 14.67-11.17 4.99-5.82 10.77-15.11 17.38-27.89 6.66-12.8 15.82-32.5 27.55-59.08 2.98-6.7 6.74-15.63 11.3-26.84 8.18-20.02 14.23-31.45 18.09-34.38.65-.39 2.09-1.01 4.2-1.8 7.88-2.8 11.82-6.96 11.82-12.44 0-6.92-4.34-11.95-13.01-15.15-8.71-3.15-22.64-4.72-41.91-4.72-21.72 0-36.83 1.26-45.27 3.85-8.46 2.54-12.7 6.96-12.7 13.18 0 2.76.7 5.12 2.1 7.18s3.41 3.59 5.95 4.64c3.68 1.44 6.09 2.72 7.14 3.82 1.05 1.13 1.62 2.53 1.62 4.24 0 3.85-3.15 6.62-9.37 8.28-6.26 1.66-16.56 2.5-30.92 2.5-11.47 0-19.27-.84-23.43-2.46s-6.22-4.47-6.22-8.58c0-2.23.62-3.9 1.8-5.04 1.18-1.18 3.68-2.19 7.45-3.02 2.54-.52 4.59-1.8 6.08-3.81 1.5-1.97 2.24-4.52 2.24-7.49 0-6.05-3.42-10.51-10.25-13.31-6.87-2.85-17.51-4.25-31.97-4.25-13.36 0-23.34 1.4-30 4.25-6.7 2.8-10.03 7.1-10.03 12.83M2941.18 3605.63h-91.7c-5.12 0-9.19 1.49-12.13 4.41-2.94 2.94-4.42 7.01-4.42 12.14 0 5.12 3.06 9.64 9.23 13.49 2.72 1.79 4.64 3.24 5.79 4.33 2.36 2.67 4.07 6.88 5.03 12.7 1.01 5.83 1.49 18.14 1.49 36.96v33.98c0 14.37-.31 24.22-.97 29.52-.64 5.3-1.7 8.58-3.27 9.9-.84.57-2.59 1.31-5.26 2.15-7.67 2.4-11.52 6.87-11.52 13.35 0 6.44 4.91 11.39 14.67 14.89 9.81 3.51 23.74 5.25 41.78 5.25 17.78 0 31.22-1.57 40.28-4.72 9.07-3.2 13.58-7.89 13.58-14.15 0-5.69-3.5-10.16-10.5-13.31-1.97-.88-3.51-1.57-4.52-2.19-2.32-1.44-3.85-2.8-4.69-4.03-.82-1.27-1.35-3.15-1.62-5.73-.39-4.25-.74-10.43-.96-18.44-.21-8.06-.31-19.41-.31-34.02v-37.58c0-11.57 1.23-18.66 3.68-21.29 2.42-2.67 7.54-3.98 15.33-3.98 9.68 0 16.99 1.31 21.94 3.98 4.95 2.63 8.67 7.14 11.17 13.45.44 1.14.97 2.76 1.67 4.9 2.75 7.85 6.56 11.78 11.43 11.78 5.12 0 9.41-2.01 12.87-6.08 3.46-4.08 5.21-9.25 5.21-15.46 0-5.48-1.32-12.26-3.99-20.37-2.63-8.05-5.77-14.66-9.36-19.8-2.29-3.28-4.78-5.69-7.45-7.31-2.63-1.61-5.43-2.45-8.32-2.45-.27 0-1.19.18-2.71.53-9.33 2.14-19.8 3.2-31.45 3.2M3119.89 3605.63h-91.7c-5.12 0-9.19 1.49-12.12 4.41-2.94 2.94-4.43 7.01-4.43 12.14 0 5.12 3.07 9.64 9.24 13.49 2.72 1.79 4.64 3.24 5.78 4.33 2.37 2.67 4.07 6.88 5.04 12.7 1.01 5.83 1.49 18.14 1.49 36.96v33.98c0 14.37-.31 24.22-.97 29.52-.65 5.3-1.7 8.58-3.27 9.9-.84.57-2.59 1.31-5.27 2.15-7.66 2.4-11.52 6.87-11.52 13.35 0 6.44 4.91 11.39 14.68 14.89 9.81 3.51 23.74 5.25 41.78 5.25 17.77 0 31.22-1.57 40.28-4.72 9.07-3.2 13.58-7.89 13.58-14.15 0-5.69-3.5-10.16-10.51-13.31-1.97-.88-3.5-1.57-4.51-2.19-2.32-1.44-3.85-2.8-4.69-4.03-.82-1.27-1.35-3.15-1.62-5.73-.39-4.25-.74-10.43-.96-18.44-.22-8.06-.31-19.41-.31-34.02v-37.58c0-11.57 1.23-18.66 3.68-21.29 2.42-2.67 7.53-3.98 15.33-3.98 9.68 0 16.99 1.31 21.94 3.98 4.95 2.63 8.67 7.14 11.17 13.45.43 1.14.96 2.76 1.66 4.9 2.76 7.85 6.57 11.78 11.43 11.78 5.12 0 9.41-2.01 12.88-6.08 3.46-4.08 5.21-9.25 5.21-15.46 0-5.48-1.32-12.26-3.99-20.37-2.63-8.05-5.78-14.66-9.37-19.8-2.28-3.28-4.77-5.69-7.44-7.31-2.63-1.61-5.43-2.45-8.33-2.45-.26 0-1.18.18-2.71.53-9.32 2.14-19.8 3.2-31.45 3.2M3307.86 3796.43c1.27 0 3.85.65 7.66 1.97 3.86 1.31 7.09 1.97 9.63 1.97 7.8 0 15.11-5.26 21.9-15.76 6.79-10.52 10.2-21.46 10.2-32.85 0-7.84-1.79-13.88-5.38-18.13-3.6-4.25-8.72-6.35-15.42-6.35-4.02 0-7.75 1.05-11.21 3.2-3.5 2.14-6.61 5.39-9.46 9.77-1.35 1.96-3.02 4.77-4.99 8.45-3.51 6.61-6.83 9.89-9.99 9.89-2.23 0-3.89-.88-4.94-2.63-1.1-1.75-1.63-4.46-1.63-8.14 0-.18.05-1.23.14-3.2s.13-3.9.13-5.78c0-6.7-.27-17.95-.74-33.89-.53-15.9-.8-28.42-.8-37.58 0-9.33.7-15.85 2.07-19.57 1.35-3.72 3.89-6.57 7.57-8.54.75-.35 1.92-.88 3.59-1.54 6.57-2.76 9.86-6.95 9.86-12.56 0-7.45-4.74-12.84-14.19-16.12-9.46-3.28-24.79-4.94-45.99-4.94-17.25 0-30.65 1.79-40.15 5.43-9.51 3.63-14.24 8.71-14.24 15.24 0 5.86 3.77 10.28 11.3 13.17 2.45.97 4.21 1.71 5.12 2.33 3.95 2.23 6.75 9.28 8.41 21.1 1.66 11.87 2.5 30.49 2.5 55.88v11.96c0 12.13-.57 19.97-1.67 23.43-1.09 3.45-3.1 5.17-6.04 5.17-3.15 0-6.92-3.24-11.3-9.73-1.27-1.88-2.27-3.37-3.06-4.51-4.86-6.65-8.98-11.17-12.31-13.53-3.32-2.37-7.05-3.54-11.03-3.54-4.99 0-9.11 1.92-12.49 5.77-3.33 3.86-4.99 8.76-4.99 14.76 0 5.38 1.58 11.95 4.74 19.62a93 93 0 0 0 12.34 21.33c3.16 3.9 6.22 6.88 9.24 8.85 2.98 1.97 5.92 2.92 8.71 2.92 1.72 0 4.21-.56 7.45-1.66 3.24-1.09 5.74-1.66 7.45-1.66z" style="fill:#eb1b29;fill-opacity:1;fill-rule:nonzero;stroke:none" transform="matrix(.13333 0 0 -.13333 0 794.667)"></path><path d="M1959.75 1697.47c4.29-4.44 9.54-4.97 15.82-1.58 6.26 3.37 21.16 16.42 44.73 39.17l4.16 4.02 1.09 1.07c5.84 5.62 8.79 9.76 8.83 12.35.05 2.61-1.84 5.89-5.65 9.82-1 1.04-2.25 2.28-3.74 3.7s-2.4 2.3-2.77 2.68c-2.38 2.46-3.51 4.89-3.43 7.34.07 2.44 1.32 4.87 3.78 7.24 3.09 2.98 7.84 3.98 14.27 3 6.42-.98 14.66-3.91 24.65-8.76 9.39-4.63 19.29-10.72 29.72-18.29 10.46-7.56 19.19-14.96 26.13-22.14 4.93-5.11 7.88-9.49 8.81-13.16s-.09-6.98-3.05-9.83c-3.69-3.56-8.59-4.09-14.71-1.54-2.31.88-4.03 1.46-5.27 1.74-2.09.59-4.86-.32-8.38-2.68-3.5-2.35-10.04-8.18-19.61-17.43l-4.73-4.57-13.02-12.56c-13.89-13.42-22.7-22.71-26.37-27.91-3.69-5.13-5.25-9.51-4.64-13.11.68-3.85 2.6-7.85 5.74-11.93 3.18-4.05 4.91-6.65 5.29-7.75.49-2.01.46-3.81-.1-5.44-.58-1.61-1.97-3.5-4.18-5.63-4.89-4.72-11.39-4.85-19.52-.46-8.17 4.35-20.24 14.85-36.3 31.47-21.33 22.09-34.68 37.86-40.03 47.38-5.39 9.48-5.6 16.64-.59 21.48 2.8 2.7 5.71 3.97 8.64 3.77 2.95-.2 5.86-1.83 8.84-4.91.7-.73 1.67-1.86 2.89-3.38 1.21-1.5 2.13-2.57 2.7-3.17M2089.4 1566.99c4.87-3.8 10.15-3.59 15.89.64 5.73 4.2 18.67 19.21 38.84 45.02l3.57 4.56.93 1.2c5 6.39 7.35 10.89 7.03 13.47s-2.66 5.57-6.97 8.93c-1.14.89-2.54 1.94-4.22 3.14-1.67 1.2-2.7 1.94-3.11 2.27-2.7 2.1-4.16 4.35-4.43 6.79-.27 2.43.64 5.01 2.74 7.7 2.64 3.38 7.21 5.03 13.71 4.96 6.5-.08 15.07-1.84 25.64-5.25 9.94-3.28 20.6-7.92 31.98-13.98 11.41-6.02 21.08-12.14 28.94-18.29 5.6-4.36 9.14-8.29 10.56-11.8 1.43-3.51.88-6.92-1.64-10.16-3.16-4.04-7.95-5.24-14.36-3.57-2.41.55-4.19.89-5.46.99-2.15.3-4.77-1-7.91-3.82-3.15-2.82-8.82-9.5-17.01-20l-4.05-5.17-11.14-14.25c-11.88-15.23-19.32-25.65-22.23-31.31-2.94-5.6-3.88-10.15-2.77-13.63 1.21-3.72 3.67-7.41 7.35-11.02 3.71-3.56 5.78-5.9 6.31-6.93.77-1.93.98-3.72.66-5.4-.36-1.67-1.47-3.74-3.36-6.16-4.18-5.35-10.6-6.39-19.26-3.18-8.7 3.18-22.12 11.89-40.34 26.12-24.19 18.9-39.61 32.67-46.23 41.34-6.64 8.64-7.86 15.7-3.56 21.19 2.39 3.07 5.09 4.74 8.02 4.95 2.94.2 6.06-1 9.44-3.64.79-.63 1.92-1.61 3.33-2.94 1.41-1.32 2.46-2.26 3.11-2.77M2203.34 1478.53c5.05 7.47 11.87 12.02 20.54 13.68 8.6 1.64 16.66-.05 24.1-5.07 7.56-5.09 12.13-11.87 13.79-20.45 1.66-8.57-.03-16.56-5.12-24.11-5.02-7.44-11.86-12.02-20.51-13.8-8.66-1.71-16.7-.09-24.18 4.96-7.37 4.97-11.89 11.82-13.57 20.6-1.66 8.73-.02 16.82 4.95 24.19M2417.61 1415.15l38.49-16.34c.13 13.41-.28 23.77-1.19 31.05-.92 7.24-2.31 11.26-4.2 12.05-1.74.74-4.89-.73-9.48-4.39-4.56-3.68-12.48-11.12-23.62-22.37m-100.99-29.31c2.4 5.64 7.94 8.15 16.53 7.45 1.46-.15 2.63-.21 3.53-.21 6.14-.22 19 9.11 38.5 27.94 6.33 6.17 11.37 10.98 15.11 14.53 3.39 3.17 8.19 7.75 14.41 13.66 28.18 26.48 45.39 44.73 51.63 54.59 3.67 5.63 7.46 8.83 11.31 9.71 3.84.9 9.2-.14 16.06-3.06 7.7-3.27 13.6-6.95 17.64-11.1 4.05-4.14 7.11-9.49 9.14-16.01 2.32-7.31 4.02-18.12 5.11-32.47 1.13-14.37 1.86-36.09 2.27-65.14.12-7.34.1-17.03-.09-29.13-.28-21.62.82-34.51 3.22-38.71.45-.62 1.54-1.75 3.17-3.29 6.16-5.67 8.16-11.03 6.02-16.08-2.7-6.36-8.66-9.31-17.89-8.86-9.26.5-22.69 4.49-40.43 12.02-19.99 8.48-33.4 15.56-40.17 21.24-6.79 5.64-8.97 11.37-6.54 17.1 1.08 2.53 2.64 4.44 4.74 5.78 2.09 1.35 4.55 1.98 7.3 1.95 3.95-.11 6.66.12 8.06.72 1.41.64 2.48 1.7 3.14 3.27 1.51 3.55-.31 7.32-5.39 11.29-5.11 3.98-14.26 8.77-27.48 14.38-10.56 4.48-18.07 6.76-22.52 6.89-4.47.13-7.47-1.68-9.08-5.46-.88-2.06-.96-3.84-.31-5.35.62-1.55 2.52-3.45 5.66-5.69 2.14-1.47 3.53-3.45 4.12-5.88.6-2.4.29-5.03-.87-7.77-2.37-5.56-7.25-8.34-14.63-8.24-7.44.05-17.79 2.93-31.1 8.57-12.29 5.22-20.93 10.41-25.95 15.63-5.07 5.2-6.46 10.45-4.22 15.73M2647.42 1318.78c-.35-1.49-.73-2.97-1.18-4.53l-.66-2.28c-2.7-11.69-3.82-19.25-3.33-22.78.46-3.48 2.29-6.64 5.5-9.49.3-.26.63-.56.96-.9 4.75-4.15 6.59-8.62 5.49-13.37-1.57-6.82-6.69-10.89-15.39-12.17-8.65-1.28-21.69.07-39.01 4.07-18.52 4.27-31.68 9.02-39.42 14.22s-10.81 11.39-9.17 18.48c1.08 4.65 4.47 7.87 10.17 9.6 5.76 1.78 9.07 3.08 9.94 3.92 2.02 1.91 4.88 9.47 8.61 22.68 3.73 13.25 9.84 38.36 18.39 75.4 1.61 6.99 2.23 12.2 1.82 15.67-.36 3.5-1.75 6.25-4.2 8.29-.9.93-2.44 2.09-4.57 3.57-6.36 4.35-8.91 9.25-7.66 14.67 1.11 4.82 4.11 7.91 8.95 9.17 4.88 1.3 11.97.88 21.32-1.28 2.9-.67 6.41-1.62 10.45-2.82 4.07-1.2 6.73-1.96 7.98-2.25 4.69-1.08 13.67-2.65 26.94-4.74 13.31-2.12 24.09-4.11 32.33-6.02 25.17-5.81 42.79-14.96 52.9-27.41 10.11-12.48 12.92-28.55 8.37-48.22-4.57-19.85-14.74-33.86-30.44-42.1-15.72-8.19-35.3-9.6-58.72-4.19-3.25.74-8.2 2.21-14.9 4.37-.66.21-1.13.36-1.47.44m11.68 59.73-1.39-6.01c-2.4-10.41-3.58-16.71-3.51-18.92.07-2.22 1.32-3.64 3.82-4.3 6.91-1.6 12.89-.41 17.97 3.49 5.08 3.91 8.59 10.16 10.57 18.73 2.2 9.51 2.06 17.32-.4 23.41-2.45 6.11-6.93 9.88-13.41 11.38-2.73.63-4.88-.28-6.42-2.66-1.5-2.44-3.6-9.37-6.26-20.9zM2861.63 1323.82c1.4-.51 2.72-.98 3.93-1.3 1.25-.34 2.37-.52 3.51-.63 6.72-.58 11.75 1.09 15.13 5.06 3.33 3.98 5.44 10.95 6.32 21.03.67 7.64-.32 13.44-3.02 17.37-2.63 3.92-7.05 6.15-13.3 6.7-3.75.33-6.29-.64-7.59-2.89-1.29-2.23-2.41-8.5-3.31-18.8l-.9-10.25c-.19-2.14-.35-4.41-.48-6.9-.12-2.5-.22-5.61-.29-9.39m-1.94-32.75c-.11-1.31-.39-3.97-.83-8.02-.45-4.05-.79-7.44-1.04-10.28l-.68-7.81c-.73-8.33-.82-13.83-.3-16.45.57-2.65 1.83-4.78 3.84-6.41.58-.4 1.37-.96 2.41-1.62 5.98-4.39 8.73-9.16 8.29-14.27-.55-6.27-4.56-10.41-12.08-12.39-7.5-1.93-20.57-2.11-39.16-.48-18.8 1.64-32.12 4.21-39.9 7.75-7.74 3.49-11.35 8.43-10.79 14.83.46 5.19 4.41 9.33 11.89 12.33 1.19.52 2.11.91 2.83 1.21 2.15.9 4.37 7.25 6.76 18.97 2.35 11.75 4.37 27.35 6.08 46.85 2.13 24.3 3.17 40.26 3.17 47.77-.04 7.57-.77 12.29-2.28 14.13-.84.91-2.58 2.21-5.21 3.8-6.67 4.1-9.78 8.73-9.34 13.83.45 5.02 3.65 8.56 9.68 10.63 6.02 2.01 14.73 2.58 26.16 1.58q2.805-.255 11.55-1.14c5.84-.61 10.72-1.07 14.64-1.41 7.47-.66 16.95-1.32 28.32-1.96 11.42-.69 19.07-1.18 22.99-1.52 22.43-1.96 39.2-7.7 50.42-17.21 11.16-9.55 16.08-22.2 14.69-38.07-.65-7.47-2.77-14.05-6.3-19.64-3.52-5.62-8.4-10.16-14.64-13.66-1.38-.76-3.4-1.64-6.04-2.68-4.09-1.62-6.21-3.23-6.36-4.89-.17-1.96 2.24-3.98 7.21-6.04 3.64-1.51 6.48-2.85 8.52-4.09 4.79-2.93 8.84-7.58 12.09-14.03 3.27-6.39 5.27-13.64 6.02-21.71.25-2.18.47-5.1.68-8.81.58-9.86 2.07-15.43 4.42-16.74.84-.43 1.85-.96 3.11-1.58 7.47-3.64 11.01-7.88 10.59-12.63-.55-6.37-4.97-11.17-13.3-14.36-8.28-3.18-19.04-4.17-32.26-3.02-15.49 1.36-26.7 5.33-33.6 11.96-6.89 6.62-11.74 19.09-14.61 37.45l-.42 2.77c-3.77 24.2-10.54 36.74-20.23 37.59-1.26.11-2.49.13-3.61.01a50 50 0 0 1-3.38-.54M3000.52 1225.76c-.19 5.55 3.27 10.53 10.39 15 2.66 1.71 4.46 3.09 5.25 4.04 1.98 2.13 3.23 7.86 3.7 17.22.51 9.3.36 24.72-.39 46.16l-1.24 35.54c-.26 7.36-.92 12.46-2.03 15.4-1.07 2.9-3.03 5.19-5.8 6.9-.81.49-1.93 1.16-3.4 1.94-5.76 3.21-8.75 7.14-8.92 11.78-.23 6.56 3.94 11.62 12.49 15.12 8.59 3.5 21.67 5.57 39.27 6.18 17.37.6 30.16-.47 38.32-3.22 8.2-2.73 12.39-7.37 12.62-13.88.17-5.03-2.73-9.51-8.78-13.4-2.18-1.44-3.62-2.55-4.39-3.36-1.91-2.04-3-9.66-3.32-22.81-.29-13.21.15-37.2 1.37-71.99.38-10.69 1.06-17.59 2-20.7.98-3.17 2.64-5.61 5.03-7.41.86-.67 2.16-1.51 3.81-2.58 5.88-3.88 8.88-8.15 9.04-12.79.22-6.48-3.95-11.44-12.45-14.86-8.51-3.4-21.72-5.45-39.58-6.07-16.58-.58-29.51.69-38.78 3.78-9.26 3.09-13.99 7.8-14.21 14.01m93.22 213.14c.06-1.79-.46-3.16-1.61-4.13-1.11-.91-3.36-1.86-6.74-2.86-15.27-4.39-27.68-7.8-37.33-10.33-9.63-2.53-15.24-3.82-16.86-3.88-2.93-.1-5.25 1.05-7.04 3.44-1.78 2.35-2.77 5.43-2.91 9.18-.1 2.98 4.43 6.34 13.64 10 1.67.67 3.1 1.2 4.19 1.67 15.1 6.28 25.74 10.54 31.97 12.86 6.18 2.32 10.04 3.51 11.49 3.56 2.89.1 5.46-1.82 7.65-5.82 2.2-4.01 3.36-8.56 3.55-13.69M3266.12 1239.36l-90.01-17.5c-5.03-.98-9.31-.29-12.75 2.03-3.45 2.32-5.68 6.03-6.66 11.07-.98 5.02 1.17 10.04 6.49 15 2.33 2.28 3.95 4.06 4.86 5.35 1.81 3.08 2.68 7.53 2.51 13.43-.12 5.91-2 18.08-5.59 36.56l-6.49 33.36c-2.74 14.11-4.92 23.72-6.57 28.8s-3.32 8.09-5.11 9.08c-.93.4-2.78.8-5.57 1.11-7.98.9-12.62 4.55-13.85 10.91-1.24 6.32 2.64 12.12 11.56 17.41 8.96 5.32 22.29 9.7 40.01 13.14 17.45 3.39 30.94 4.41 40.44 3.04 9.52-1.41 14.83-5.15 16.03-11.29 1.08-5.59-1.5-10.64-7.77-15.07-1.77-1.24-3.15-2.22-4.02-3.01-2-1.87-3.24-3.49-3.83-4.85-.57-1.41-.73-3.36-.5-5.95.43-4.24 1.27-10.37 2.58-18.27 1.32-7.96 3.4-19.11 6.19-33.47l5.21-26.82 1.96-10.06c2.21-11.35 4.76-18.08 7.67-20.19 2.88-2.17 8.16-2.48 15.8-.99 9.5 1.85 16.43 4.53 20.78 8.1 4.36 3.52 7.15 8.66 8.4 15.33.22 1.2.42 2.89.7 5.13q1.815 12.345 8.97 13.74c5.03.98 9.63-.18 13.8-3.51 4.17-3.34 6.88-8.08 8.07-14.18 1.04-5.38 1.05-12.29-.04-20.75-1.04-8.41-2.87-15.5-5.41-21.23-1.61-3.65-3.6-6.5-5.91-8.6-2.27-2.08-4.87-3.43-7.7-3.99-.26-.05-1.2-.05-2.77 0-9.56.33-20.05-.64-31.48-2.86M3466.05 1328.5c5.69 2.41 8.06 7.14 7.15 14.21-.9 7.05-7.75 25.64-20.55 55.79l-2.26 5.32-.59 1.41c-3.17 7.47-5.97 11.7-8.37 12.67-2.42.98-6.17.38-11.2-1.76-1.33-.56-2.93-1.28-4.79-2.17-1.87-.88-3.01-1.42-3.49-1.62-3.15-1.33-5.83-1.53-8.09-.58-2.25.95-4.07 2.99-5.41 6.13-1.67 3.96-.9 8.74 2.31 14.39 3.22 5.65 8.92 12.3 17.02 19.88 7.69 7.12 16.92 14.17 27.74 21.19 10.8 7.07 20.83 12.56 30.02 16.46 6.53 2.77 11.69 3.96 15.44 3.52 3.77-.46 6.48-2.59 8.09-6.38 2-4.72.74-9.48-3.84-14.28-1.64-1.84-2.81-3.24-3.51-4.3-1.3-1.74-1.44-4.65-.5-8.77s4.04-12.32 9.24-24.57l2.58-6.05 7.06-16.65c7.54-17.78 13.06-29.34 16.6-34.63 3.48-5.28 7-8.31 10.58-9.03 3.84-.74 8.26-.38 13.19 1.09 4.92 1.52 7.98 2.2 9.13 2.16 2.06-.27 3.72-.94 5.04-2.04 1.3-1.12 2.57-3.1 3.76-5.93 2.66-6.25.45-12.37-6.56-18.38-6.99-6.06-21.11-13.59-42.4-22.61-28.26-12-47.78-18.81-58.56-20.4-10.78-1.62-17.55.74-20.27 7.15-1.52 3.58-1.67 6.75-.43 9.42 1.25 2.68 3.81 4.81 7.77 6.49.92.39 2.33.9 4.17 1.49s3.17 1.06 3.93 1.38M3643.62 1468.62c1.95 1.08 3.01 2.87 3.16 5.41.15 2.53-.6 5.33-2.25 8.31-4.23 7.62-9.71 13.55-16.44 17.73-6.71 4.24-12.33 5.09-16.81 2.6-2.07-1.14-3.26-3.16-3.46-6.03-.22-2.87.62-6.01 2.53-9.46 4.2-7.59 9.69-13.15 16.48-16.8 6.79-3.59 12.39-4.2 16.79-1.76m8.41-42.1c-2.78-2.55-5.34-4.72-7.67-6.56-2.3-1.82-4.31-3.18-5.95-4.09-13.67-7.58-28.18-8.32-43.46-2.17s-27.61 17.64-36.93 34.46c-9.91 17.89-11.75 35.75-5.55 53.56 6.21 17.8 19.42 32.34 39.73 43.6 20.19 11.18 39.61 14.7 58.24 10.54 18.62-4.14 32.86-15.12 42.78-33.01 9.3-16.77 14.87-36.02 16.77-57.8 1.9-21.77.11-45.55-5.47-71.33-1.63-7.65-3.24-13.05-4.89-16.22-1.6-3.14-3.82-5.48-6.58-7-6.66-3.7-15.12-5.43-25.39-5.22-10.28.21-16.37 1.99-18.25 5.36-.37.68 1.11 7.48 4.49 20.36 3.35 12.93 2.75 24.76-1.87 35.52M3762.34 1574.47c8.89-11.38 18.09-20.03 27.61-25.88 9.51-5.84 16.27-7.24 20.27-4.11 2.82 2.21 3.64 5.51 2.47 9.93-1.15 4.38-4.39 10.03-9.7 16.82-9.06 11.6-18.33 20.41-27.84 26.38-9.5 5.97-16.21 7.45-20.04 4.45-2.9-2.26-3.75-5.71-2.56-10.38 1.2-4.68 4.45-10.37 9.79-17.21m-42.57-46.59c-15.03 19.22-21.57 39.55-19.63 61.03 1.96 21.47 11.59 39.01 28.93 52.54 17.52 13.7 37.01 18.48 58.47 14.35s40.22-16.48 56.29-37.05c15.21-19.46 22.2-39.79 20.99-61.01-1.26-21.22-10.29-38.38-27.14-51.54-17.8-13.92-37.94-18.87-60.4-14.8q-33.75 6.045-57.51 36.48M3928.76 1701.77c1.55 1.6 2.04 3.62 1.44 6.09s-2.13 4.92-4.59 7.29c-6.27 6.06-13.24 10.12-20.9 12.15-7.65 2.1-13.28 1.25-16.83-2.42-1.65-1.71-2.2-3.98-1.56-6.79.63-2.8 2.36-5.56 5.2-8.3 6.23-6.02 13.11-9.74 20.67-11.25 7.54-1.45 13.07-.4 16.57 3.23m20.35-37.81c-1.92-3.25-3.73-6.07-5.42-8.51-1.66-2.41-3.18-4.3-4.49-5.65-10.85-11.25-24.52-16.19-40.92-14.78-16.42 1.41-31.57 8.8-45.4 22.16-14.71 14.2-21.68 30.74-20.97 49.59.73 18.84 9.13 36.61 25.25 53.3 16.03 16.61 33.59 25.64 52.61 27.13 19.02 1.48 35.85-4.86 50.57-19.07 13.79-13.32 24.75-30.1 32.93-50.37s13.43-43.53 15.62-69.81c.68-7.8.73-13.43.07-16.95-.61-3.48-2.05-6.35-4.24-8.62-5.29-5.48-12.87-9.6-22.77-12.41-9.89-2.81-16.23-2.89-19.01-.21-.56.55-1.12 7.48-1.66 20.79-.57 13.34-4.61 24.47-12.17 33.41" style="fill:#fff;fill-opacity:1;fill-rule:nonzero;stroke:none" transform="matrix(.13333 0 0 -.13333 0 794.667)"></path><path d="M2385.94 3792.58c-2.61 4.9-1.68 10.9 2.76 18.03 1.64 2.71 2.65 4.73 2.95 5.94.85 2.77-.55 8.48-4.23 17.09-3.62 8.59-10.51 22.38-20.58 41.32l-16.7 31.4c-3.45 6.5-6.28 10.8-8.57 12.95-2.23 2.14-5 3.35-8.24 3.66-.94.09-2.24.19-3.91.26-6.59.36-11 2.57-13.17 6.68-3.09 5.8-1.56 12.16 4.59 19.06 6.2 6.91 17.04 14.5 32.58 22.77 15.36 8.16 27.32 12.8 35.85 13.91 8.58 1.14 14.37-1.19 17.43-6.95 2.37-4.45 1.72-9.75-2-15.9-1.34-2.24-2.15-3.87-2.48-4.94-.83-2.66 1.54-9.99 7.01-21.96 5.54-11.99 16.45-33.36 32.79-64.11 5.02-9.43 8.66-15.33 10.87-17.72 2.28-2.42 4.84-3.87 7.77-4.45 1.07-.23 2.61-.41 4.57-.66 6.97-.89 11.53-3.42 13.72-7.52 3.04-5.73 1.47-12.01-4.68-18.81-6.16-6.79-17.13-14.42-32.91-22.81-14.65-7.79-26.83-12.32-36.52-13.61-9.67-1.28-15.98.88-18.9 6.37m-9.65 232.44c.83-1.59.96-3.06.36-4.42-.6-1.31-2.19-3.15-4.8-5.54-11.81-10.63-21.47-19.14-29.02-25.64-7.56-6.49-12.03-10.12-13.47-10.87-2.58-1.39-5.16-1.37-7.82 0-2.65 1.32-4.88 3.66-6.65 6.98-1.39 2.63 1.2 7.63 7.88 14.95 1.22 1.35 2.27 2.44 3.03 3.35 10.83 12.26 18.52 20.75 23.11 25.57 4.53 4.8 7.48 7.56 8.76 8.23 2.55 1.36 5.7.75 9.43-1.88s6.78-6.21 9.19-10.73M2563.68 3853.32c-13.75-5.01-27.73-7.95-41.94-8.84-14.26-.91-24.31.19-30.2 3.32-4.98 2.66-9.86 7.37-14.7 14.13-4.84 6.77-8.92 14.78-12.32 24.13-1.93 5.3-2.41 9.56-1.41 12.82 1.03 3.21 3.6 5.59 7.8 7.12 5.22 1.91 11.9-.14 19.98-6.1 2.49-1.85 4.42-3.19 5.84-4.03 8.15-5.33 16.33-8.74 24.55-10.17 8.22-1.49 15.94-.91 23.05 1.68 5.4 1.96 9.41 4.64 11.99 8.04 2.58 3.41 3.27 6.78 2.04 10.15-1.71 4.7-9.67 6.84-23.94 6.49-6.42-.15-11.59-.17-15.54-.06-19.99.36-36.15 4.03-48.49 10.95-12.36 6.93-21.02 17.16-25.96 30.73-6.36 17.45-4.76 34.34 4.73 50.61 9.51 16.27 24.89 28.3 46.2 36.07 7.95 2.89 16.2 4.92 24.77 6.07 8.54 1.15 12.83 1.74 12.93 1.77 2.09.77 4.65 2.16 7.73 4.12 3.04 1.99 5.3 3.23 6.73 3.75 6.8 2.48 15.19.27 25.26-6.64 10.05-6.88 16.6-14.51 19.65-22.87 2.08-5.71 2.09-10.98.02-15.79-2.08-4.81-5.79-8.17-11.11-10.1-5.05-1.84-13.04-.27-23.93 4.67-3.05 1.36-5.43 2.35-7.1 3a44.2 44.2 0 0 1-15.12 3.27c-5.28.16-10.21-.6-14.87-2.3-4.69-1.71-7.99-3.93-9.94-6.74-1.92-2.79-2.3-5.87-1.1-9.16 2.42-6.67 14.1-9.13 34.97-7.45 6.62.5 11.82.81 15.57 1 16.48.83 30-1.89 40.52-8.13 10.56-6.22 18.26-16 23.11-29.33 7.09-19.46 5.1-38.09-5.9-55.88-10.99-17.8-28.94-31.23-53.87-40.3M2748.79 3908.48l-90.31-15.91c-5.04-.9-9.31-.14-12.71 2.24s-5.57 6.13-6.46 11.18 1.34 10.02 6.75 14.89c2.37 2.24 4.01 4 4.95 5.27 1.87 3.04 2.81 7.48 2.75 13.38-.02 5.92-1.69 18.11-4.96 36.66l-5.9 33.47c-2.49 14.14-4.5 23.8-6.08 28.9-1.55 5.11-3.16 8.15-4.94 9.17-.92.42-2.78.84-5.55 1.21-7.96 1.04-12.54 4.76-13.66 11.15-1.12 6.34 2.85 12.06 11.87 17.21 9.04 5.15 22.46 9.29 40.23 12.43 17.5 3.09 31.02 3.87 40.48 2.34 9.5-1.58 14.75-5.41 15.84-11.57.98-5.61-1.68-10.62-8.04-14.94-1.79-1.21-3.18-2.17-4.07-2.94-2.03-1.82-3.3-3.42-3.91-4.78-.59-1.39-.79-3.34-.6-5.93.35-4.26 1.08-10.39 2.25-18.33 1.19-7.97 3.07-19.16 5.61-33.56l4.74-26.9 1.78-10.1c2.01-11.39 4.45-18.16 7.32-20.32 2.84-2.22 8.11-2.62 15.78-1.27 9.54 1.68 16.51 4.25 20.93 7.74 4.41 3.45 7.3 8.53 8.66 15.17.23 1.21.47 2.9.78 5.12 1.36 8.21 4.43 12.75 9.22 13.59 5.04.89 9.62-.35 13.73-3.76 4.12-3.4 6.74-8.19 7.82-14.32.95-5.39.83-12.3-.39-20.74-1.19-8.39-3.14-15.44-5.79-21.12-1.68-3.63-3.71-6.44-6.06-8.5-2.31-2.05-4.92-3.35-7.77-3.86-.26-.04-1.2-.03-2.76.05-9.57.49-20.06-.3-31.53-2.32M2891.5 4003.35l41.8.73c-5.33 12.3-9.92 21.6-13.71 27.88-3.78 6.25-6.68 9.34-8.74 9.31-1.89-.03-4.16-2.66-6.87-7.87-2.67-5.22-6.88-15.24-12.48-30.05m-80.34-67.85c-.11 6.13 3.94 10.68 12.08 13.53 1.39.46 2.49.88 3.31 1.25 5.69 2.28 13.65 16.04 23.81 41.18 3.27 8.2 5.92 14.65 7.89 19.42 1.81 4.27 4.33 10.41 7.61 18.35 14.97 35.65 23.27 59.31 24.96 70.86 1.06 6.63 3.22 11.1 6.38 13.47 3.14 2.37 8.47 3.61 15.91 3.74 8.37.15 15.26-.82 20.64-2.96 5.38-2.15 10.35-5.79 14.86-10.92 5.1-5.73 11.04-14.92 17.87-27.58 6.88-12.68 16.38-32.22 28.58-58.59 3.09-6.65 7.01-15.52 11.76-26.64 8.54-19.87 14.77-31.19 18.69-34.06.65-.38 2.11-.97 4.23-1.72 7.93-2.67 11.95-6.76 12.04-12.23.12-6.92-4.13-12.03-12.74-15.38-8.66-3.31-22.56-5.12-41.82-5.46-21.72-.37-36.85.62-45.34 3.06-8.5 2.4-12.81 6.74-12.93 12.97-.04 2.75.61 5.13 1.98 7.21 1.36 2.08 3.35 3.64 5.87 4.75 3.66 1.5 6.04 2.81 7.07 3.93 1.03 1.15 1.58 2.57 1.54 4.27-.06 3.86-3.26 6.56-9.51 8.12-6.29 1.54-16.59 2.2-30.95 1.95-11.48-.2-19.26-1.17-23.39-2.86-4.14-1.69-6.14-4.57-6.06-8.68.03-2.24.67-3.89 1.88-5.02 1.2-1.16 3.71-2.12 7.49-2.89 2.56-.47 4.63-1.71 6.15-3.69 1.53-1.95 2.32-4.48 2.37-7.46.11-6.04-3.23-10.56-10.01-13.49-6.83-2.96-17.44-4.55-31.9-4.8-13.34-.23-23.36.99-30.06 3.73-6.75 2.68-10.16 6.91-10.26 12.64M3084.5 4007.39c2.58 21.03 3.9 36.49 4.01 46.35.07 9.84-.96 16.63-3.05 20.33-.45.75-3.22 3-8.33 6.71-5.09 3.76-7.35 7.92-6.8 12.48.81 6.52 4.85 10.74 12.15 12.68 7.29 1.87 19.67 1.77 37.06-.37 5.61-.68 9.8-1.37 12.54-2.07 2.78-.69 5.02-1.49 6.8-2.51 2.35-1.3 5.2-3.63 8.53-7 3.35-3.32 9.2-9.91 17.57-19.72 3.08-3.64 7.35-8.79 12.8-15.43 23.38-28.02 37.34-42.3 41.9-42.86 1.95-.25 3.6.57 4.85 2.49s2.13 4.81 2.62 8.72c.55 4.43 1.19 9.03 1.96 13.88.15 1.18.24 1.95.28 2.27.72 5.86.56 10.29-.49 13.24-1.08 3.01-3.38 5.53-6.9 7.69-.17.11-.5.33-.94.64-5.14 3.06-7.38 7.44-6.68 13.13.78 6.35 4.06 10.49 9.89 12.33 5.84 1.9 16.81 1.83 32.85-.15 14.18-1.73 23.89-4.16 29.11-7.27 5.23-3.08 7.45-7.58 6.72-13.54-.44-3.65-1.5-6.48-3.15-8.48-1.66-2-4.78-3.69-9.37-5.11-3.7-1.36-6.27-3.21-7.64-5.5-1.4-2.35-3.25-8.08-5.47-17.21-1.66-7.02-3.17-14.65-4.57-22.86-1.37-8.26-3.06-20.28-5.01-36.05l-.38-3.18c-1.96-15.95-3.61-27.57-4.9-34.83-1.33-7.25-2.82-13.68-4.45-19.35-1.83-6.39-4.28-11.12-7.29-14.1-3.06-2.98-6.61-4.22-10.69-3.72-3.83.47-8.83 3.6-15.08 9.39-6.22 5.84-17.5 18.52-33.88 38.14-6.17 7.29-13.84 16.62-23.03 28.02-14.37 17.78-23.09 26.89-26.14 27.26-3.12.38-5.56-1.08-7.24-4.37-1.67-3.27-3.11-9.54-4.25-18.8-.91-7.47-1.21-14.14-.9-19.96.33-5.87 1.12-9.63 2.36-11.24.88-1.12 2.55-2.61 5.03-4.37 5.3-3.91 7.64-8.26 7.06-12.99-.78-6.3-4.53-10.61-11.3-12.92-6.72-2.3-16.52-2.69-29.34-1.11-13.35 1.64-23.12 4.34-29.37 8.06-6.29 3.73-9.05 8.62-8.32 14.52.54 4.44 3.87 8.18 10.02 11.17 2.69 1.36 4.62 2.44 5.83 3.31 2.5 2.02 4.73 6.91 6.66 14.71 1.97 7.74 4.07 20.94 6.36 39.55M3268.01 3910.33c1.97 6.48 7.28 10.18 15.85 11.13 2.62.3 4.41.62 5.44 1.03 1.74.71 4.65 6.51 8.8 17.37 4.09 10.84 9.3 26.52 15.55 46.95.2.67.73 2.39 1.57 5.15 3.94 12.31 7.66 24.13 11.1 35.4 2.38 7.79 1.79 13.19-1.73 16.24-1.02.85-1.79 1.6-2.44 2.2-2.07 1.91-3.49 4.14-4.19 6.64-.69 2.55-.56 5.39.39 8.49 1.8 5.9 5.03 9.41 9.71 10.5 4.7 1.12 14.07-.47 28.14-4.77 2.38-.72 5.84-1.83 10.47-3.33 4.58-1.49 8-2.58 10.3-3.28.59-.18 6.63-1.99 18.14-5.41 11.53-3.44 22.77-6.83 33.75-10.19 29.27-8.95 49.41-23.8 60.44-44.63 11.04-20.82 12.06-45.94 3.06-75.39-4.2-13.69-9.75-25.27-16.69-34.83-6.96-9.54-15.61-17.48-25.93-23.81-11.04-6.92-22.86-10.68-35.37-11.3-12.57-.65-27.92 1.81-46.06 7.35-4.36 1.34-12.79 4.14-25.36 8.45-12.53 4.24-22.98 7.66-31.35 10.22l-16.08 4.91c-5.07 1.55-9.23 2.92-12.48 4.14a95 95 0 0 0-8.22 3.52c-3.01 1.66-5.16 4.09-6.4 7.36-1.31 3.24-1.44 6.53-.41 9.89m112.8 68.81c-5.22-17.09-9.58-31.64-13.06-43.63s-5.59-19.77-6.35-23.29c-.88-4.72-.95-8.04-.2-9.97.74-1.92 2.84-3.43 6.27-4.48 12.94-3.95 23.96-2.38 33.07 4.78 9.09 7.15 16.49 19.95 22.15 38.46 6.67 21.83 8.24 39.07 4.72 51.68-3.52 12.62-12.25 21.06-26.24 25.33-2.05.63-3.86.86-5.38.69-1.5-.13-2.4-.55-2.68-1.16-.38-.61-1.25-3.04-2.63-7.24-1.39-4.26-4.61-14.62-9.67-31.17M3470.52 3844.5c2.44 5 7.84 7.78 16.21 8.38 3.16.26 5.39.63 6.54 1.09 2.75.95 6.55 5.43 11.34 13.48 4.83 7.97 11.93 21.66 21.34 40.94l15.59 31.97c3.22 6.6 5.03 11.42 5.44 14.53.41 3.07-.24 6.02-1.89 8.83-.48.81-1.16 1.92-2.09 3.3-3.58 5.55-4.37 10.42-2.34 14.59 2.88 5.91 8.92 8.41 18.12 7.48 9.24-.94 21.76-5.25 37.57-12.97 15.63-7.62 26.41-14.57 32.33-20.82 5.96-6.27 7.48-12.33 4.63-18.2-2.21-4.52-6.88-7.11-14.04-7.71-2.61-.25-4.41-.54-5.46-.9-2.64-.91-7.18-7.12-13.65-18.58-6.45-11.53-17.32-32.93-32.59-64.21-4.68-9.6-7.32-16.02-7.95-19.22-.61-3.25-.29-6.19.98-8.9.43-.99 1.19-2.34 2.15-4.07 3.37-6.18 4-11.36 1.97-15.53-2.84-5.82-8.85-8.25-17.97-7.28-9.11 1-21.73 5.4-37.79 13.23-14.92 7.28-25.74 14.46-32.48 21.54-6.72 7.08-8.68 13.45-5.96 19.03" style="fill:#eb1b29;fill-opacity:1;fill-rule:nonzero;stroke:none" transform="matrix(.13333 0 0 -.13333 0 794.667)"></path><path d="M2434.08 3697.77h137.56v-39.74h-137.56zM3385.59 3697.77h137.56v-39.74h-137.56z" style="fill:#eb1b29;fill-opacity:1;fill-rule:evenodd;stroke:none" transform="matrix(.13333 0 0 -.13333 0 794.667)"></path><path d="M960.051 5193.25c108.099-60.32 159.459-186.68 143.929-315.48-18.86-156.52-38.66-270.61-35.32-359.01 5.23-137.93 36.12-215.08 91.05-293.56 87.41-124.88 225.11-171.5 320.92-168.09 188.9 6.69 431.89 77.31 505.47 408.39 27.69 124.6 15.66 284.57-9.34 488.64-13.48 110.07-24.42 141 73.43 242.08l-97.97 263.41c-82.2-99.76-171.03-182.97-269.51-241.95 17.59-63.76 71.48-210.57 82.91-376.33 16.7-242.27-54.27-517.26-239.05-511.74-149.41 4.46-235.14 169.77-208.24 477.03 10.94 124.93 45.63 286.57 101.01 441.68-124.47 13.56-226.53 36.54-309.22 131.64zM2145.19 5395.33c116.23-184.91 141.54-532.76 128.59-808.47-4.26-90.55-63.37-162.28-159.24-226.6v-91.88l367.47 85.74-27.6 545.04 232.76-269.4 192.91 312.33 18.41-542.01 358.26-6.15 9.17 67.38c-182.58 72.78-190.47 317.3-188.51 476.39 2.29 186.06-10.69 331.06 29.29 503.53l-162.34 3.12-275.57-459.34c-121.47 174.48-215.41 336.74-355.21 440.91zM3930.42 5052.3l-59.67 12.04c-40.8-119.4-82.72-128.78-137.7-128.95-59.56-.2-107.84 43.28-101.43 100.49 13.61 121.32 106.52 201.27 188.06 206.83 83.62 5.72 172.61-56.36 184.02-184.65l101.36.83c2.24 105.92 15.2 215.42 63.32 352.91-311.97-35.64-532.25-42.88-804.46 41.7l-18.35-131.67c72.79-54.49 87.13-194.63 89.96-270.49 7.72-206.92-27.32-484.16-71.55-684.97 105.11-16.85 210.22-40.35 315.36-73.51l9.17 94.93c-93.81 66.38-90.85 148.59-79.65 235.81 9.17 71.5 18.62 142.57 76.59 165.36 48.98 19.26 88.83-43.97 91.97-146.97l76.51-18.36c6.38 127.61 29.33 268.47 76.49 428.67M3855.49 4258.53c303.13 365.22 549.9 754.89 489.69 1095.68l122.4 79.54c112.25-120.35 238.78-195.85 416.27-250.96-58.01-267.99-79.79-518.23-72.45-747.56 6.48-202.34 28.2-408.48 96.91-574.57l-88.75-149.97c-66.6 69.38-150.77 144.88-272.39 232.58 52.01 67.35 89.31 142.19 104.06 241.78 17.52 118.25-22.09 241.14-122.45 306.08-75.24 48.68-211.22 17.53-254.03-61.21-48.23-88.67-6.06-214.21 39.82-287.69l-48.97-61.2c-124.47 71.4-261.19 130.57-410.11 177.5m703.9 768.19-137.68-195.84c-18.74-26.65-16.85-62.94 3.04-88.79 47-61.12 117.91-127.12 192.82-145.4 53.72-13.1 61.25 21.54 62.7 50.47 3.88 76.93-26.58 283.91-57.7 365.98-10.36 27.32-41.24 44.79-63.18 13.58" style="fill:#fff;fill-opacity:1;fill-rule:evenodd;stroke:none" transform="matrix(.13333 0 0 -.13333 0 794.667)" data-source="https://football-logos.cc"></path><!-- source: https://football-logos.cc --></svg>