<svg xmlns="http://www.w3.org/2000/svg" width="48.472" height="55.3" viewBox="-0.83 -0.73 48.472 55.3"><!-- Source: https://football-logos.cc --><g data-source="https://football-logos.cc" transform="translate(-86.592 -109.329)"><path d="M93.25 119.25c3.184 17.436 8.714 26.209 16.75 34.5 8.036-8.291 13.566-17.064 16.75-34.5H110Z" style="fill:#3daee8;fill-opacity:1;stroke:#000;stroke-width:.6;stroke-linecap:butt;stroke-linejoin:miter;stroke-miterlimit:4;stroke-dasharray:none;stroke-opacity:1"></path><path d="m109.573 133.548.012 1.38-1.245-1.538-.296.44c-.085.033 1.376 1.292 1.39 1.888.072 3.008-.024 8.545-.024 8.545l.59 1.133.59-1.133s-.095-5.537-.024-8.545c.014-.596 1.288-1.727 1.203-1.759l-.314-.294-1.04 1.262.012-1.38-.427.048z" style="fill:#824c25;fill-opacity:1;stroke:#000;stroke-width:.14295;stroke-linecap:butt;stroke-linejoin:miter;stroke-miterlimit:4;stroke-dasharray:none;stroke-opacity:1"></path><path d="M-105.93 149.242a2.145 4.202 0 0 1 .619-5.408 2.145 4.202 0 0 1 2.817.498l-1.553 2.897z" style="opacity:1;fill:#ffea00;fill-opacity:1;fill-rule:evenodd;stroke:#000;stroke-width:.250161;stroke-linecap:butt;stroke-linejoin:miter;stroke-miterlimit:4;stroke-dasharray:none;stroke-opacity:1;paint-order:fill markers stroke" transform="scale(-1 1)"></path><path d="M-107.807 151.401a2.145 4.202 0 0 1-2.311-3.327 2.145 4.202 0 0 1 1.443-4.855 2.145 4.202 0 0 1 2.617 2.297" style="opacity:1;fill:#ffea00;fill-opacity:1;fill-rule:evenodd;stroke:#000;stroke-width:.250161;stroke-linecap:butt;stroke-linejoin:miter;stroke-miterlimit:4;stroke-dasharray:none;stroke-opacity:1;paint-order:fill markers stroke" transform="scale(-1 1)"></path><path d="M-113.799 149.518a2.154 4.202 0 0 1 .071-4.777 2.154 4.202 0 0 1 2.316-1.559 2.154 4.202 0 0 1 1.565 3.676 2.154 4.202 0 0 1-1.21 4.156" style="opacity:1;fill:#ffea00;fill-opacity:1;fill-rule:evenodd;stroke:#000;stroke-width:.2507;stroke-linecap:butt;stroke-linejoin:miter;stroke-miterlimit:4;stroke-dasharray:none;stroke-opacity:1;paint-order:fill markers stroke" transform="scale(-1 1)"></path><path d="M-117.555 144.458a2.145 4.273 0 0 1 1.854-1.401 2.145 4.273 0 0 1 1.638 2.227l-1.89 2.016z" style="opacity:1;fill:#ffea00;fill-opacity:1;fill-rule:evenodd;stroke:#000;stroke-width:.252257;stroke-linecap:butt;stroke-linejoin:miter;stroke-miterlimit:4;stroke-dasharray:none;stroke-opacity:1;paint-order:fill markers stroke" transform="scale(-1 1)"></path><ellipse cx="-109.992" cy="149.426" rx="2.145" ry="4.202" style="opacity:1;fill:#ffea00;fill-opacity:1;fill-rule:evenodd;stroke:#000;stroke-width:.250161;stroke-linecap:butt;stroke-linejoin:miter;stroke-miterlimit:4;stroke-dasharray:none;stroke-opacity:1;paint-order:fill markers stroke" transform="scale(-1 1)"></ellipse><path d="M-107.917 151.441a2.145 4.202 0 0 1 .77-5.598 2.145 4.202 0 0 1 2.892 1.239l-1.778 2.352zm-7.823-4.353a2.145 4.202 0 0 1 1.992-1.836 2.145 4.202 0 0 1 1.768 2.57l-1.98 1.612z" style="opacity:1;fill:#ffea00;fill-opacity:1;fill-rule:evenodd;stroke:#000;stroke-width:.250161;stroke-linecap:butt;stroke-linejoin:miter;stroke-miterlimit:4;stroke-dasharray:none;stroke-opacity:1;paint-order:fill markers stroke" transform="scale(-1 1)"></path><path d="M-109.978 153.35a2.145 4.202 0 0 1 .947-5.424 2.145 4.202 0 0 1 2.827 1.472" style="opacity:1;fill:#ffea00;fill-opacity:1;fill-rule:evenodd;stroke:#000;stroke-width:.250161;stroke-linecap:butt;stroke-linejoin:miter;stroke-miterlimit:4;stroke-dasharray:none;stroke-opacity:1;paint-order:fill markers stroke" transform="scale(-1 1)"></path><path d="M-113.85 149.445a2.145 4.202 0 0 1 2.186-1.957 2.145 4.202 0 0 1 1.74 3.25l-2.095.894z" style="opacity:1;fill:#ffea00;fill-opacity:1;fill-rule:evenodd;stroke:#000;stroke-width:.250161;stroke-linecap:butt;stroke-linejoin:miter;stroke-miterlimit:4;stroke-dasharray:none;stroke-opacity:1;paint-order:fill markers stroke" transform="scale(-1 1)"></path><ellipse cx="-110" cy="153.82" rx="2.145" ry="4.202" style="opacity:1;fill:#ffea00;fill-opacity:1;fill-rule:evenodd;stroke:#000;stroke-width:.250161;stroke-linecap:butt;stroke-linejoin:miter;stroke-miterlimit:4;stroke-dasharray:none;stroke-opacity:1;paint-order:fill markers stroke" transform="scale(-1 1)"></ellipse><g style="font-style:normal;font-variant:normal;font-weight:400;font-stretch:normal;font-size:40.0002px;line-height:1.25;font-family:Montserrat;-inkscape-font-specification:&quot;Montserrat, Normal&quot;;font-variant-ligatures:normal;font-variant-caps:normal;font-variant-numeric:normal;font-feature-settings:normal;text-align:start;letter-spacing:0;word-spacing:0;writing-mode:lr-tb;text-anchor:start;fill:#000;fill-opacity:1;stroke:none"><path d="M111.392 763.267q2.44 0 4.2-.8 1.76-.84 3.68-2.64l3.04 3.12q-4.44 4.92-10.8 4.92-6.32 0-10.52-4.08-4.16-4.08-4.16-10.32t4.24-10.4q4.28-4.16 10.76-4.16 6.52 0 10.88 4.8l-3 3.28q-2-1.92-3.8-2.68-1.76-.76-4.16-.76-4.24 0-7.12 2.76-2.88 2.72-2.88 7 0 4.24 2.84 7.12 2.88 2.84 6.8 2.84" aria-label="C" style="font-style:normal;font-variant:normal;font-weight:400;font-stretch:normal;font-size:40.0002px;font-family:Montserrat;-inkscape-font-specification:&quot;Montserrat, Normal&quot;;font-variant-ligatures:normal;font-variant-caps:normal;font-variant-numeric:normal;font-feature-settings:normal;text-align:start;writing-mode:lr-tb;text-anchor:start" transform="matrix(.18696 0 0 .1776 84.403 5.72)"></path></g><path d="M415.748 411.969c-19.084 16.854-52.55 28.021-90.39 9.892-1.97 75.726 33.18 145.345 90.39 196.092 57.21-50.747 92.36-120.366 90.39-196.092-37.84 18.13-71.306 6.962-90.39-9.892zm-63.307 38.74h126.614c-12.036 65.9-32.935 99.056-63.307 130.393-30.372-31.337-51.271-64.493-63.307-130.393z" style="fill:#fff;fill-opacity:1;stroke:#000;stroke-width:2.26772;stroke-linecap:butt;stroke-linejoin:miter;stroke-miterlimit:4;stroke-dasharray:none;stroke-opacity:1" transform="scale(.26458)"></path><g style="font-style:normal;font-variant:normal;font-weight:400;font-stretch:normal;font-size:40.0001px;line-height:1.25;font-family:Montserrat;-inkscape-font-specification:&quot;Montserrat, Normal&quot;;font-variant-ligatures:normal;font-variant-caps:normal;font-variant-numeric:normal;font-feature-settings:normal;text-align:start;letter-spacing:0;word-spacing:0;writing-mode:lr-tb;text-anchor:start;fill:#000;fill-opacity:1;stroke:none"><path d="M103.352 767.547h-4.72v-27.96h7.36l8.44 17.56 8.44-17.56h7.32v27.96h-4.72v-21.84l-9.76 19.4h-2.64l-9.72-19.4z" aria-label="M" style="font-style:normal;font-variant:normal;font-weight:400;font-stretch:normal;font-size:40.0001px;font-family:Montserrat;-inkscape-font-specification:&quot;Montserrat, Normal&quot;;font-variant-ligatures:normal;font-variant-caps:normal;font-variant-numeric:normal;font-feature-settings:normal;text-align:start;writing-mode:lr-tb;text-anchor:start" transform="matrix(.1516 0 0 .18596 97.792 -.635)"></path></g><path d="M109.551 128.504a1.8 1.8 0 0 0-.74.16.7.7 0 0 0-.284.27c-.083.147-.03.347-.114.492-.137.238-.338.484-.601.56-.164.048-.333-.113-.502-.094-.334.038-.295-.062-.926.402-.247.182-.251.484-.475.613-.352.203-.976-.081-1.209.166-.136.145.005.409-.34.675-.166.128-.455.173-.694.214-.27.046-.597-.033-.824.032-.382.108-.699.16-.982.67-.08.294-.345.962.214 1.111.585.157.49-.264.759-.33.421-.106.35-.268 1.3-.104.267.015.675.314.936.514.195.15.486-.253.718-.172.192.066.16.337.378.476.68.438 1.623.085 1.623.085.787-.714.349-.402.786-.714.734-.42.946.16 1.214.223.218.05.429-.16.639-.206a.65.65 0 0 1 .392.101c.113.08.143.241.233.348.1.117.21.226.335.317.16.116.276.291.518.284.183-.005.353-.112.535-.12.29-.013.582.188.862.113.165-.044.247-.248.406-.31.182-.072.41.031.584-.057.152-.076.174-.355.343-.377.192-.025.293.32.486.316.202-.004.301-.288.493-.348.215-.068.444.043.674.005.144-.07.443-.121.484-.147.094-.024.503.072.756.07.23 0 .51-.068.688-.072.183-.004.375-.085.42-.382.037-.233-.186-.41-.328-.393s-.408-.069-.61-.113c-.121-.026-.145-.105-.362-.09 0 0-.277.033-.4.046-.455.048-.723-.587-.748-.604 0 0-.12-.155-.435-.21-.292-.051-.419-.333-.67-.405-.201-.058-.423.026-.63-.012-.247-.046-.538-.07-.709-.255-.188-.202-.006-.627-.222-.8-.159-.127-.406-.033-.609-.028-.29.007-.453-.233-.865.082-.199.153-.1-.55-.344-.613-.315-.08-.323-.484-.46-.899-.16-.485-1.456-.477-1.456-.477a2 2 0 0 0-.237-.014z" style="fill:#17b719;fill-opacity:1;stroke:#000;stroke-width:.15;stroke-linecap:butt;stroke-linejoin:miter;stroke-miterlimit:4;stroke-dasharray:none;stroke-opacity:1"></path><g style="font-style:normal;font-variant:normal;font-weight:400;font-stretch:normal;font-size:40.0005px;line-height:1.25;font-family:Montserrat;-inkscape-font-specification:&quot;Montserrat, Normal&quot;;font-variant-ligatures:normal;font-variant-caps:normal;font-variant-numeric:normal;font-feature-settings:normal;text-align:start;letter-spacing:0;word-spacing:0;writing-mode:lr-tb;text-anchor:start;fill:#000;fill-opacity:1;stroke:none"><path d="m102.592 761.187-2.8 6.36h-5.04l12.32-27.96h5.04l12.32 27.96h-5.04l-2.8-6.36zm12.08-4.36-5.08-11.52-5.08 11.52z" aria-label="A" style="font-style:normal;font-variant:normal;font-weight:400;font-stretch:normal;font-size:40.0005px;font-family:Montserrat;-inkscape-font-specification:&quot;Montserrat, Normal&quot;;font-variant-ligatures:normal;font-variant-caps:normal;font-variant-numeric:normal;font-feature-settings:normal;text-align:start;writing-mode:lr-tb;text-anchor:start" transform="matrix(.18338 0 0 .21975 89.934 -41.606)"></path></g><path d="m121.8 114.154-4.72-1.088v6.171l4.72.013z" style="fill:#000;fill-opacity:1;stroke:none;stroke-width:.0887782;stroke-linecap:butt;stroke-linejoin:miter;stroke-miterlimit:4;stroke-dasharray:none;stroke-opacity:1"></path><path d="m107.64 110.741 2.36-1.74 2.36 1.741v8.508l-2.36-.05-2.36.05z" style="fill:#000;fill-opacity:1;stroke:none;stroke-width:.096796;stroke-linecap:butt;stroke-linejoin:miter;stroke-miterlimit:4;stroke-dasharray:none;stroke-opacity:1"></path><path d="m88.76 112.652 4.72 1.256V142.9l-4.72-11.397z" style="fill:#000;fill-opacity:1;stroke:none;stroke-width:.2;stroke-linecap:butt;stroke-linejoin:miter;stroke-miterlimit:4;stroke-dasharray:none;stroke-opacity:1"></path><path d="m98.2 113.935 4.72-.936v6.251H98.2Z" style="fill:#000;fill-opacity:1;stroke:none;stroke-width:.0830678;stroke-linecap:butt;stroke-linejoin:miter;stroke-miterlimit:4;stroke-dasharray:none;stroke-opacity:1"></path><path d="m131.24 112.717-4.72 1.257v28.992l4.72-11.397z" style="fill:#000;fill-opacity:1;stroke:none;stroke-width:.2;stroke-linecap:butt;stroke-linejoin:miter;stroke-miterlimit:4;stroke-dasharray:none;stroke-opacity:1"></path><path d="m98.2 136.743 4.72 8.357v11.202l-4.72-5.845z" style="fill:#000;fill-opacity:1;stroke:none;stroke-width:.21854;stroke-linecap:butt;stroke-linejoin:miter;stroke-miterlimit:4;stroke-dasharray:none;stroke-opacity:1"></path><path d="m107.64 151.008 2.36 2.742 2.36-2.835v10.395L110 163.5l-2.36-2.33z" style="fill:#000;fill-opacity:1;stroke:none;stroke-width:.0975612;stroke-linecap:butt;stroke-linejoin:miter;stroke-miterlimit:4;stroke-dasharray:none;stroke-opacity:1"></path><path d="m121.8 136.66-4.72 8.44v11.27l4.72-5.907z" style="fill:#000;fill-opacity:1;stroke:none;stroke-width:.141935;stroke-linecap:butt;stroke-linejoin:miter;stroke-miterlimit:4;stroke-dasharray:none;stroke-opacity:1"></path></g><!-- source: https://football-logos.cc --></svg>